<?xml version="1.0" standalone="no"?>
<!DOCTYPE svg PUBLIC "-//W3C//DTD SVG 1.1//EN" "http://www.w3.org/Graphics/SVG/1.1/DTD/svg11.dtd" >
<svg xmlns="http://www.w3.org/2000/svg">
<metadata>
Generated by SVGconv.
Copyright   : Copyright (c) 2001, 2005 Parachute?, www.parachute.gr.  All rights reserved.
Designer    : Panos Vassiliou
Foundry     : Parachute? Worldwide
Foundry URL : http://www.parachute.gr
</metadata>
<defs>
<font id="PFHighwaySansPro-Light" horiz-adv-x="657" >
<font-face units-per-em="1000" ascent="942" descent="345" />
<missing-glyph horiz-adv-x="439" />
<glyph unicode="&#13;" horiz-adv-x="228" />
<glyph unicode="&#32;" horiz-adv-x="228" />
<glyph unicode="&#33;" horiz-adv-x="251" d="M153 170h-44l-15 211v270h74v-269zM81 42q0 26 16 38.5q16 12.5 34 12.5q22 0 35.5 -15q13.5 -15 13.5 -35q0 -21 -14 -36q-14 -15 -35 -15q-21 0 -35.5 14.5t-14.5 35.5z" />
<glyph unicode="&#34;" horiz-adv-x="352" d="M265 439h-42l-17 212h76zM130 439h-41l-17 212l75 0z" />
<glyph unicode="&#35;" horiz-adv-x="609" d="M581 413h-114l-28 -166h113l-10 -62h-114l-33 -185h-67l32 185h-156l-32 -185h-69l33 185h-113l11 62h113l29 166h-113l10 62h114l30 176h67l-30 -176h157l30 176h67l-30 -176h114zM242 415l-29 -170h160l29 170z" />
<glyph unicode="&#36;" horiz-adv-x="609" d="M261 6q-53 5 -98 26.5q-45 21.5 -80 54.5l48 52q35 -32 78 -50q43 -18 90 -18q67 0 107.5 25.5q40.5 25.5 40.5 81.5q0 45 -31.5 69q-31.5 24 -91.5 44q-50 17 -91.5 32q-41.5 15 -71 35q-29.5 20 -45.5 49q-16 29 -16 74q0 33 12 60.5q12 27.5 33.5 49q21.5 21.5 51 35.5q29.5 14 64.5 19l0 95h69v-93q98 -8 168 -66l-45 -52q-35 27 -72.5 40.5q-37.5 13.5 -83.5 13.5q-60 0 -92 -28q-32 -28 -32 -70q0 -23 10.5 -39.5q10.5 -16.5 27.5 -28.5q17 -12 38 -21q21 -9 43 -16q35 -12 75 -25q40 -13 74.5 -34.5q34.5 -21.5 57 -55q22.5 -33.5 22.5 -85.5q0 -73 -47.5 -119.5q-47.5 -46.5 -143.5 -54.5l0 -93l-69 0z" />
<glyph unicode="&#37;" horiz-adv-x="851" d="M821 197q0 -46 -13 -83.5q-13 -37.5 -37 -64q-24 -26.5 -57.5 -41q-33.5 -14.5 -74.5 -14.5q-43 0 -76.5 15q-33.5 15 -56.5 42q-23 27 -35 64.5q-12 37.5 -12 81.5q0 43 12 80q12 37 35 64q23 27 56.5 42.5q33.5 15.5 76.5 15.5q41 0 74.5 -15q33.5 -15 57.5 -41.5q24 -26.5 37 -63.5q13 -37 13 -82zt0 0zM755 197q0 63 -29 104q-29 41 -87 41q-58 0 -87 -40q-29 -40 -29 -105q0 -30 7 -57q7 -27 21.5 -47q14.5 -20 36.5 -31.5q22 -11.5 51 -11.5q29 0 51 11.5q22 11.5 36.5 31.5q14.5 20 21.5 47q7 27 7 57zt0 0zM392 454q0 -45 -13 -82q-13 -37 -37 -64q-24 -27 -57.5 -41.5q-33.5 -14.5 -74.5 -14.5q-43 0 -76.5 15q-33.5 15 -56.5 42q-23 27 -35 64q-12 37 -12 81q0 44 12 81q12 37 35 64q23 27 56.5 42.5q33.5 15.5 76.5 15.5q41 0 74.5 -14.5q33.5 -14.5 57.5 -41.5q24 -27 37 -64.5q13 -37.5 13 -82.5zt0 0zM326 454q0 65 -29 105.5q-29 40.5 -87 40.5q-58 0 -87 -40q-29 -40 -29 -106q0 -30 7 -56.5q7 -26.5 21.5 -46q14.5 -19.5 36.5 -31q22 -11.5 51 -11.5q29 0 51 11.5q22 11.5 36.5 31q14.5 19.5 21.5 46q7 26.5 7 56.5zt0 0zM252 -21h-63l410 696l64 0z" />
<glyph unicode="&#38;" horiz-adv-x="729" d="M538 378q38 0 79 -6q41 -6 68 -14l-11 -53q-24 6 -46 9q-22 3 -54 5q2 -14 3 -29q1 -15 1 -29q0 -69 -21 -120.5q-21 -51.5 -56.5 -85.5q-35.5 -34 -82.5 -50.5q-47 -16.5 -99 -16.5q-62 0 -107.5 18.5q-45.5 18.5 -75 48.5q-29.5 30 -44 69q-14.5 39 -14.5 80q0 62 35 120q35 58 101 102q-74 65 -74 137q0 21 7.5 44q7.5 23 23.5 42.5q16 19.5 41.5 32q25.5 12.5 61.5 12.5q27 0 51 -8.5q24 -8.5 42 -24.5q18 -16 28.5 -40q10.5 -24 10.5 -55q0 -27 -10 -51q-10 -24 -25 -44q-15 -20 -33 -36q-18 -16 -34 -27q22 -23 38.5 -44q16.5 -21 21.5 -53q32 36 77 51.5q45 15.5 97 15.5zt0 0zM322 47q51 0 86.5 19q35.5 19 58 50q22.5 31 33 70q10.5 39 10.5 79q0 13 -1.5 26.5q-1.5 13.5 -3.5 27.5q-46 -3 -85.5 -30q-39.5 -27 -71.5 -92l-47 24q8 17 12.5 30q4.5 13 4.5 26q0 22 -14.5 44q-14.5 22 -49.5 58q-49 -31 -78.5 -79.5q-29.5 -48.5 -29.5 -96.5q0 -23 7.5 -50q7.5 -27 27.5 -50.5q20 -23.5 54 -39.5q34 -16 87 -16zt0 0zM271 639q-9 0 -20 -3q-11 -3 -21 -11.5q-10 -8.5 -16.5 -23q-6.5 -14.5 -6.5 -37.5q0 -36 16.5 -60.5q16.5 -24.5 42.5 -49.5q75 48 75 111q0 27 -16.5 50.5t-53.5 23.5z" />
<glyph unicode="&#39;" horiz-adv-x="228" d="M135 439h-42l-17 212l76 0z" />
<glyph unicode="&#40;" horiz-adv-x="304" d="M258 667q-32 -38 -58.5 -83q-26.5 -45 -45.5 -93.5q-19 -48.5 -30 -99.5q-11 -51 -11 -101q0 -54 11 -106q11 -52 30 -100q19 -48 45.5 -91.5q26.5 -43.5 56.5 -80.5l-41 -37q-36 36 -68.5 82q-32.5 46 -56.5 99q-24 53 -38.5 111q-14.5 58 -14.5 118q0 61 14 120.5q14 59.5 38.5 113.5q24.5 54 57 101q32.5 47 68.5 83l43 -36z" />
<glyph unicode="&#41;" horiz-adv-x="304" d="M44 667q1 1 7.5 6.5q6.5 5.5 13.5 11.5q7 6 13.5 11.5q6.5 5.5 8.5 6.5q36 -36 68.5 -83q32.5 -47 57 -101q24.5 -54 38.5 -113.5q14 -59.5 14 -120.5q0 -60 -14.5 -118q-14.5 -58 -38.5 -110.5q-24 -52.5 -56.5 -98.5q-32.5 -46 -68.5 -82h-41q62 110 102.5 207.5q40.5 97.5 40.5 206.5q0 50 -11 100.5q-11 50.5 -30 99.5q-19 49 -46 94t-58 83z" />
<glyph unicode="&#42;" horiz-adv-x="445" d="M339 390l-47 -36l-66 108l-65 -109l-48 37l77 96l-115 32l17 57l114 -48l-8 124h56l-8 -124l114 48l18 -57l-118 -32z" />
<glyph unicode="&#43;" horiz-adv-x="609" d="M337 279v-168h-66v168h-168v64h168v175h66v-175h169l0 -64z" />
<glyph unicode="&#44;" horiz-adv-x="204" d="M50 -76q19 14 31.5 32q12.5 18 14.5 41q-22 0 -38 10.5q-16 10.5 -16 35.5q0 23 15 38q15 15 36 15q24 0 41 -19q17 -19 17 -52q0 -43 -23 -74q-23 -31 -58 -52z" />
<glyph unicode="&#45;" horiz-adv-x="336" d="M53 274v73h232l0 -73z" />
<glyph unicode="&#46;" horiz-adv-x="192" d="M145 43q0 -21 -14.5 -36q-14.5 -15 -35.5 -15q-21 0 -35.5 14.5q-14.5 14.5 -14.5 36.5q0 22 14.5 37q14.5 15 35.5 15q21 0 35.5 -15t14.5 -37z" />
<glyph unicode="&#47;" horiz-adv-x="410" d="M2 -80l340 809h68l-339 -809z" />
<glyph unicode="&#48;" horiz-adv-x="609" d="M578 326q0 -76 -19.5 -138q-19.5 -62 -55 -106q-35.5 -44 -85.5 -68q-50 -24 -112 -24q-65 0 -115 25q-50 25 -84.5 69.5q-34.5 44.5 -52.5 106q-18 61.5 -18 134.5q0 72 18 133.5q18 61.5 52.5 106.5q34.5 45 84.5 70.5q50 25.5 115 25.5q62 0 112 -24q50 -24 85.5 -68.5q35.5 -44.5 55 -106q19.5 -61.5 19.5 -136.5zt0 0zM500 325q0 58 -12 106.5q-12 48.5 -36.5 84q-24.5 35.5 -61 55q-36.5 19.5 -84.5 19.5q-48 0 -84.5 -19.5q-36.5 -19.5 -60.5 -54q-24 -34.5 -36 -83.5q-12 -49 -12 -107q0 -56 11.5 -104.5q11.5 -48.5 35.5 -84.5q24 -36 60.5 -57q36.5 -21 85.5 -21q49 0 85.5 20.5q36.5 20.5 60.5 56.5q24 36 36 84.5t12 104.5z" />
<glyph unicode="&#49;" horiz-adv-x="609" d="M285 0v533h-84v49q46 4 65.5 20q19.5 16 30.5 49l63 0l0 -651z" />
<glyph unicode="&#50;" horiz-adv-x="609" d="M69 0q5 67 27.5 118.5q22.5 51.5 57 91.5q34.5 40 78.5 71.5q44 31.5 93 60.5q33 20 56.5 36.5q23.5 16.5 37.5 33q14 16.5 20.5 34q6.5 17.5 6.5 39.5q0 52 -37 79.5q-37 27.5 -106 27.5q-44 0 -87 -16q-43 -16 -81 -45l-43 55q45 35 99.5 55q54.5 20 113.5 20q103 0 160.5 -46q57.5 -46 57.5 -124q0 -34 -9 -60.5q-9 -26.5 -28.5 -50.5q-19.5 -24 -51 -47q-31.5 -23 -75.5 -49q-51 -29 -85.5 -54q-34.5 -25 -57 -50q-22.5 -25 -36 -52q-13.5 -27 -21.5 -60l369 0l0 -68z" />
<glyph unicode="&#51;" horiz-adv-x="609" d="M518 188q0 -46 -18.5 -82.5q-18.5 -36.5 -51.5 -62q-33 -25.5 -78 -39.5q-45 -14 -98 -14q-70 0 -126 24q-56 24 -96 65q2 2 9.5 9q7.5 7 16 15.5q8.5 8.5 16.5 15.5q8 7 10 9q35 -34 79 -51.5q44 -17.5 92 -17.5q35 0 65.5 8.5q30.5 8.5 53 24.5q22.5 16 35.5 40q13 24 13 55q0 31 -12 54q-12 23 -32 38q-20 15 -46 22q-26 7 -55 7h-43v62h44q28 0 51.5 9q23.5 9 40.5 24.5q17 15.5 26.5 36q9.5 20.5 9.5 43.5q0 21 -8 40.5q-8 19.5 -25.5 35q-17.5 15.5 -45 25q-27.5 9.5 -67.5 9.5q-39 0 -80 -15.5q-41 -15.5 -73 -41.5l-46 52q42 35 94 54q52 19 111 19q47 0 87 -11.5q40 -11.5 69 -33.5q29 -22 45.5 -53.5q16.5 -31.5 16.5 -71.5q0 -46 -26 -87q-26 -41 -82 -64l0 -2q33 -8 56.5 -24q23.5 -16 38.5 -37q15 -21 22 -44.5t7 -44.5z" />
<glyph unicode="&#52;" horiz-adv-x="609" d="M479 148v-148h-70v148h-371v67l362 436h79v-436h88v-67zM409 556l-284 -341l284 0z" />
<glyph unicode="&#53;" horiz-adv-x="609" d="M545 215q0 -56 -18.5 -98.5q-18.5 -42.5 -52.5 -70.5q-34 -28 -81.5 -42q-47.5 -14 -105.5 -14q-62 0 -116.5 15q-54.5 15 -102.5 43l34 59q43 -23 92.5 -36.5q49.5 -13.5 95.5 -13.5q84 0 131.5 39.5q47.5 39.5 47.5 114.5q0 34 -12 60q-12 26 -32.5 43q-20.5 17 -49 25.5q-28.5 8.5 -61.5 8.5q-44 0 -85.5 -13q-41.5 -13 -69.5 -33q-3 1 -13.5 5.5q-10.5 4.5 -23 9.5q-12.5 5 -23 9q-10.5 4 -12.5 5q1 13 2.5 38q1.5 25 3.5 56q2 31 4.5 65.5q2.5 34.5 4.5 65.5q2 31 4 56.5q2 25.5 3 38.5l391 0v-67h-328q-1 -15 -2.5 -43.5q-1.5 -28.5 -4 -59.5q-2.5 -31 -4.5 -59.5q-2 -28.5 -3 -43.5l2 -1q45 23 85 30.5q40 7.5 78 7.5q52 0 93.5 -15q41.5 -15 70 -41.5q28.5 -26.5 43.5 -63.5t15 -80z" />
<glyph unicode="&#54;" horiz-adv-x="609" d="M296 -10q-49 0 -92.5 14.5q-43.5 14.5 -75.5 46q-32 31.5 -51 79.5q-19 48 -19 116q0 63 19 133q19 70 64.5 130q45.5 60 121 102q75.5 42 187.5 48l0 -66q-128 -10 -206 -74.5q-78 -64.5 -110 -194.5l3 0q20 22 44 36.5q24 14.5 48.5 22.5q24.5 8 49.5 11.5q25 3.5 46 3.5q43 0 83 -11.5q40 -11.5 71.5 -35.5q31.5 -24 50.5 -61q19 -37 19 -88q0 -51 -18.5 -90.5q-18.5 -39.5 -52.5 -66.5q-34 -27 -80.5 -41q-46.5 -14 -101.5 -14zt0 0zM310 335q-38 0 -70.5 -9q-32.5 -9 -56 -26.5q-23.5 -17.5 -37 -43q-13.5 -25.5 -13.5 -58.5q0 -26 11 -51.5q11 -25.5 32 -46q21 -20.5 52.5 -33.5q31.5 -13 72.5 -13q78 0 126 37.5q48 37.5 48 105.5q0 72 -46.5 105t-118.5 33z" />
<glyph unicode="&#55;" horiz-adv-x="609" d="M523 576q-48 -52 -90 -116.5q-42 -64.5 -73.5 -138.5q-31.5 -74 -49.5 -155q-18 -81 -19 -166l-76 0q1 75 17 153q16 78 45 153.5q29 75.5 71.5 146q42.5 70.5 97.5 130.5l-378 0v68h454l1 -75z" />
<glyph unicode="&#56;" horiz-adv-x="609" d="M305 -10q-122 0 -186.5 51q-64.5 51 -64.5 142q0 25 7.5 50.5q7.5 25.5 23.5 47.5q16 22 41 39.5q25 17.5 61 28.5l0 1q-33 10 -53.5 27.5q-20.5 17.5 -32 37q-11.5 19.5 -15 38.5q-3.5 19 -3.5 32q0 43 17 76q17 33 47.5 55.5q30.5 22.5 72 33.5q41.5 11 89.5 11q46 0 87 -11q41 -11 71 -33q30 -22 47.5 -55q17.5 -33 17.5 -76q0 -12 -3.5 -30.5q-3.5 -18.5 -14.5 -38q-11 -19.5 -32 -38q-21 -18.5 -56 -29.5l0 -1q36 -9 61.5 -26.5q25.5 -17.5 42 -39.5q16.5 -22 24.5 -48q8 -26 8 -52q0 -89 -67 -141q-67 -52 -190 -52zt0 0zM306 314q-82 0 -130.5 -33.5q-48.5 -33.5 -48.5 -95.5q0 -33 13 -58q13 -25 37 -42q24 -17 57 -26q33 -9 73 -9q39 0 72 8.5q33 8.5 57 25.5q24 17 38 41q14 24 14 56q0 65 -47.5 99q-47.5 34 -134.5 34zt0 0zM307 601q-75 0 -112.5 -33q-37.5 -33 -37.5 -82q0 -26 11.5 -46.5q11.5 -20.5 31.5 -35q20 -14.5 47.5 -22q27.5 -7.5 60.5 -7.5q68 0 109 29.5q41 29.5 41 78.5q0 24 -9 45.5q-9 21.5 -27.5 37.5q-18.5 16 -47 25.5t-67.5 9.5z" />
<glyph unicode="&#57;" horiz-adv-x="609" d="M308 659q49 0 92.5 -14.5q43.5 -14.5 76 -45q32.5 -30.5 51.5 -79q19 -48.5 19 -117.5q0 -63 -19 -133q-19 -70 -64.5 -130q-45.5 -60 -121 -102q-75.5 -42 -187.5 -48l0 65q127 9 204.5 74q77.5 65 111.5 195l-2 2q-22 -24 -47.5 -38.5q-25.5 -14.5 -51 -22.5q-25.5 -8 -49.5 -11q-24 -3 -43 -3q-43 0 -83 11q-40 11 -71 35q-31 24 -50 61q-19 37 -19 89q0 52 19.5 91.5q19.5 39.5 53 66.5q33.5 27 80 40.5q46.5 13.5 100.5 13.5zt0 0zM296 313q38 0 70 9.5q32 9.5 55.5 27.5q23.5 18 37 44q13.5 26 13.5 58q0 25 -10.5 50q-10.5 25 -31.5 45q-21 20 -52.5 33q-31.5 13 -73.5 13q-39 0 -71 -9.5q-32 -9.5 -55.5 -27.5q-23.5 -18 -36.5 -44.5q-13 -26.5 -13 -60.5q0 -36 12.5 -62q12.5 -26 35 -43q22.5 -17 53.5 -25t67 -8z" />
<glyph unicode="&#58;" horiz-adv-x="218" d="M160 369q0 -22 -14.5 -36.5q-14.5 -14.5 -35.5 -14.5q-21 0 -35.5 14.5q-14.5 14.5 -14.5 36.5q0 21 14.5 36.5q14.5 15.5 35.5 15.5q21 0 35.5 -15.5q14.5 -15.5 14.5 -36.5zt0 0zM160 43q0 -21 -14.5 -36q-14.5 -15 -35.5 -15q-21 0 -35.5 14.5q-14.5 14.5 -14.5 36.5q0 22 14.5 37q14.5 15 35.5 15q21 0 35.5 -15t14.5 -37z" />
<glyph unicode="&#59;" horiz-adv-x="226" d="M168 369q0 -22 -15 -37q-15 -15 -36 -15q-22 0 -37.5 15q-15.5 15 -15.5 37q0 21 15.5 36.5q15.5 15.5 37.5 15.5q21 0 36 -15q15 -15 15 -37zt0 0zM68 -77q18 14 31 32q13 18 15 41q-22 -2 -38 11q-16 13 -16 37q0 23 15 38q15 15 36 15q24 0 41 -19q17 -19 17 -52q0 -44 -23 -75q-23 -31 -58 -53z" />
<glyph unicode="&#60;" horiz-adv-x="609" d="M111 289v60q34 16 86 43q52 27 107.5 56q55.5 29 107.5 55.5q52 26.5 85 43.5l0 -72l-306 -155q16 -8 40.5 -21q24.5 -13 53 -28q28.5 -15 59.5 -31.5q31 -16.5 59.5 -32q28.5 -15.5 53 -28q24.5 -12.5 40.5 -20.5l0 -72z" />
<glyph unicode="&#61;" horiz-adv-x="609" d="M106 376v66h397v-66zM106 185v66h397l0 -66z" />
<glyph unicode="&#62;" horiz-adv-x="609" d="M111 87v72l306 161q-24 11 -66 32.5q-42 21.5 -87 45q-45 23.5 -87 45q-42 21.5 -66 32.5l0 72q34 -17 86 -43.5q52 -26.5 107.5 -55.5q55.5 -29 107 -56q51.5 -27 85.5 -43l0 -60z" />
<glyph unicode="&#63;" horiz-adv-x="488" d="M248 659q47 0 83.5 -13.5q36.5 -13.5 61 -36.5q24.5 -23 37 -54q12.5 -31 12.5 -66q0 -36 -12 -65q-12 -29 -30 -54q-18 -25 -39 -47q-21 -22 -39.5 -45.5q-18.5 -23.5 -31 -50q-12.5 -26.5 -13.5 -58.5l-71 0q0 35 12.5 65.5q12.5 30.5 30.5 57.5q18 27 39 52q21 25 39 48.5q18 23.5 30 47q12 23.5 12 49.5q0 16 -6 34.5q-6 18.5 -20.5 33.5q-14.5 15 -38.5 25q-24 10 -59 10q-34 0 -58.5 -11.5q-24.5 -11.5 -41 -29.5q-16.5 -18 -25.5 -39q-9 -21 -12 -39l-73 0q4 45 23 79.5q19 34.5 47.5 58q28.5 23.5 65 36q36.5 12.5 77.5 12.5zt0 0zM241 -7q-21 0 -35 13.5q-14 13.5 -14 35.5q0 25 15.5 37.5q15.5 12.5 34.5 12.5q21 0 34.5 -14.5q13.5 -14.5 13.5 -35.5q0 -21 -14 -35t-35 -14z" />
<glyph unicode="&#64;" horiz-adv-x="830" d="M381 135q-56 0 -93 40q-37 40 -37 117q0 56 14 97q14 41 36.5 67.5q22.5 26.5 50.5 39.5q28 13 57 13q22 0 47 -8.5q25 -8.5 47 -30.5l3 32h56l-22 -263v-7q0 -22 10 -35q10 -13 32 -13q24 0 46.5 14q22.5 14 39 39.5q16.5 25.5 26.5 60.5q10 35 10 76q0 62 -22.5 109.5q-22.5 47.5 -60 80q-37.5 32.5 -86.5 49q-49 16.5 -102 16.5q-67 0 -123.5 -23q-56.5 -23 -98 -63.5q-41.5 -40.5 -65 -96q-23.5 -55.5 -23.5 -120.5q0 -71 22.5 -127.5q22.5 -56.5 63.5 -97q41 -40.5 97.5 -62q56.5 -21.5 125.5 -21.5q57 0 101.5 9q44.5 9 94.5 31l17 -47q-49 -18 -99 -29.5q-50 -11.5 -110 -11.5q-79 0 -146 24.5q-67 24.5 -116 70.5q-49 46 -76.5 112q-27.5 66 -27.5 149q0 75 27.5 139q27.5 64 76 111q48.5 47 114.5 74q66 27 144 27q73 0 133.5 -21.5q60.5 -21.5 103.5 -61.5q43 -40 66.5 -95.5q23.5 -55.5 23.5 -124.5q0 -56 -14.5 -100q-14.5 -44 -39.5 -75.5q-25 -31.5 -58.5 -48q-33.5 -16.5 -70.5 -16.5q-12 0 -25.5 3q-13.5 3 -25.5 9q-12 6 -21 15.5q-9 9.5 -13 21.5l-2 0q-23 -22 -51 -35q-28 -13 -57 -13zt0 0zM396 187q23 0 44.5 13q21.5 13 41.5 36l14 174q-13 18 -35 32.5q-22 14.5 -48 14.5q-25 0 -44 -13q-19 -13 -32 -35q-13 -22 -20 -51q-7 -29 -7 -61q0 -52 23 -81t63 -29z" />
<glyph unicode="&#65;" horiz-adv-x="621" d="M446 222q-33 87 -66.5 172.5q-33.5 85.5 -65.5 173.5l-3 0q-14 -38 -30 -80.5q-16 -42.5 -29 -76.5q-6 -17 -16 -42q-10 -25 -20.5 -52.5q-10.5 -27.5 -20 -53q-9.5 -25.5 -15.5 -41.5zM155 154q-14 -39 -29.5 -77.5q-15.5 -38.5 -29.5 -76.5l-79 0q65 164 128 325.5q63 161.5 128 325.5l82 0q64 -164 127.5 -325.5q63.5 -161.5 128.5 -325.5l-80 0q-15 38 -30 76.5q-15 38.5 -29 77.5z" />
<glyph unicode="&#66;" horiz-adv-x="595" d="M545 193q0 -93 -56 -143q-56 -50 -159 -50h-262v651h266q82 0 132.5 -41.5q50.5 -41.5 50.5 -119.5q0 -45 -25 -83q-25 -38 -69 -53l0 -3q26 -6 48.5 -20q22.5 -14 39 -35q16.5 -21 25.5 -47q9 -26 9 -56zt0 0zM140 583v-201h190q53 0 82.5 29.5q29.5 29.5 29.5 72.5q0 45 -27 72q-27 27 -81 27zM140 314v-245h192q69 0 102.5 33q33.5 33 33.5 90q0 59 -39 90.5q-39 31.5 -99 31.5z" />
<glyph unicode="&#67;" horiz-adv-x="556" d="M320 662q66 0 116.5 -22q50.5 -22 88.5 -67l-53 -53q-33 37 -70 54q-37 17 -83 17q-47 0 -83 -19.5q-36 -19.5 -61 -55q-25 -35.5 -38 -84q-13 -48.5 -13 -105.5q0 -56 12.5 -105q12.5 -49 37 -85q24.5 -36 61.5 -56.5q37 -20.5 86 -20.5q88 0 154 75l53 -49q-38 -45 -88 -70.5q-50 -25.5 -121 -25.5q-60 0 -110.5 23q-50.5 23 -86.5 66.5q-36 43.5 -56 105.5q-20 62 -20 141q0 78 20 140q20 62 56.5 105.5q36.5 43.5 87 67t110.5 23.5z" />
<glyph unicode="&#68;" horiz-adv-x="612" d="M238 651q66 0 124.5 -18q58.5 -18 103 -57q44.5 -39 70 -100.5q25.5 -61.5 25.5 -149.5q0 -88 -26 -150q-26 -62 -71 -101q-45 -39 -104 -57q-59 -18 -125 -18h-162v651zM148 582v-513h89q63 0 109 18.5q46 18.5 76.5 52q30.5 33.5 45.5 81q15 47.5 15 104.5q0 57 -15 104.5q-15 47.5 -45.5 81q-30.5 33.5 -76.5 52.5q-46 19 -108 19z" />
<glyph unicode="&#69;" horiz-adv-x="510" d="M66 0v651h415v-69h-340v-200h242v-69h-242v-244h353l0 -69z" />
<glyph unicode="&#70;" horiz-adv-x="495" d="M146 581v-207h240v-69h-240v-305h-75v651h418l0 -70z" />
<glyph unicode="&#71;" horiz-adv-x="594" d="M315 660q66 0 117 -22.5q51 -22.5 90 -68.5l-54 -52q-65 72 -154 72q-48 0 -84.5 -19.5q-36.5 -19.5 -61 -55q-24.5 -35.5 -37 -84q-12.5 -48.5 -12.5 -105.5q0 -59 12.5 -107.5q12.5 -48.5 37.5 -84q25 -35.5 62 -55q37 -19.5 86 -19.5q47 0 79 15.5q32 15.5 52 40.5q20 25 29 55.5q9 30.5 9 59.5v23h-110v67h187v-60q0 -63 -17.5 -113.5q-17.5 -50.5 -50 -85q-32.5 -34.5 -78 -53q-45.5 -18.5 -102.5 -18.5q-64 0 -114.5 23.5q-50.5 23.5 -86 67.5q-35.5 44 -54.5 105.5q-19 61.5 -19 138.5q0 79 20 141q20 62 56.5 105q36.5 43 87 66t110.5 23z" />
<glyph unicode="&#72;" horiz-adv-x="622" d="M480 0v305h-339v-305h-76v651h76v-276h339v276h76l0 -651z" />
<glyph unicode="&#73;" horiz-adv-x="243" d="M83 0v651h77l0 -651z" />
<glyph unicode="&#74;" horiz-adv-x="549" d="M476 254q0 -134 -56 -199q-56 -65 -173 -65q-90 0 -142 40q-52 40 -78 112l72 27q21 -52 55.5 -80q34.5 -28 94.5 -28q84 0 117.5 52.5q33.5 52.5 33.5 148.5v389l76 0z" />
<glyph unicode="&#75;" horiz-adv-x="579" d="M472 0q-8 16 -23 44q-15 28 -33.5 62.5q-18.5 34.5 -38.5 72.5q-20 38 -38.5 72.5q-18.5 34.5 -33.5 63q-15 28.5 -23 44.5q-10 -13 -29.5 -37.5q-19.5 -24.5 -41 -52q-21.5 -27.5 -41 -52q-19.5 -24.5 -29.5 -37.5l0 -180h-76v651h76v-365h2l86 115l195 250h88l-180 -228q9 -18 27 -51q18 -33 40.5 -74.5q22.5 -41.5 46.5 -86q24 -44.5 46 -86q22 -41.5 40 -74.5q18 -33 27 -51z" />
<glyph unicode="&#76;" horiz-adv-x="485" d="M65 0v651h76v-581h337l0 -70z" />
<glyph unicode="&#77;" horiz-adv-x="713" d="M569 481h-2l-58 -138q-22 -48 -44 -97q-22 -49 -42.5 -93.5q-20.5 -44.5 -38 -82q-17.5 -37.5 -30.5 -64.5q-30 60 -58 122q-12 26 -25 55q-13 29 -26 58q-13 29 -25.5 57q-12.5 28 -22.5 54q-6 14 -14.5 35q-8.5 21 -16.5 41q-8 20 -14 35.5q-6 15.5 -7 18.5l-2 0v-482h-74v651h77q12 -27 28.5 -63q16.5 -36 35.5 -77q19 -41 38 -84.5q19 -43.5 36 -83.5l70 -164h4q18 41 35.5 81q17.5 40 34.5 82q4 9 15 33q11 24 25 56q14 32 30 67q16 35 30 66q14 31 24.5 54.5q10.5 23.5 14.5 32.5l76 0v-651l-74 0z" />
<glyph unicode="&#78;" horiz-adv-x="610" d="M478 0q-24 36 -57.5 87.5q-33.5 51.5 -72 110q-38.5 58.5 -78 119q-39.5 60.5 -74.5 114.5q-17 26 -32.5 51q-15.5 25 -22.5 37l-2 0v-519h-75v651h74q58 -89 115.5 -176q57.5 -87 115.5 -175q12 -18 25.5 -39q13.5 -21 27 -43q13.5 -22 26 -42.5q12.5 -20.5 23.5 -36.5l2 0v512h75v-651l-70 0z" />
<glyph unicode="&#79;" horiz-adv-x="635" d="M589 326q0 -76 -19.5 -138q-19.5 -62 -55 -106q-35.5 -44 -85.5 -68q-50 -24 -112 -24q-65 0 -115 25q-50 25 -85 69.5q-35 44.5 -53 106q-18 61.5 -18 134.5q0 72 18.5 133.5q18.5 61.5 53 106.5q34.5 45 85 70.5q50.5 25.5 114.5 25.5q62 0 112 -24q50 -24 85.5 -68.5q35.5 -44.5 55 -106q19.5 -61.5 19.5 -136.5zt0 0zM511 325q0 57 -12 106q-12 49 -36.5 85q-24.5 36 -61 56q-36.5 20 -84.5 20q-48 0 -84.5 -20q-36.5 -20 -60.5 -55.5q-24 -35.5 -36.5 -84q-12.5 -48.5 -12.5 -106.5q0 -55 12 -103.5q12 -48.5 36.5 -85q24.5 -36.5 61 -57.5q36.5 -21 84.5 -21q49 0 85.5 21.5q36.5 21.5 60.5 57.5q24 36 36 84.5t12 102.5z" />
<glyph unicode="&#80;" horiz-adv-x="552" d="M540 454q0 -51 -16 -88.5q-16 -37.5 -44.5 -63q-28.5 -25.5 -68 -38q-39.5 -12.5 -87.5 -12.5h-184v-252h-74v651h265q46 0 84 -12q38 -12 66 -37q28 -25 43.5 -62q15.5 -37 15.5 -86zt0 0zM140 583v-262h189q64 0 99 34q35 34 35 97q0 63 -36.5 97q-36.5 34 -96.5 34z" />
<glyph unicode="&#81;" horiz-adv-x="637" d="M593 327q0 -91 -28 -160.5q-28 -69.5 -79 -114.5l40 -62l-56 -37l-40 62q-27 -13 -53.5 -18.5q-26.5 -5.5 -55.5 -5.5q-62 0 -112 23.5q-50 23.5 -85 67q-35 43.5 -54.5 105.5q-19.5 62 -19.5 139q0 76 19.5 138q19.5 62 54.5 106q35 44 85 67.5q50 23.5 112 23.5q62 0 112 -23.5q50 -23.5 85.5 -67q35.5 -43.5 55 -105.5q19.5 -62 19.5 -138zt0 0zM516 326q0 58 -12.5 106.5q-12.5 48.5 -37 84q-24.5 35.5 -61 55.5q-36.5 20 -84.5 20q-48 0 -84.5 -19.5q-36.5 -19.5 -61 -54.5q-24.5 -35 -36.5 -84q-12 -49 -12 -107q0 -57 12 -106.5q12 -49.5 36 -85.5q24 -36 60.5 -56.5q36.5 -20.5 85.5 -20.5q17 0 36 3q19 3 36 11l-46 71l56 35l43 -67q38 40 54 95t16 120z" />
<glyph unicode="&#82;" horiz-adv-x="583" d="M447 0l-118 257h-190v-257h-74v651h268q45 0 83.5 -12q38.5 -12 66 -36q27.5 -24 43 -60.5q15.5 -36.5 15.5 -86.5q0 -75 -36 -123q-36 -48 -101 -66l130 -267zM465 454q0 63 -37 96q-37 33 -97 33h-192v-259h192q64 0 99 34.5t35 95.5z" />
<glyph unicode="&#83;" horiz-adv-x="534" d="M508 173q0 -84 -59.5 -133.5q-59.5 -49.5 -179.5 -49.5q-66 0 -122.5 23q-56.5 23 -98.5 62l50 55q37 -33 82.5 -52q45.5 -19 93.5 -19q71 0 113.5 25.5q42.5 25.5 42.5 86.5q0 28 -12.5 48q-12.5 20 -34.5 34.5q-22 14.5 -52 25q-30 10.5 -64 21.5q-47 15 -84 30q-37 15 -63 35.5q-26 20.5 -40 49.5q-14 29 -14 71q0 39 16 71.5q16 32.5 44.5 55.5q28.5 23 68 35.5q39.5 12.5 85.5 12.5q60 0 111 -18q51 -18 93 -52q-2 -3 -9 -11q-7 -8 -14.5 -17q-7.5 -9 -14.5 -17q-7 -8 -9 -10q-36 29 -76 42.5q-40 13.5 -89 13.5q-63 0 -96.5 -29q-33.5 -29 -33.5 -73q0 -24 11 -41.5q11 -17.5 28.5 -29.5q17.5 -12 40 -21q22.5 -9 45.5 -17q37 -12 79 -25.5q42 -13.5 78 -36q36 -22.5 60 -57t24 -89.5z" />
<glyph unicode="&#84;" horiz-adv-x="502" d="M291 582v-582h-74v582h-198v69h471l0 -69z" />
<glyph unicode="&#85;" horiz-adv-x="616" d="M556 270q0 -142 -65 -211q-65 -69 -183 -69q-116 0 -179 70.5q-63 70.5 -63 210.5v380h75v-377q0 -98 42 -155.5q42 -57.5 127 -57.5q88 0 129 55.5q41 55.5 41 151.5v383l76 0z" />
<glyph unicode="&#86;" horiz-adv-x="595" d="M258 0l-231 651h81l148 -420l44 -131h3q15 44 29.5 87q14.5 43 28.5 87l132 377h80l-229 -651z" />
<glyph unicode="&#87;" horiz-adv-x="753" d="M378 518l-36 -149q-4 -15 -11 -44q-7 -29 -16 -65q-9 -36 -18.5 -75.5q-9.5 -39.5 -18 -75.5q-8.5 -36 -15.5 -65q-7 -29 -11 -44l-87 0l-139 651h77q3 -15 9 -45q6 -30 13.5 -66.5q7.5 -36.5 15 -76.5q7.5 -40 15 -76.5q7.5 -36.5 13.5 -66q6 -29.5 9 -44.5l32 -162h2l39 161q4 16 11.5 45.5q7.5 29.5 16 66q8.5 36.5 18.5 76.5q10 40 18.5 76.5q8.5 36.5 16 66q7.5 29.5 11.5 45.5l73 0q4 -15 11.5 -45q7.5 -30 16.5 -67q9 -37 19 -78q10 -41 19 -78q9 -37 16.5 -67q7.5 -30 11.5 -45l37 -157h1q3 13 7.5 34.5q4.5 21.5 9 44.5q4.5 23 8.5 44q4 21 7 34l77 380h74q-6 -27 -16.5 -78q-10.5 -51 -24 -114.5q-13.5 -63.5 -28.5 -133q-15 -69.5 -28.5 -133q-13.5 -63.5 -24.5 -114.5q-11 -51 -17 -78l-88 0q-4 15 -11 44q-7 29 -15.5 64.5q-8.5 35.5 -17.5 75q-9 39.5 -17.5 75q-8.5 35.5 -15.5 64.5q-7 29 -11 44q-1 4 -6 26.5q-5 22.5 -11.5 49q-6.5 26.5 -12 49q-5.5 22.5 -6.5 26.5z" />
<glyph unicode="&#88;" horiz-adv-x="549" d="M431 0l-158 270l-157 -270h-87l206 334l-193 317h89l144 -249l146 249h85l-192 -315l205 -336z" />
<glyph unicode="&#89;" horiz-adv-x="560" d="M317 231v-231h-75v231l-234 420h86l186 -351l187 351l84 0z" />
<glyph unicode="&#90;" horiz-adv-x="553" d="M523 582l-397 -513h395v-69h-484v68l398 514h-379v69l467 0z" />
<glyph unicode="&#91;" horiz-adv-x="311" d="M69 -113v815h200v-64h-127v-686h127l0 -65z" />
<glyph unicode="&#92;" horiz-adv-x="410" d="M341 -80l-339 809h68l340 -809z" />
<glyph unicode="&#93;" horiz-adv-x="319" d="M66 -113v65h127v686h-127v64h200l0 -815z" />
<glyph unicode="&#94;" horiz-adv-x="520" d="M393 335l-131 251l-132 -251h-68l172 316h58l171 -316z" />
<glyph unicode="&#95;" horiz-adv-x="497" d="M0 -124v54h497l0 -54z" />
<glyph unicode="&#96;" horiz-adv-x="483" d="M143 713l83 15l72 -159l-38 -13z" />
<glyph unicode="&#97;" horiz-adv-x="477" d="M245 497q85 0 130.5 -39.5q45.5 -39.5 45.5 -118.5v-339h-70v48h-2q-39 -35 -77.5 -46q-38.5 -11 -73.5 -11q-29 0 -58 8.5q-29 8.5 -52.5 27q-23.5 18.5 -38 47.5q-14.5 29 -14.5 71q0 36 13.5 65q13.5 29 38 49.5q24.5 20.5 58 31.5q33.5 11 73.5 11q32 0 64.5 -6.5q32.5 -6.5 68.5 -26.5l0 60q0 56 -28.5 81.5q-28.5 25.5 -85.5 25.5q-36 0 -67 -9q-31 -9 -62 -24l-24 56q35 17 74 27.5q39 10.5 87 10.5zt0 0zM351 209q-30 17 -60 27q-30 10 -72 10q-48 0 -81 -25.5q-33 -25.5 -33 -73.5q0 -48 28 -73q28 -25 81 -25q39 2 74.5 21q35.5 19 62.5 46z" />
<glyph unicode="&#98;" horiz-adv-x="501" d="M270 497q35 0 68.5 -13.5q33.5 -13.5 59 -43q25.5 -29.5 41 -77q15.5 -47.5 15.5 -114.5q0 -66 -16 -114.5q-16 -48.5 -42.5 -81q-26.5 -32.5 -60.5 -48q-34 -15.5 -70 -15.5q-33 0 -67 11q-34 11 -69 46l-2 0v-47h-71v660l71 32v-255h2q40 35 74 47.5q34 12.5 67 12.5zt0 0zM253 435q-19 0 -37 -6q-18 -6 -34.5 -16q-16.5 -10 -30.5 -22.5q-14 -12.5 -24 -24.5l0 -246q21 -27 53.5 -48.5q32.5 -21.5 73.5 -21.5q28 0 52 13.5q24 13.5 41 38q17 24.5 27 59q10 34.5 10 76.5q0 97 -32.5 147.5t-98.5 50.5z" />
<glyph unicode="&#99;" horiz-adv-x="438" d="M251 497q98 0 160 -69l-47 -47q-27 29 -55 41q-28 12 -60 12q-31 0 -55.5 -14.5q-24.5 -14.5 -41.5 -40q-17 -25.5 -26 -60q-9 -34.5 -9 -75.5q0 -41 8.5 -75.5q8.5 -34.5 26 -60q17.5 -25.5 42.5 -40q25 -14.5 58 -14.5q33 0 59.5 12.5q26.5 12.5 53.5 40.5l47 -43q-29 -34 -67.5 -54q-38.5 -20 -95.5 -20q-42 0 -79 15.5q-37 15.5 -64.5 47q-27.5 31.5 -43.5 79.5q-16 48 -16 112q0 61 15.5 108q15.5 47 43.5 79.5q28 32.5 65 49t81 16.5z" />
<glyph unicode="&#100;" horiz-adv-x="498" d="M246 497q70 0 124 -51l2 0v214l71 32v-692h-71v48h-2q-36 -36 -72 -47q-36 -11 -70 -11q-36 0 -69 14q-33 14 -58.5 44q-25.5 30 -40.5 76q-15 46 -15 110q0 71 18 121q18 50 46.5 81.5q28.5 31.5 64.5 46q36 14.5 72 14.5zt0 0zM251 435q-64 0 -100 -51q-36 -51 -36 -144q0 -88 35 -139q35 -51 95 -51q41 0 73.5 21.5q32.5 21.5 54.5 48.5l0 247q-20 27 -52.5 47.5t-69.5 20.5z" />
<glyph unicode="&#101;" horiz-adv-x="489" d="M251 497q49 0 86.5 -17.5q37.5 -17.5 63 -50q25.5 -32.5 39 -78q13.5 -45.5 13.5 -101.5v-33h-337q5 -81 45 -123q40 -42 97 -42q32 0 62 13q30 13 53 34l42 -45q-67 -64 -164 -64q-41 0 -78.5 16q-37.5 16 -66 48q-28.5 32 -45 79.5q-16.5 47.5 -16.5 109.5q0 59 16 106q16 47 43.5 80q27.5 33 65 50.5q37.5 17.5 81.5 17.5zt0 0zM383 274q0 33 -8 62.5q-8 29.5 -24.5 51q-16.5 21.5 -41.5 34.5q-25 13 -60 13q-26 0 -49 -11.5q-23 -11.5 -41 -33q-18 -21.5 -29.5 -51q-11.5 -29.5 -13.5 -65.5z" />
<glyph unicode="&#102;" horiz-adv-x="286" d="M166 0h-72v429h-63v59h63v93q0 57 31.5 82.5q31.5 25.5 82.5 25.5q12 0 31 -1q19 -1 31 -3l-2 -58q-11 1 -20.5 1q-9.5 0 -17.5 0q-31 0 -47.5 -11q-16.5 -11 -16.5 -43v-86h103v-59l-103 0z" />
<glyph unicode="&#103;" horiz-adv-x="500" d="M444 34q0 -88 -45.5 -150.5q-45.5 -62.5 -151.5 -90.5l-23 60q49 16 78.5 35q29.5 19 45.5 40q16 21 21 43.5q5 22.5 5 43.5v38h-2q-41 -36 -75 -48q-34 -12 -66 -12q-36 0 -69.5 13q-33.5 13 -59 42.5q-25.5 29.5 -41 77.5q-15.5 48 -15.5 119q0 64 16.5 111q16.5 47 43 78.5q26.5 31.5 60.5 47q34 15.5 69 15.5q33 0 67.5 -11.5q34.5 -11.5 67.5 -45.5l2 0v48h72zM373 366q-21 27 -53.5 49q-32.5 22 -73.5 22q-28 0 -52 -14q-24 -14 -41 -38.5q-17 -24.5 -27 -59q-10 -34.5 -10 -76.5q0 -97 33 -146q33 -49 99 -49q38 0 71.5 22q33.5 22 53.5 48z" />
<glyph unicode="&#104;" horiz-adv-x="487" d="M439 0h-72v293q0 69 -27 105.5q-27 36.5 -88 36.5q-45 0 -77 -29.5q-32 -29.5 -43 -72.5q-5 -18 -5 -42v-291h-71v660l71 32v-272h3q27 41 67 59q40 18 76 18q85 0 125.5 -49.5q40.5 -49.5 40.5 -143.5z" />
<glyph unicode="&#105;" horiz-adv-x="229" d="M160 619q0 -18 -13.5 -31.5q-13.5 -13.5 -31.5 -13.5q-19 0 -32.5 13.5q-13.5 13.5 -13.5 31.5q0 19 13.5 32q13.5 13 31.5 13q19 0 32.5 -13q13.5 -13 13.5 -32zt0 0zM79 0v488h71l0 -488z" />
<glyph unicode="&#106;" horiz-adv-x="229" d="M167 619q0 -18 -13.5 -31.5q-13.5 -13.5 -31.5 -13.5q-19 0 -32 13.5q-13 13.5 -13 31.5q0 19 13 32q13 13 32 13q18 0 31.5 -13q13.5 -13 13.5 -32zt0 0zM156 -5q0 -45 -6 -80q-6 -35 -23.5 -59q-17.5 -24 -50.5 -37q-33 -13 -87 -15l-6 60q35 6 55.5 15q20.5 9 31 23.5q10.5 14.5 13 35q2.5 20.5 2.5 49.5v501l71 0z" />
<glyph unicode="&#107;" horiz-adv-x="437" d="M345 0l-116 270l-103 -131v-139h-70v660l70 32v-451h2q6 7 16 21q10 14 20.5 28q10.5 14 20 26.5q9.5 12.5 13.5 18.5l118 152h87l-125 -158q6 -14 17.5 -40q11.5 -26 25.5 -58q14 -32 29.5 -67q15.5 -35 29.5 -67q14 -32 25.5 -58q11.5 -26 17.5 -39z" />
<glyph unicode="&#108;" horiz-adv-x="205" d="M67 0v660l71 33l0 -693z" />
<glyph unicode="&#109;" horiz-adv-x="757" d="M128 421q26 43 63.5 59q37.5 16 72.5 16q50 0 84.5 -22.5q34.5 -22.5 49.5 -64.5l1 0q36 49 74.5 68q38.5 19 79.5 19q84 0 119 -49.5q35 -49.5 35 -142.5v-304h-71v293q0 66 -21.5 103.5q-21.5 37.5 -81.5 37.5q-21 0 -39 -8q-18 -8 -33 -22q-15 -14 -25.5 -32.5q-10.5 -18.5 -14.5 -39.5q-5 -18 -5 -37v-295h-71v297q0 64 -22 100.5q-22 36.5 -81 36.5q-43 0 -71.5 -27.5q-28.5 -27.5 -39.5 -69.5q-2 -11 -4 -23q-2 -12 -2 -24v-290h-71v488h71l0 -67z" />
<glyph unicode="&#110;" horiz-adv-x="487" d="M438 0h-72v293q0 69 -27 105.5q-27 36.5 -88 36.5q-45 0 -77 -29.5q-32 -29.5 -43 -71.5q-5 -20 -5 -43v-291h-71v488h71v-69l2 -1q27 42 67 60.5q40 18.5 77 18.5q85 0 125.5 -49.5q40.5 -49.5 40.5 -143.5z" />
<glyph unicode="&#111;" horiz-adv-x="513" d="M468 246q0 -61 -16.5 -108.5q-16.5 -47.5 -45 -80.5q-28.5 -33 -67.5 -50q-39 -17 -85 -17q-47 0 -85.5 17.5q-38.5 17.5 -66 50.5q-27.5 33 -42.5 80q-15 47 -15 106q0 61 16 108.5q16 47.5 44.5 79.5q28.5 32 67 48.5q38.5 16.5 83.5 16.5q45 0 84 -17q39 -17 67.5 -49.5q28.5 -32.5 44.5 -79q16 -46.5 16 -105.5zt0 0zM397 244q0 41 -9 76q-9 35 -27 60.5q-18 25.5 -45 40q-27 14.5 -62 14.5q-33 0 -59 -15q-26 -15 -43 -40.5q-17 -25.5 -26 -60q-9 -34.5 -9 -73.5q0 -88 37.5 -140.5q37.5 -52.5 103.5 -52.5q35 0 61 15.5q26 15.5 43.5 41.5q17.5 26 26 60.5t8.5 73.5z" />
<glyph unicode="&#112;" horiz-adv-x="500" d="M454 248q0 -69 -17.5 -118q-17.5 -49 -46 -79.5q-28.5 -30.5 -63.5 -45q-35 -14.5 -71 -14.5q-35 0 -66 12q-31 12 -62 43l-2 0v-205l-70 -33v681h71v-49h2q34 33 70 45.5q36 12.5 70 12.5q35 0 68.5 -14.5q33.5 -14.5 59.5 -45q26 -30.5 41.5 -77.5q15.5 -47 15.5 -113zt0 0zM384 249q0 88 -36 138q-36 50 -94 50q-42 0 -74.5 -21q-32.5 -21 -53.5 -48l0 -247q20 -27 53 -47.5q33 -20.5 69 -20.5q66 0 101 50.5t35 145.5z" />
<glyph unicode="&#113;" horiz-adv-x="498" d="M45 249q0 64 16.5 110.5q16.5 46.5 43 77q26.5 30.5 60.5 45.5q34 15 69 15q33 0 67.5 -11q34.5 -11 68.5 -46l2 0v48h71v-648l-71 -32v242h-2q-40 -35 -74 -47.5q-34 -12.5 -66 -12.5q-36 0 -69.5 14q-33.5 14 -59 44.5q-25.5 30.5 -41 80q-15.5 49.5 -15.5 120.5zt0 0zM115 253q0 -97 33 -149q33 -52 99 -52q38 0 71.5 22q33.5 22 53.5 47l0 245q-21 27 -53.5 49q-32.5 22 -73.5 22q-28 0 -51.5 -13q-23.5 -13 -41 -37q-17.5 -24 -27.5 -58t-10 -76z" />
<glyph unicode="&#114;" horiz-adv-x="349" d="M328 416q-17 3 -32 5q-15 2 -29 2q-62 0 -93.5 -36q-31.5 -36 -31.5 -102v-285h-71v488h71v-67l2 -1q20 41 56.5 59q36.5 18 77.5 18q31 0 66 -11z" />
<glyph unicode="&#115;" horiz-adv-x="438" d="M399 129q0 -34 -14.5 -60q-14.5 -26 -39.5 -43.5q-25 -17.5 -59 -26.5q-34 -9 -73 -9q-45 0 -91 12q-46 12 -84 34l27 55q38 -20 77 -30.5q39 -10.5 73 -10.5q20 0 40.5 4q20.5 4 37 13q16.5 9 26.5 23q10 14 10 34q0 21 -9.5 35.5q-9.5 14.5 -26 25.5q-16.5 11 -39 19.5q-22.5 8.5 -49.5 17.5q-34 10 -62.5 23q-28.5 13 -49.5 30q-21 17 -32.5 39q-11.5 22 -11.5 51q0 29 12.5 53.5q12.5 24.5 35.5 42q23 17.5 55.5 27q32.5 9.5 73.5 9.5q83 0 154 -36l-24 -57q-36 19 -71 25.5q-35 6.5 -60 6.5q-48 0 -77.5 -19.5q-29.5 -19.5 -29.5 -46.5q0 -26 22.5 -46.5q22.5 -20.5 84.5 -38.5q37 -11 68.5 -24q31.5 -13 55 -31q23.5 -18 37 -42.5t13.5 -58.5z" />
<glyph unicode="&#116;" horiz-adv-x="313" d="M169 488h102v-60h-102v-313q0 -33 13 -45.5q13 -12.5 41 -12.5q14 0 29 2q15 2 35 5q0 -2 1 -10q1 -8 2 -17q1 -9 2 -17q1 -8 1 -10q-16 -7 -42 -12q-26 -5 -48 -5q-53 0 -77.5 27.5q-24.5 27.5 -24.5 84.5v323h-74v60h75v118l67 30z" />
<glyph unicode="&#117;" horiz-adv-x="486" d="M52 488h71v-294q0 -72 26 -107q26 -35 87 -35q45 0 75.5 28.5q30.5 28.5 41.5 70.5q6 21 6 46v291h71v-488h-71v68h-3q-27 -42 -65.5 -60q-38.5 -18 -74.5 -18q-164 0 -164 187z" />
<glyph unicode="&#118;" horiz-adv-x="450" d="M186 0l-175 488h74q23 -71 47 -140q24 -69 48 -139q3 -10 9 -27q6 -17 12.5 -36q6.5 -19 12 -36.5q5.5 -17.5 8.5 -27.5l3 0q11 32 21 63.5q10 31.5 20 63.5q24 70 47 139q23 69 47 140l73 0l-173 -488z" />
<glyph unicode="&#119;" horiz-adv-x="623" d="M407 0l-80 303l-19 78h-2q-6 -26 -13 -51.5q-7 -25.5 -14 -51.5l-74 -278h-63l-130 488h72l59 -240l31 -139h3l36 141l63 238h65l66 -249l31 -130h3l31 131l62 248h72q-34 -123 -67 -244q-33 -121 -66 -244z" />
<glyph unicode="&#120;" horiz-adv-x="419" d="M316 0l-109 193l-110 -193h-80l152 252l-141 236h81l100 -176l101 176h79l-142 -233l153 -255z" />
<glyph unicode="&#121;" horiz-adv-x="463" d="M135 -187l63 180l-183 495h75l90 -258l49 -147h3q13 37 25.5 73.5q12.5 36.5 24.5 73.5q8 22 20.5 56.5q12.5 34.5 26 72q13.5 37.5 25.5 72.5q12 35 20 57l72 0q-61 -168 -122.5 -338q-61.5 -170 -122.5 -337z" />
<glyph unicode="&#122;" horiz-adv-x="450" d="M126 61h280v-61h-367v58q12 17 34 46q22 29 49.5 64q27.5 35 56.5 73.5q29 38.5 56.5 73.5q27.5 35 49.5 64q22 29 34 46l-1 3h-260v60h348v-57q-13 -17 -35 -46q-22 -29 -49 -64.5q-27 -35.5 -56.5 -73.5q-29.5 -38 -57 -73.5q-27.5 -35.5 -49.5 -64.5q-22 -29 -34 -46z" />
<glyph unicode="&#123;" horiz-adv-x="317" d="M240 -112q-60 0 -89 35q-29 35 -29 96v125q0 21 -3.5 41.5q-3.5 20.5 -12 37.5q-8.5 17 -22 28.5q-13.5 11.5 -33.5 14.5l0 49q21 2 34.5 13.5q13.5 11.5 21.5 28.5q8 17 11.5 38.5q3.5 21.5 3.5 43.5v120q0 61 29 96q29 35 90 35h47v-57h-39q-17 0 -28.5 -7.5q-11.5 -7.5 -18 -20.5q-6.5 -13 -9 -31q-2.5 -18 -2.5 -38v-101q0 -61 -23 -96.5q-23 -35.5 -51 -46.5l0 -4q14 -5 27.5 -16q13.5 -11 24 -28.5q10.5 -17.5 16.5 -42q6 -24.5 6 -57.5v-102q0 -20 2.5 -38q2.5 -18 9 -31q6.5 -13 18 -20.5q11.5 -7.5 28.5 -7.5h39l0 -57z" />
<glyph unicode="&#124;" horiz-adv-x="231" d="M88 -123v871h66l0 -871z" />
<glyph unicode="&#125;" horiz-adv-x="317" d="M52 -112v57h39q34 0 46 28q12 28 12 69v102q0 66 22.5 100q22.5 34 51.5 44l0 4q-29 11 -51.5 46.5q-22.5 35.5 -22.5 96.5v101q0 20 -2.5 38q-2.5 18 -9 31q-6.5 13 -18 20.5q-11.5 7.5 -28.5 7.5h-39v57h47q60 0 89 -35q29 -35 29 -96v-120q0 -22 3.5 -43.5q3.5 -21.5 12 -38.5q8.5 -17 22 -28.5q13.5 -11.5 34.5 -13.5l0 -49q-20 -3 -34 -14.5q-14 -11.5 -22.5 -28.5q-8.5 -17 -12 -37.5q-3.5 -20.5 -3.5 -41.5v-125q0 -61 -28.5 -96q-28.5 -35 -88.5 -35z" />
<glyph unicode="&#126;" horiz-adv-x="609" d="M540 365q-45 -94 -130 -94q-24 0 -50.5 10.5q-26.5 10.5 -52.5 22.5q-26 12 -51 22.5q-25 10.5 -47 10.5q-29 0 -48.5 -16q-19.5 -16 -38.5 -41l-43 22q12 27 28 45.5q16 18.5 33.5 29.5q17.5 11 35.5 16q18 5 34 5q26 0 53 -10q27 -10 53 -22.5q26 -12.5 50 -22.5q24 -10 45 -10q29 0 49 14.5q20 14.5 39 43.5z" />
<glyph unicode="&#161;" horiz-adv-x="251" d="M110 295h43l15 -212v-256h-74v255zM180 436q0 -25 -15 -38q-15 -13 -34 -13q-22 0 -36 14.5q-14 14.5 -14 35.5q0 21 14.5 35.5q14.5 14.5 35.5 14.5q21 0 35 -14t14 -35z" />
<glyph unicode="&#162;" horiz-adv-x="609" d="M294 -7q-38 5 -70.5 23.5q-32.5 18.5 -56 50q-23.5 31.5 -37 75.5q-13.5 44 -13.5 101q0 55 13 99.5q13 44.5 36.5 76q23.5 31.5 56 50.5q32.5 19 71.5 25l0 108h53v-106q82 -8 140 -72l-46 -46q-29 29 -55.5 42.5q-26.5 13.5 -61.5 13.5q-32 0 -57.5 -14.5q-25.5 -14.5 -42.5 -39.5q-17 -25 -26 -60q-9 -35 -9 -75q0 -41 8.5 -76q8.5 -35 25.5 -60.5q17 -25.5 43 -40.5q26 -15 62 -15q35 0 61 14q26 14 53 42l46 -40q-24 -32 -58.5 -52.5q-34.5 -20.5 -82.5 -24.5l0 -110l-53 0z" />
<glyph unicode="&#163;" horiz-adv-x="609" d="M80 67q43 43 64 89.5q21 46.5 22 112.5l-87 0v60h80q-5 22 -12.5 42q-7.5 20 -14 39q-6.5 19 -11 38.5q-4.5 19.5 -4.5 40.5q0 34 14 65q14 31 40.5 55q26.5 24 64 38q37.5 14 84.5 14q77 0 126.5 -28.5q49.5 -28.5 81.5 -77.5l-61 -41q-26 37 -61 58.5q-35 21.5 -86 21.5q-21 0 -44 -6.5q-23 -6.5 -41.5 -20q-18.5 -13.5 -30.5 -35q-12 -21.5 -12 -51.5q0 -16 5 -33.5q5 -17.5 11.5 -37q6.5 -19.5 13 -39.5q6.5 -20 10.5 -41l155 0v-60h-148v-13q0 -51 -18 -100q-18 -49 -56 -91l364 0v-66l-449 0z" />
<glyph unicode="&#164;" horiz-adv-x="609" d="M46 510q11 11 21.5 22q10.5 11 21.5 22l68 -68q26 19 56.5 29q30.5 10 65.5 10q64 0 120 -39l68 68l44 -45l-69 -67q39 -56 39 -120q0 -33 -10 -63q-10 -30 -29 -58l69 -65l-44 -45q-17 17 -34 34q-17 17 -34 34q-29 -22 -59 -31q-30 -9 -62 -9q-32 0 -61.5 9q-29.5 9 -58.5 31l-69 -69l-43 45l68 66q-21 31 -30.5 61q-9.5 30 -9.5 59q0 32 10.5 63.5q10.5 31.5 29.5 57.5zM135 321q0 -29 11 -55q11 -26 30.5 -45.5q19.5 -19.5 45.5 -30.5q26 -11 55 -11q29 0 55 11q26 11 45.5 30.5q19.5 19.5 31 45.5q11.5 26 11.5 55q0 30 -11 56q-11 26 -30.5 45.5q-19.5 19.5 -45.5 30.5q-26 11 -56 11q-29 0 -55 -11q-26 -11 -45.5 -30.5q-19.5 -19.5 -30.5 -45.5t-11 -56z" />
<glyph unicode="&#165;" horiz-adv-x="609" d="M77 293h169l-42 75h-127v58h96l-124 225h87l171 -334l172 334h85l-125 -225h99v-58h-131l-42 -75h173v-58h-195v-235h-75v235l-191 0z" />
<glyph unicode="&#166;" horiz-adv-x="231" d="M88 313v435h66v-435zM88 -187v433h66l0 -433z" />
<glyph unicode="&#167;" horiz-adv-x="554" d="M229 340q-28 -8 -44.5 -24q-16.5 -16 -16.5 -35q0 -26 26.5 -45.5q26.5 -19.5 88.5 -39.5q39 -12 74 -25.5q35 -13.5 62 -31.5q27 -18 43 -42q16 -24 16 -57q0 -34 -16.5 -60q-16.5 -26 -44.5 -44q-28 -18 -65 -27q-37 -9 -78 -9q-47 0 -97.5 12.5q-50.5 12.5 -91.5 34.5l29 56q40 -20 83 -31.5q43 -11.5 79 -11.5q22 0 45 4q23 4 42 13q19 9 30.5 23.5q11.5 14.5 11.5 34.5q0 18 -11 32.5q-11 14.5 -30.5 25.5q-19.5 11 -45.5 21q-26 10 -56 19q-36 11 -66 24.5q-30 13.5 -52 30.5q-22 17 -34.5 38.5q-12.5 21.5 -12.5 49.5q0 45 29.5 77q29.5 32 82.5 46zM341 272q23 9 38 24.5q15 15.5 15 39.5q0 19 -10 32.5q-10 13.5 -27 24.5q-17 11 -41 20.5q-24 9.5 -52 18.5q-36 12 -66 24.5q-30 12.5 -51.5 29q-21.5 16.5 -34 38.5q-12.5 22 -12.5 51q0 59 48.5 95.5q48.5 36.5 137.5 36.5q87 0 162 -36l-27 -57q-38 19 -74 26q-36 7 -62 7q-53 0 -83.5 -20q-30.5 -20 -30.5 -47q0 -26 25.5 -45.5q25.5 -19.5 88.5 -39.5q39 -13 72.5 -26.5q33.5 -13.5 58 -30.5q24.5 -17 38 -40.5q13.5 -23.5 13.5 -56.5q0 -47 -28 -78q-28 -31 -74 -47z" />
<glyph unicode="&#168;" horiz-adv-x="483" d="M393 627q0 -18 -13 -31q-13 -13 -30 -13q-18 0 -31.5 13q-13.5 13 -13.5 31q0 19 13 31.5q13 12.5 32 12.5q17 0 30 -12.5q13 -12.5 13 -31.5zt0 0zM201 627q0 -18 -13.5 -31q-13.5 -13 -30.5 -13q-18 0 -31.5 13q-13.5 13 -13.5 31q0 19 13.5 31.5q13.5 12.5 31.5 12.5q17 0 30.5 -12.5t13.5 -31.5z" />
<glyph unicode="&#169;" horiz-adv-x="753" d="M380 -10q-70 0 -130 25.5q-60 25.5 -104 70.5q-44 45 -69 106.5q-25 61.5 -25 132.5q0 72 25 133.5q25 61.5 69 106.5q44 45 104 70.5q60 25.5 130 25.5q70 0 130 -25.5q60 -25.5 104 -70.5q44 -45 69.5 -106.5q25.5 -61.5 25.5 -133.5q0 -71 -25.5 -132.5q-25.5 -61.5 -69.5 -106.5q-44 -45 -104 -70.5q-60 -25.5 -130 -25.5zt0 0zM380 614q-60 0 -111.5 -22q-51.5 -22 -89 -61q-37.5 -39 -59 -92q-21.5 -53 -21.5 -114q0 -61 21.5 -114q21.5 -53 59 -92q37.5 -39 89 -61q51.5 -22 111.5 -22q60 0 111.5 22q51.5 22 89 61q37.5 39 59 92q21.5 53 21.5 114q0 61 -21.5 114q-21.5 53 -59 92q-37.5 39 -89 61q-51.5 22 -111.5 22zt0 0zM384 121q-38 0 -69 14.5q-31 14.5 -52.5 41q-21.5 26.5 -33 64q-11.5 37.5 -11.5 82.5q0 46 12 83.5q12 37.5 34 64q22 26.5 52.5 41q30.5 14.5 67.5 14.5q45 0 76.5 -18q31.5 -18 53.5 -53l-43 -25q-17 24 -37.5 36.5q-20.5 12.5 -49.5 12.5q-57 0 -85.5 -43.5q-28.5 -43.5 -28.5 -112.5q0 -68 28.5 -111.5q28.5 -43.5 85.5 -43.5q32 0 52 12q20 12 39 36l41 -26q-52 -69 -132 -69z" />
<glyph unicode="&#170;" horiz-adv-x="332" d="M176 593q61 0 93 -27q32 -27 32 -81v-223h-58v29q-28 -20 -52 -27q-24 -7 -47 -7q-21 0 -41.5 5.5q-20.5 5.5 -37 18q-16.5 12.5 -27 32.5q-10.5 20 -10.5 48q0 48 36 77q36 29 93 29q22 0 42 -4q20 -4 44 -15l0 31q0 63 -71 63q-24 0 -45.5 -6.5q-21.5 -6.5 -44.5 -17.5q-1 1 -4 8.5q-3 7.5 -7 15.5q-4 8 -7 15q-3 7 -3 8q26 13 54.5 20.5q28.5 7.5 60.5 7.5zt0 0zM243 400q-20 10 -38 15.5q-18 5.5 -47 5.5q-30 0 -52 -15q-22 -15 -22 -43q0 -27 19.5 -43.5q19.5 -16.5 51.5 -16.5q23 0 47 12.5q24 12.5 41 29.5z" />
<glyph unicode="&#171;" horiz-adv-x="476" d="M369 40l-137 205l137 206h67l-135 -206l135 -205zM189 40l-137 205l137 206h68l-136 -206l136 -205z" />
<glyph unicode="&#172;" horiz-adv-x="609" d="M432 287h-326v66h396v-229l-70 0z" />
<glyph unicode="&#173;" horiz-adv-x="336" d="M53 274v73h232l0 -73z" />
<glyph unicode="&#174;" horiz-adv-x="526" d="M263 269q-42 0 -78 15q-36 15 -62.5 41.5q-26.5 26.5 -41.5 63q-15 36.5 -15 79.5q0 43 15 79.5q15 36.5 41.5 63.5q26.5 27 62.5 42q36 15 78 15q42 0 78 -15q36 -15 62.5 -42q26.5 -27 41.5 -63.5q15 -36.5 15 -79.5q0 -43 -15 -79.5q-15 -36.5 -41.5 -63q-26.5 -26.5 -62.5 -41.5q-36 -15 -78 -15zt0 0zM263 638q-35 0 -65 -13q-30 -13 -52 -35.5q-22 -22.5 -34.5 -54q-12.5 -31.5 -12.5 -67.5q0 -36 12.5 -66.5q12.5 -30.5 34.5 -53.5q22 -23 52 -36q30 -13 65 -13q35 0 65 13q30 13 51.5 36q21.5 23 34 53.5q12.5 30.5 12.5 66.5q0 36 -12.5 67q-12.5 31 -34 54q-21.5 23 -51.5 36q-30 13 -65 13zt0 0zM274 440h-51v-88h-36v233h94q33 0 54 -18q21 -18 21 -54q0 -47 -43 -68q4 -7 10 -19.5q6 -12.5 13 -26.5q7 -14 13 -27q6 -13 10 -20l-43 0zM223 551v-78h57q20 0 30 10.5q10 10.5 10 28.5q0 39 -40 39z" />
<glyph unicode="&#175;" horiz-adv-x="481" d="M144 605v55h242l0 -55z" />
<glyph unicode="&#176;" horiz-adv-x="432" d="M351 512q0 -31 -10.5 -57q-10.5 -26 -29 -44.5q-18.5 -18.5 -44 -29q-25.5 -10.5 -54.5 -10.5q-29 0 -54.5 10.5q-25.5 10.5 -44.5 29q-19 18.5 -30 44.5q-11 26 -11 57q0 30 11 56q11 26 30 45q19 19 44.5 29.5q25.5 10.5 54.5 10.5q29 0 54.5 -10.5q25.5 -10.5 44 -29.5q18.5 -19 29 -45q10.5 -26 10.5 -56zt0 0zM304 512q0 20 -7 37.5q-7 17.5 -19.5 30q-12.5 12.5 -29 20q-16.5 7.5 -35.5 7.5q-19 0 -36 -7.5q-17 -7.5 -29.5 -20q-12.5 -12.5 -19.5 -30q-7 -17.5 -7 -37.5q0 -20 7 -37.5q7 -17.5 19.5 -30.5q12.5 -13 29.5 -20.5q17 -7.5 36 -7.5q38 0 64.5 27t26.5 69z" />
<glyph unicode="&#177;" horiz-adv-x="609" d="M338 378v-167h-67v167h-168v64h168v176h67v-176h168v-64zM103 92v60h402l0 -60z" />
<glyph unicode="&#178;" horiz-adv-x="397" d="M351 404v-55h-309q3 43 18 75q15 32 37.5 57q22.5 25 52 44q29.5 19 61.5 36q40 22 56.5 37.5q16.5 15.5 16.5 38.5q0 26 -22 41q-22 15 -62 15q-27 0 -55 -11q-28 -11 -54 -28q-10 11 -18.5 21q-8.5 10 -18.5 21q33 26 71.5 39q38.5 13 76.5 13q69 0 107.5 -29q38.5 -29 38.5 -77q0 -42 -26 -69q-26 -27 -83 -58q-56 -29 -83 -54.5q-27 -25.5 -37 -56.5z" />
<glyph unicode="&#179;" horiz-adv-x="397" d="M356 465q0 -30 -12.5 -53q-12.5 -23 -34.5 -38.5q-22 -15.5 -52 -23.5q-30 -8 -65 -8q-45 0 -83 15.5q-38 15.5 -67 40.5l40 44q24 -23 53.5 -34q29.5 -11 56.5 -11q49 0 73.5 18q24.5 18 24.5 50q0 32 -23 47q-23 15 -57 15h-40v52h41q31 0 50.5 17q19.5 17 19.5 40q0 22 -19.5 39.5q-19.5 17.5 -65.5 17.5q-23 0 -48.5 -10q-25.5 -10 -47.5 -26l-34 41q29 24 64 36.5q35 12.5 73 12.5q66 0 104.5 -28q38.5 -28 38.5 -78q0 -25 -15 -49q-15 -24 -45 -38q38 -14 54 -39.5t16 -49.5z" />
<glyph unicode="&#180;" horiz-adv-x="483" d="M241 556l-38 13l70 161l82 -15z" />
<glyph unicode="&#181;" horiz-adv-x="493" d="M128 199q0 -78 28.5 -113q28.5 -35 86.5 -35q44 0 74 27.5q30 27.5 42 69.5q7 22 7 51v290h71v-489h-71v67h-2q-26 -41 -62 -58.5q-36 -17.5 -69 -17.5q-34 0 -59.5 11q-25.5 11 -45.5 31l-1 0v-182q-18 -8 -35.5 -16q-17.5 -8 -35.5 -16l0 670l72 0z" />
<glyph unicode="&#182;" horiz-adv-x="488" d="M218 288q-39 0 -72 14q-33 14 -57 38q-24 24 -37.5 56.5q-13.5 32.5 -13.5 70.5q0 37 13.5 69.5q13.5 32.5 37.5 57q24 24.5 57 39q33 14.5 72 14.5h93v-359zM428 -1q0 -44 -7.5 -77.5q-7.5 -33.5 -27.5 -57q-20 -23.5 -55.5 -37q-35.5 -13.5 -92.5 -16.5l-4 53q49 5 75.5 17.5q26.5 12.5 39.5 31q13 18.5 15.5 42.5q2.5 24 2.5 52v640l54 0z" />
<glyph unicode="&#183;" horiz-adv-x="233" d="M170 309q0 -23 -15 -38q-15 -15 -38 -15q-22 0 -37 15q-15 15 -15 38q0 23 15 38.5q15 15.5 37 15.5q22 0 37.5 -15.5t15.5 -38.5z" />
<glyph unicode="&#184;" horiz-adv-x="509" d="M275 -204q-16 0 -36 3.5q-20 3.5 -43 13.5l13 36q35 -13 64 -13q23 0 36.5 10q13.5 10 13.5 28q0 21 -15.5 32q-15.5 11 -37.5 11q-2 0 -4.5 -0.5q-2.5 -0.5 -4.5 -0.5l-20 21l30 91l37 -3q-6 -17 -12 -34.5q-6 -17.5 -11 -34.5q28 -3 46 -11.5q18 -8.5 28.5 -20q10.5 -11.5 14.5 -24.5q4 -13 4 -24q0 -13 -5.5 -27q-5.5 -14 -17.5 -26q-12 -12 -31.5 -19.5t-48.5 -7.5z" />
<glyph unicode="&#185;" horiz-adv-x="304" d="M127 349v309h-52v43q29 3 42 13q13 10 21 29l53 0l0 -394z" />
<glyph unicode="&#186;" horiz-adv-x="353" d="M326 426q0 -41 -11.5 -72.5q-11.5 -31.5 -32 -53.5q-20.5 -22 -48.5 -33q-28 -11 -60 -11q-31 0 -58 11.5q-27 11.5 -47 33.5q-20 22 -31.5 53.5q-11.5 31.5 -11.5 71.5q0 40 11.5 71q11.5 31 31.5 52.5q20 21.5 47 32.5q27 11 59 11q32 0 59.5 -11.5q27.5 -11.5 48 -33q20.5 -21.5 32 -52.5q11.5 -31 11.5 -70zt0 0zM264 426q0 49 -23 82q-23 33 -67 33q-44 0 -65.5 -33.5q-21.5 -33.5 -21.5 -81.5q0 -54 23.5 -86q23.5 -32 65.5 -32q43 0 65.5 35t22.5 83z" />
<glyph unicode="&#187;" horiz-adv-x="476" d="M302 40h-68l135 205l-135 206h68l137 -206zM122 40h-68l136 205l-136 206h69l136 -206z" />
<glyph unicode="&#188;" horiz-adv-x="825" d="M672 0h-60v86h-237v48l236 259h61v-254h57v-53h-57zM194 -21h-63l410 696h64zM147 258v309h-52v43q29 3 42 13q13 10 21 29l53 0v-394zM612 309q-39 -43 -78 -85q-39 -42 -77 -85l155 0z" />
<glyph unicode="&#189;" horiz-adv-x="825" d="M138 258v309h-52v43q29 3 42 13q13 10 21 29l53 0v-394zM170 -21h-63l410 696h64zM739 55v-55h-309q3 43 18 75.5q15 32.5 37.5 57.5q22.5 25 52 44q29.5 19 61.5 36q40 21 56.5 36.5q16.5 15.5 16.5 38.5q0 26 -22 41q-22 15 -62 15q-27 0 -55 -11q-28 -11 -54 -28q-10 11 -18.5 21q-8.5 10 -18.5 21q33 26 71.5 38.5q38.5 12.5 76.5 12.5q69 0 107.5 -28.5q38.5 -28.5 38.5 -76.5q0 -42 -26 -69q-26 -27 -83 -58q-56 -29 -83 -54.5q-27 -25.5 -37 -56.5z" />
<glyph unicode="&#190;" horiz-adv-x="825" d="M737 0h-60v86h-237v48l236 259h61v-254h57v-53h-57zM344 375q0 -30 -12.5 -53q-12.5 -23 -34.5 -38.5q-22 -15.5 -52 -23.5q-30 -8 -65 -8q-45 0 -83 15.5q-38 15.5 -67 40.5l40 44q24 -23 53.5 -34q29.5 -11 56.5 -11q49 0 73.5 18q24.5 18 24.5 50q0 32 -23 47q-23 15 -57 15h-40v52h41q31 0 50.5 17q19.5 17 19.5 40q0 22 -19.5 39.5q-19.5 17.5 -65.5 17.5q-23 0 -48.5 -10q-25.5 -10 -47.5 -26l-34 41q29 24 64 36.5q35 12.5 73 12.5q66 0 104.5 -28q38.5 -28 38.5 -78q0 -25 -15 -49q-15 -24 -45 -38q38 -14 54 -39.5q16 -25.5 16 -49.5zt0 0zM274 -21h-63l410 696h64zM677 309q-39 -43 -78 -85q-39 -42 -77 -85l155 0z" />
<glyph unicode="&#191;" horiz-adv-x="488" d="M34 -11q0 38 18.5 72q18.5 34 39.5 55q20 20 38.5 38q18.5 18 33 37.5q14.5 19.5 24 43q9.5 23.5 11.5 53.5l72 0q-2 -28 -8 -50.5q-6 -22.5 -16.5 -42q-10.5 -19.5 -25.5 -37.5q-15 -18 -33 -38q-11 -12 -24.5 -26.5q-13.5 -14.5 -25.5 -31q-12 -16.5 -20.5 -34q-8.5 -17.5 -8.5 -35.5q0 -15 6 -34q6 -19 21 -35.5q15 -16.5 40 -27.5q25 -11 64 -11q37 0 61.5 13.5q24.5 13.5 38.5 32q14 18.5 21 39q7 20.5 10 34.5l74 0q-5 -45 -23.5 -79.5q-18.5 -34.5 -47 -58.5q-28.5 -24 -65 -36.5q-36.5 -12.5 -76.5 -12.5q-44 0 -80.5 13.5q-36.5 13.5 -62.5 36.5q-26 23 -41 54.5q-15 31.5 -15 67.5zt0 0zM287 435q0 -25 -16 -38q-16 -13 -35 -13q-21 0 -35 14.5q-14 14.5 -14 35.5q0 21 14.5 35.5q14.5 14.5 35.5 14.5q21 0 35.5 -14t14.5 -35z" />
<glyph unicode="&#192;" horiz-adv-x="621" d="M446 222q-33 87 -66.5 172.5q-33.5 85.5 -65.5 173.5l-3 0q-14 -38 -30 -80.5q-16 -42.5 -29 -76.5q-6 -17 -16 -42q-10 -25 -20.5 -52.5q-10.5 -27.5 -20 -53q-9.5 -25.5 -15.5 -41.5zM155 154q-14 -39 -29.5 -77.5q-15.5 -38.5 -29.5 -76.5l-79 0q65 164 128 325.5q63 161.5 128 325.5l82 0q64 -164 127.5 -325.5q63.5 -161.5 128.5 -325.5l-80 0q-15 38 -30 76.5q-15 38.5 -29 77.5zM142 762l62 56l134 -94l-25 -32z" />
<glyph unicode="&#193;" horiz-adv-x="621" d="M446 222q-33 87 -66.5 172.5q-33.5 85.5 -65.5 173.5l-3 0q-14 -38 -30 -80.5q-16 -42.5 -29 -76.5q-6 -17 -16 -42q-10 -25 -20.5 -52.5q-10.5 -27.5 -20 -53q-9.5 -25.5 -15.5 -41.5zM155 154q-14 -39 -29.5 -77.5q-15.5 -38.5 -29.5 -76.5l-79 0q65 164 128 325.5q63 161.5 128 325.5l82 0q64 -164 127.5 -325.5q63.5 -161.5 128.5 -325.5l-80 0q-15 38 -30 76.5q-15 38.5 -29 77.5zM308 692l-25 32l134 94l62 -56z" />
<glyph unicode="&#194;" horiz-adv-x="621" d="M446 222q-33 87 -66.5 172.5q-33.5 85.5 -65.5 173.5l-3 0q-14 -38 -30 -80.5q-16 -42.5 -29 -76.5q-6 -17 -16 -42q-10 -25 -20.5 -52.5q-10.5 -27.5 -20 -53q-9.5 -25.5 -15.5 -41.5zM155 154q-14 -39 -29.5 -77.5q-15.5 -38.5 -29.5 -76.5l-79 0q65 164 128 325.5q63 161.5 128 325.5l82 0q64 -164 127.5 -325.5q63.5 -161.5 128.5 -325.5l-80 0q-15 38 -30 76.5q-15 38.5 -29 77.5zM313 765l-128 -76l-29 23l125 111h68l124 -112l-28 -23z" />
<glyph unicode="&#195;" horiz-adv-x="621" d="M446 222q-33 87 -66.5 172.5q-33.5 85.5 -65.5 173.5l-3 0q-14 -38 -30 -80.5q-16 -42.5 -29 -76.5q-6 -17 -16 -42q-10 -25 -20.5 -52.5q-10.5 -27.5 -20 -53q-9.5 -25.5 -15.5 -41.5zM155 154q-14 -39 -29.5 -77.5q-15.5 -38.5 -29.5 -76.5l-79 0q65 164 128 325.5q63 161.5 128 325.5l82 0q64 -164 127.5 -325.5q63.5 -161.5 128.5 -325.5l-80 0q-15 38 -30 76.5q-15 38.5 -29 77.5zM478 783q-17 -41 -42.5 -58q-25.5 -17 -54.5 -17q-17 0 -34.5 6q-17.5 6 -34.5 13.5q-17 7.5 -33 14q-16 6.5 -31 6.5q-17 0 -32.5 -8q-15.5 -8 -32.5 -31l-33 16q18 46 45.5 63q27.5 17 53.5 17q17 0 34 -6.5q17 -6.5 34.5 -14.5q17.5 -8 34 -14.5q16.5 -6.5 31.5 -6.5q18 0 32 7.5q14 7.5 30 29.5z" />
<glyph unicode="&#196;" horiz-adv-x="621" d="M446 222q-33 87 -66.5 172.5q-33.5 85.5 -65.5 173.5l-3 0q-14 -38 -30 -80.5q-16 -42.5 -29 -76.5q-6 -17 -16 -42q-10 -25 -20.5 -52.5q-10.5 -27.5 -20 -53q-9.5 -25.5 -15.5 -41.5zM155 154q-14 -39 -29.5 -77.5q-15.5 -38.5 -29.5 -76.5l-79 0q65 164 128 325.5q63 161.5 128 325.5l82 0q64 -164 127.5 -325.5q63.5 -161.5 128.5 -325.5l-80 0q-15 38 -30 76.5q-15 38.5 -29 77.5zM453 756q0 -18 -13 -31q-13 -13 -30 -13q-18 0 -31.5 13q-13.5 13 -13.5 31q0 19 13 31.5q13 12.5 32 12.5q17 0 30 -12.5q13 -12.5 13 -31.5zt0 0zM261 756q0 -18 -13.5 -31q-13.5 -13 -30.5 -13q-18 0 -31.5 13q-13.5 13 -13.5 31q0 19 13.5 31.5q13.5 12.5 31.5 12.5q17 0 30.5 -12.5t13.5 -31.5z" />
<glyph unicode="&#197;" horiz-adv-x="621" d="M446 222q-33 87 -66.5 172.5q-33.5 85.5 -65.5 173.5l-3 0q-14 -38 -30 -80.5q-16 -42.5 -29 -76.5q-6 -17 -16 -42q-10 -25 -20.5 -52.5q-10.5 -27.5 -20 -53q-9.5 -25.5 -15.5 -41.5zM155 154q-14 -39 -29.5 -77.5q-15.5 -38.5 -29.5 -76.5l-79 0q65 164 128 325.5q63 161.5 128 325.5l82 0q64 -164 127.5 -325.5q63.5 -161.5 128.5 -325.5l-80 0q-15 38 -30 76.5q-15 38.5 -29 77.5zM404 762q0 -39 -26 -64.5q-26 -25.5 -64 -25.5q-38 0 -63.5 25q-25.5 25 -25.5 65q0 38 25.5 63q25.5 25 63.5 25q38 0 64 -25q26 -25 26 -63zt0 0zM364 762q0 21 -14.5 35q-14.5 14 -35.5 14q-21 0 -35.5 -14.5q-14.5 -14.5 -14.5 -34.5q0 -22 14.5 -37q14.5 -15 35.5 -15q21 0 35.5 15t14.5 37z" />
<glyph unicode="&#198;" horiz-adv-x="895" d="M448 182h-241l-112 -182h-82l397 651h453v-69h-340v-200h242v-69h-242v-244h353v-69h-428zM246 251h202l0 330z" />
<glyph unicode="&#199;" horiz-adv-x="556" d="M304 -204q-16 0 -36 3.5q-20 3.5 -43 13.5l13 36q35 -13 64 -13q23 0 36.5 10q13.5 10 13.5 28q0 21 -15.5 32q-15.5 11 -37.5 11q-2 0 -4.5 -0.5q-2.5 -0.5 -4.5 -0.5l-20 21l18 55q-54 5 -99 30.5q-45 25.5 -76.5 68q-31.5 42.5 -49 102q-17.5 59.5 -17.5 133.5q0 78 20 140q20 62 56.5 105.5q36.5 43.5 87 67q50.5 23.5 110.5 23.5q66 0 116.5 -22q50.5 -22 88.5 -67l-53 -53q-33 37 -70 54q-37 17 -83 17q-47 0 -83 -19.5q-36 -19.5 -61 -55q-25 -35.5 -38 -84q-13 -48.5 -13 -105.5q0 -56 12.5 -105q12.5 -49 37 -85q24.5 -36 61.5 -56.5q37 -20.5 86 -20.5q88 0 154 75l53 -49q-37 -45 -85.5 -69.5q-48.5 -24.5 -117.5 -26.5q-3 -8 -6 -16.5q-3 -8.5 -5 -17.5q28 -3 46 -11.5q18 -8.5 28.5 -20q10.5 -11.5 14.5 -24.5q4 -13 4 -24q0 -13 -5.5 -27q-5.5 -14 -17.5 -26q-12 -12 -31.5 -19.5t-48.5 -7.5z" />
<glyph unicode="&#200;" horiz-adv-x="510" d="M66 0v651h415v-69h-340v-200h242v-69h-242v-244h353v-69zM151 762l62 56l134 -94l-25 -32z" />
<glyph unicode="&#201;" horiz-adv-x="510" d="M66 0v651h415v-69h-340v-200h242v-69h-242v-244h353v-69zM250 692l-25 32l134 94l62 -56z" />
<glyph unicode="&#202;" horiz-adv-x="510" d="M66 0v651h415v-69h-340v-200h242v-69h-242v-244h353v-69zM278 765l-128 -76l-29 23l125 111h68l124 -112l-28 -23z" />
<glyph unicode="&#203;" horiz-adv-x="510" d="M66 0v651h415v-69h-340v-200h242v-69h-242v-244h353v-69zM418 752q0 -18 -13 -31q-13 -13 -30 -13q-18 0 -31.5 13q-13.5 13 -13.5 31q0 19 13 31.5q13 12.5 32 12.5q17 0 30 -12.5q13 -12.5 13 -31.5zt0 0zM226 752q0 -18 -13.5 -31q-13.5 -13 -30.5 -13q-18 0 -31.5 13q-13.5 13 -13.5 31q0 19 13.5 31.5q13.5 12.5 31.5 12.5q17 0 30.5 -12.5t13.5 -31.5z" />
<glyph unicode="&#204;" horiz-adv-x="243" d="M83 0v651h77v-651zM-38 762l62 56l134 -94l-25 -32z" />
<glyph unicode="&#205;" horiz-adv-x="243" d="M83 0v651h77v-651zM121 692l-25 32l134 94l62 -56z" />
<glyph unicode="&#206;" horiz-adv-x="243" d="M83 0v651h77v-651zM121 765l-128 -76l-29 23l125 111h68l124 -112l-28 -23z" />
<glyph unicode="&#207;" horiz-adv-x="243" d="M83 0v651h77v-651zM265 752q0 -18 -13 -31q-13 -13 -30 -13q-18 0 -31.5 13q-13.5 13 -13.5 31q0 19 13 31.5q13 12.5 32 12.5q17 0 30 -12.5q13 -12.5 13 -31.5zt0 0zM73 752q0 -18 -13.5 -31q-13.5 -13 -30.5 -13q-18 0 -31.5 13q-13.5 13 -13.5 31q0 19 13.5 31.5q13.5 12.5 31.5 12.5q17 0 30.5 -12.5t13.5 -31.5z" />
<glyph unicode="&#208;" horiz-adv-x="612" d="M238 651q66 0 124.5 -18q58.5 -18 103 -57q44.5 -39 70 -100.5q25.5 -61.5 25.5 -149.5q0 -88 -26 -150q-26 -62 -71 -101q-45 -39 -104 -57q-59 -18 -125 -18h-162v303h-66v48h66v300zM148 582v-231h130v-48h-130v-234h89q63 0 109 18.5q46 18.5 76.5 52q30.5 33.5 45.5 81q15 47.5 15 104.5q0 57 -15 104.5q-15 47.5 -45.5 81q-30.5 33.5 -76.5 52.5q-46 19 -108 19z" />
<glyph unicode="&#209;" horiz-adv-x="610" d="M478 0q-24 36 -57.5 87.5q-33.5 51.5 -72 110q-38.5 58.5 -78 119q-39.5 60.5 -74.5 114.5q-17 26 -32.5 51q-15.5 25 -22.5 37l-2 0v-519h-75v651h74q58 -89 115.5 -176q57.5 -87 115.5 -175q12 -18 25.5 -39q13.5 -21 27 -43q13.5 -22 26 -42.5q12.5 -20.5 23.5 -36.5l2 0v512h75v-651zM474 782q-17 -41 -42.5 -58q-25.5 -17 -54.5 -17q-17 0 -34.5 6q-17.5 6 -34.5 13.5q-17 7.5 -33 14q-16 6.5 -31 6.5q-17 0 -32.5 -8q-15.5 -8 -32.5 -31l-33 16q18 46 45.5 63q27.5 17 53.5 17q17 0 34 -6.5q17 -6.5 34.5 -14.5q17.5 -8 34 -14.5q16.5 -6.5 31.5 -6.5q18 0 32 7.5q14 7.5 30 29.5z" />
<glyph unicode="&#210;" horiz-adv-x="635" d="M589 326q0 -76 -19.5 -138q-19.5 -62 -55 -106q-35.5 -44 -85.5 -68q-50 -24 -112 -24q-65 0 -115 25q-50 25 -85 69.5q-35 44.5 -53 106q-18 61.5 -18 134.5q0 72 18.5 133.5q18.5 61.5 53 106.5q34.5 45 85 70.5q50.5 25.5 114.5 25.5q62 0 112 -24q50 -24 85.5 -68.5q35.5 -44.5 55 -106q19.5 -61.5 19.5 -136.5zt0 0zM511 325q0 57 -12 106q-12 49 -36.5 85q-24.5 36 -61 56q-36.5 20 -84.5 20q-48 0 -84.5 -20q-36.5 -20 -60.5 -55.5q-24 -35.5 -36.5 -84q-12.5 -48.5 -12.5 -106.5q0 -55 12 -103.5q12 -48.5 36.5 -85q24.5 -36.5 61 -57.5q36.5 -21 84.5 -21q49 0 85.5 21.5q36.5 21.5 60.5 57.5q24 36 36 84.5q12 48.5 12 102.5zt0 0zM175 762l62 56l134 -94l-25 -32z" />
<glyph unicode="&#211;" horiz-adv-x="635" d="M589 326q0 -76 -19.5 -138q-19.5 -62 -55 -106q-35.5 -44 -85.5 -68q-50 -24 -112 -24q-65 0 -115 25q-50 25 -85 69.5q-35 44.5 -53 106q-18 61.5 -18 134.5q0 72 18.5 133.5q18.5 61.5 53 106.5q34.5 45 85 70.5q50.5 25.5 114.5 25.5q62 0 112 -24q50 -24 85.5 -68.5q35.5 -44.5 55 -106q19.5 -61.5 19.5 -136.5zt0 0zM511 325q0 57 -12 106q-12 49 -36.5 85q-24.5 36 -61 56q-36.5 20 -84.5 20q-48 0 -84.5 -20q-36.5 -20 -60.5 -55.5q-24 -35.5 -36.5 -84q-12.5 -48.5 -12.5 -106.5q0 -55 12 -103.5q12 -48.5 36.5 -85q24.5 -36.5 61 -57.5q36.5 -21 84.5 -21q49 0 85.5 21.5q36.5 21.5 60.5 57.5q24 36 36 84.5q12 48.5 12 102.5zt0 0zM285 692l-25 32l134 94l62 -56z" />
<glyph unicode="&#212;" horiz-adv-x="635" d="M589 326q0 -76 -19.5 -138q-19.5 -62 -55 -106q-35.5 -44 -85.5 -68q-50 -24 -112 -24q-65 0 -115 25q-50 25 -85 69.5q-35 44.5 -53 106q-18 61.5 -18 134.5q0 72 18.5 133.5q18.5 61.5 53 106.5q34.5 45 85 70.5q50.5 25.5 114.5 25.5q62 0 112 -24q50 -24 85.5 -68.5q35.5 -44.5 55 -106q19.5 -61.5 19.5 -136.5zt0 0zM511 325q0 57 -12 106q-12 49 -36.5 85q-24.5 36 -61 56q-36.5 20 -84.5 20q-48 0 -84.5 -20q-36.5 -20 -60.5 -55.5q-24 -35.5 -36.5 -84q-12.5 -48.5 -12.5 -106.5q0 -55 12 -103.5q12 -48.5 36.5 -85q24.5 -36.5 61 -57.5q36.5 -21 84.5 -21q49 0 85.5 21.5q36.5 21.5 60.5 57.5q24 36 36 84.5q12 48.5 12 102.5zt0 0zM320 765l-128 -76l-29 23l125 111h68l124 -112l-28 -23z" />
<glyph unicode="&#213;" horiz-adv-x="635" d="M589 326q0 -76 -19.5 -138q-19.5 -62 -55 -106q-35.5 -44 -85.5 -68q-50 -24 -112 -24q-65 0 -115 25q-50 25 -85 69.5q-35 44.5 -53 106q-18 61.5 -18 134.5q0 72 18.5 133.5q18.5 61.5 53 106.5q34.5 45 85 70.5q50.5 25.5 114.5 25.5q62 0 112 -24q50 -24 85.5 -68.5q35.5 -44.5 55 -106q19.5 -61.5 19.5 -136.5zt0 0zM511 325q0 57 -12 106q-12 49 -36.5 85q-24.5 36 -61 56q-36.5 20 -84.5 20q-48 0 -84.5 -20q-36.5 -20 -60.5 -55.5q-24 -35.5 -36.5 -84q-12.5 -48.5 -12.5 -106.5q0 -55 12 -103.5q12 -48.5 36.5 -85q24.5 -36.5 61 -57.5q36.5 -21 84.5 -21q49 0 85.5 21.5q36.5 21.5 60.5 57.5q24 36 36 84.5q12 48.5 12 102.5zt0 0zM484 785q-17 -41 -42.5 -58q-25.5 -17 -54.5 -17q-17 0 -34.5 6q-17.5 6 -34.5 13.5q-17 7.5 -33 14q-16 6.5 -31 6.5q-17 0 -32.5 -8q-15.5 -8 -32.5 -31l-33 16q18 46 45.5 63q27.5 17 53.5 17q17 0 34 -6.5q17 -6.5 34.5 -14.5q17.5 -8 34 -14.5q16.5 -6.5 31.5 -6.5q18 0 32 7.5q14 7.5 30 29.5z" />
<glyph unicode="&#214;" horiz-adv-x="635" d="M589 326q0 -76 -19.5 -138q-19.5 -62 -55 -106q-35.5 -44 -85.5 -68q-50 -24 -112 -24q-65 0 -115 25q-50 25 -85 69.5q-35 44.5 -53 106q-18 61.5 -18 134.5q0 72 18.5 133.5q18.5 61.5 53 106.5q34.5 45 85 70.5q50.5 25.5 114.5 25.5q62 0 112 -24q50 -24 85.5 -68.5q35.5 -44.5 55 -106q19.5 -61.5 19.5 -136.5zt0 0zM511 325q0 57 -12 106q-12 49 -36.5 85q-24.5 36 -61 56q-36.5 20 -84.5 20q-48 0 -84.5 -20q-36.5 -20 -60.5 -55.5q-24 -35.5 -36.5 -84q-12.5 -48.5 -12.5 -106.5q0 -55 12 -103.5q12 -48.5 36.5 -85q24.5 -36.5 61 -57.5q36.5 -21 84.5 -21q49 0 85.5 21.5q36.5 21.5 60.5 57.5q24 36 36 84.5q12 48.5 12 102.5zt0 0zM458 752q0 -18 -13 -31q-13 -13 -30 -13q-18 0 -31.5 13q-13.5 13 -13.5 31q0 19 13 31.5q13 12.5 32 12.5q17 0 30 -12.5q13 -12.5 13 -31.5zt0 0zM266 752q0 -18 -13.5 -31q-13.5 -13 -30.5 -13q-18 0 -31.5 13q-13.5 13 -13.5 31q0 19 13.5 31.5q13.5 12.5 31.5 12.5q17 0 30.5 -12.5t13.5 -31.5z" />
<glyph unicode="&#215;" horiz-adv-x="609" d="M350 317l140 -140l-45 -47l-140 139l-142 -142l-46 46l142 141l-142 143q11 11 23.5 23q12.5 12 23.5 23l142 -141l143 142l45 -44z" />
<glyph unicode="&#216;" horiz-adv-x="635" d="M589 326q0 -76 -19.5 -138q-19.5 -62 -55 -106q-35.5 -44 -85.5 -68q-50 -24 -112 -24q-56 0 -100 18q-44 18 -78 52l-58 -75l-34 27l63 82q-32 45 -48 103.5q-16 58.5 -16 127.5q0 72 18.5 133.5q18.5 61.5 53 106.5q34.5 45 85 70.5q50.5 25.5 114.5 25.5q54 0 98 -18q44 -18 78 -52l62 80l35 -29l-66 -86q31 -44 48 -102q17 -58 17 -128zt0 0zM123 326q0 -48 9 -90.5q9 -42.5 27 -77.5l290 375q-24 28 -57 43.5q-33 15.5 -75 15.5q-48 0 -84.5 -20q-36.5 -20 -60.5 -55.5q-24 -35.5 -36.5 -84q-12.5 -48.5 -12.5 -106.5zt0 0zM511 325q0 100 -36 169l-290 -375q24 -29 57 -44.5q33 -15.5 75 -15.5q49 0 85.5 21.5q36.5 21.5 60.5 57.5q24 36 36 84.5t12 102.5z" />
<glyph unicode="&#217;" horiz-adv-x="616" d="M556 270q0 -142 -65 -211q-65 -69 -183 -69q-116 0 -179 70.5q-63 70.5 -63 210.5v380h75v-377q0 -98 42 -155.5q42 -57.5 127 -57.5q88 0 129 55.5q41 55.5 41 151.5v383h76zM172 762l62 56l134 -94l-25 -32z" />
<glyph unicode="&#218;" horiz-adv-x="616" d="M556 270q0 -142 -65 -211q-65 -69 -183 -69q-116 0 -179 70.5q-63 70.5 -63 210.5v380h75v-377q0 -98 42 -155.5q42 -57.5 127 -57.5q88 0 129 55.5q41 55.5 41 151.5v383h76zM282 692l-25 32l134 94l62 -56z" />
<glyph unicode="&#219;" horiz-adv-x="616" d="M556 270q0 -142 -65 -211q-65 -69 -183 -69q-116 0 -179 70.5q-63 70.5 -63 210.5v380h75v-377q0 -98 42 -155.5q42 -57.5 127 -57.5q88 0 129 55.5q41 55.5 41 151.5v383h76zM311 765l-128 -76l-29 23l125 111h68l124 -112l-28 -23z" />
<glyph unicode="&#220;" horiz-adv-x="616" d="M556 270q0 -142 -65 -211q-65 -69 -183 -69q-116 0 -179 70.5q-63 70.5 -63 210.5v380h75v-377q0 -98 42 -155.5q42 -57.5 127 -57.5q88 0 129 55.5q41 55.5 41 151.5v383h76zM456 754q0 -18 -13 -31q-13 -13 -30 -13q-18 0 -31.5 13q-13.5 13 -13.5 31q0 19 13 31.5q13 12.5 32 12.5q17 0 30 -12.5q13 -12.5 13 -31.5zt0 0zM264 754q0 -18 -13.5 -31q-13.5 -13 -30.5 -13q-18 0 -31.5 13q-13.5 13 -13.5 31q0 19 13.5 31.5q13.5 12.5 31.5 12.5q17 0 30.5 -12.5t13.5 -31.5z" />
<glyph unicode="&#221;" horiz-adv-x="560" d="M317 231v-231h-75v231l-234 420h86l186 -351l187 351h84zM267 692l-25 32l134 94l62 -56z" />
<glyph unicode="&#222;" horiz-adv-x="557" d="M539 330q0 -51 -15.5 -88.5q-15.5 -37.5 -44 -62.5q-28.5 -25 -68 -37.5q-39.5 -12.5 -87.5 -12.5h-184v-129h-75v651h75v-123h191q46 0 84 -12q38 -12 65.5 -37q27.5 -25 43 -62q15.5 -37 15.5 -87zt0 0zM140 460v-262h188q64 0 99 33.5q35 33.5 35 96.5q0 64 -36.5 98q-36.5 34 -96.5 34z" />
<glyph unicode="&#223;" horiz-adv-x="502" d="M255 410q16 1 33 9q17 8 30.5 22.5q13.5 14.5 22.5 34q9 19.5 9 43.5q0 19 -7 38.5q-7 19.5 -20.5 35.5q-13.5 16 -33 25.5q-19.5 9.5 -45.5 9.5q-26 0 -46 -10.5q-20 -10.5 -33.5 -28q-13.5 -17.5 -20.5 -41q-7 -23.5 -7 -48.5v-500q-18 -8 -35.5 -15.5q-17.5 -7.5 -34.5 -15.5l0 528q0 42 12.5 77q12.5 35 35.5 60.5q23 25.5 56 40q33 14.5 74 14.5q40 0 71.5 -14q31.5 -14 54 -37.5q22.5 -23.5 34.5 -53.5q12 -30 12 -62q0 -40 -22 -77q-22 -37 -66 -57l0 -4q27 -6 51 -22q24 -16 42 -40.5q18 -24.5 28.5 -55.5q10.5 -31 10.5 -67q0 -43 -12.5 -81q-12.5 -38 -36.5 -66.5q-24 -28.5 -58.5 -45.5q-34.5 -17 -77.5 -17q-11 0 -27 2q-16 2 -27 6q4 14 7 28q3 14 6 28q19 -3 36 -3q29 0 51 13q22 13 37 34q15 21 23 46.5q8 25.5 8 51.5q0 36 -11 64.5q-11 28.5 -29.5 49q-18.5 20.5 -43 32q-24.5 11.5 -51.5 13.5z" />
<glyph unicode="&#224;" horiz-adv-x="477" d="M245 497q85 0 130.5 -39.5q45.5 -39.5 45.5 -118.5v-339h-70v48h-2q-39 -35 -77.5 -46q-38.5 -11 -73.5 -11q-29 0 -58 8.5q-29 8.5 -52.5 27q-23.5 18.5 -38 47.5q-14.5 29 -14.5 71q0 36 13.5 65q13.5 29 38 49.5q24.5 20.5 58 31.5q33.5 11 73.5 11q32 0 64.5 -6.5q32.5 -6.5 68.5 -26.5l0 60q0 56 -28.5 81.5q-28.5 25.5 -85.5 25.5q-36 0 -67 -9q-31 -9 -62 -24l-24 56q35 17 74 27.5q39 10.5 87 10.5zt0 0zM351 209q-30 17 -60 27q-30 10 -72 10q-48 0 -81 -25.5q-33 -25.5 -33 -73.5q0 -48 28 -73q28 -25 81 -25q39 2 74.5 21q35.5 19 62.5 46zM140 713l83 15l72 -159l-38 -13z" />
<glyph unicode="&#225;" horiz-adv-x="477" d="M245 497q85 0 130.5 -39.5q45.5 -39.5 45.5 -118.5v-339h-70v48h-2q-39 -35 -77.5 -46q-38.5 -11 -73.5 -11q-29 0 -58 8.5q-29 8.5 -52.5 27q-23.5 18.5 -38 47.5q-14.5 29 -14.5 71q0 36 13.5 65q13.5 29 38 49.5q24.5 20.5 58 31.5q33.5 11 73.5 11q32 0 64.5 -6.5q32.5 -6.5 68.5 -26.5l0 60q0 56 -28.5 81.5q-28.5 25.5 -85.5 25.5q-36 0 -67 -9q-31 -9 -62 -24l-24 56q35 17 74 27.5q39 10.5 87 10.5zt0 0zM351 209q-30 17 -60 27q-30 10 -72 10q-48 0 -81 -25.5q-33 -25.5 -33 -73.5q0 -48 28 -73q28 -25 81 -25q39 2 74.5 21q35.5 19 62.5 46zM264 556l-38 13l70 161l82 -15z" />
<glyph unicode="&#226;" horiz-adv-x="477" d="M245 497q85 0 130.5 -39.5q45.5 -39.5 45.5 -118.5v-339h-70v48h-2q-39 -35 -77.5 -46q-38.5 -11 -73.5 -11q-29 0 -58 8.5q-29 8.5 -52.5 27q-23.5 18.5 -38 47.5q-14.5 29 -14.5 71q0 36 13.5 65q13.5 29 38 49.5q24.5 20.5 58 31.5q33.5 11 73.5 11q32 0 64.5 -6.5q32.5 -6.5 68.5 -26.5l0 60q0 56 -28.5 81.5q-28.5 25.5 -85.5 25.5q-36 0 -67 -9q-31 -9 -62 -24l-24 56q35 17 74 27.5q39 10.5 87 10.5zt0 0zM351 209q-30 17 -60 27q-30 10 -72 10q-48 0 -81 -25.5q-33 -25.5 -33 -73.5q0 -48 28 -73q28 -25 81 -25q39 2 74.5 21q35.5 19 62.5 46zM250 649l-129 -90l-28 23l125 125h68l124 -126l-28 -23z" />
<glyph unicode="&#227;" horiz-adv-x="477" d="M245 497q85 0 130.5 -39.5q45.5 -39.5 45.5 -118.5v-339h-70v48h-2q-39 -35 -77.5 -46q-38.5 -11 -73.5 -11q-29 0 -58 8.5q-29 8.5 -52.5 27q-23.5 18.5 -38 47.5q-14.5 29 -14.5 71q0 36 13.5 65q13.5 29 38 49.5q24.5 20.5 58 31.5q33.5 11 73.5 11q32 0 64.5 -6.5q32.5 -6.5 68.5 -26.5l0 60q0 56 -28.5 81.5q-28.5 25.5 -85.5 25.5q-36 0 -67 -9q-31 -9 -62 -24l-24 56q35 17 74 27.5q39 10.5 87 10.5zt0 0zM351 209q-30 17 -60 27q-30 10 -72 10q-48 0 -81 -25.5q-33 -25.5 -33 -73.5q0 -48 28 -73q28 -25 81 -25q39 2 74.5 21q35.5 19 62.5 46zM424 652q-17 -41 -42.5 -58q-25.5 -17 -54.5 -17q-17 0 -34.5 6q-17.5 6 -34.5 13.5q-17 7.5 -33 14q-16 6.5 -31 6.5q-17 0 -32.5 -8q-15.5 -8 -32.5 -31l-33 16q18 46 45.5 63q27.5 17 53.5 17q17 0 34 -6.5q17 -6.5 34.5 -14.5q17.5 -8 34 -14.5q16.5 -6.5 31.5 -6.5q18 0 32 7.5q14 7.5 30 29.5z" />
<glyph unicode="&#228;" horiz-adv-x="477" d="M245 497q85 0 130.5 -39.5q45.5 -39.5 45.5 -118.5v-339h-70v48h-2q-39 -35 -77.5 -46q-38.5 -11 -73.5 -11q-29 0 -58 8.5q-29 8.5 -52.5 27q-23.5 18.5 -38 47.5q-14.5 29 -14.5 71q0 36 13.5 65q13.5 29 38 49.5q24.5 20.5 58 31.5q33.5 11 73.5 11q32 0 64.5 -6.5q32.5 -6.5 68.5 -26.5l0 60q0 56 -28.5 81.5q-28.5 25.5 -85.5 25.5q-36 0 -67 -9q-31 -9 -62 -24l-24 56q35 17 74 27.5q39 10.5 87 10.5zt0 0zM351 209q-30 17 -60 27q-30 10 -72 10q-48 0 -81 -25.5q-33 -25.5 -33 -73.5q0 -48 28 -73q28 -25 81 -25q39 2 74.5 21q35.5 19 62.5 46zM393 627q0 -18 -13 -31q-13 -13 -30 -13q-18 0 -31.5 13q-13.5 13 -13.5 31q0 19 13 31.5q13 12.5 32 12.5q17 0 30 -12.5q13 -12.5 13 -31.5zt0 0zM201 627q0 -18 -13.5 -31q-13.5 -13 -30.5 -13q-18 0 -31.5 13q-13.5 13 -13.5 31q0 19 13.5 31.5q13.5 12.5 31.5 12.5q17 0 30.5 -12.5t13.5 -31.5z" />
<glyph unicode="&#229;" horiz-adv-x="477" d="M245 497q85 0 130.5 -39.5q45.5 -39.5 45.5 -118.5v-339h-70v48h-2q-39 -35 -77.5 -46q-38.5 -11 -73.5 -11q-29 0 -58 8.5q-29 8.5 -52.5 27q-23.5 18.5 -38 47.5q-14.5 29 -14.5 71q0 36 13.5 65q13.5 29 38 49.5q24.5 20.5 58 31.5q33.5 11 73.5 11q32 0 64.5 -6.5q32.5 -6.5 68.5 -26.5l0 60q0 56 -28.5 81.5q-28.5 25.5 -85.5 25.5q-36 0 -67 -9q-31 -9 -62 -24l-24 56q35 17 74 27.5q39 10.5 87 10.5zt0 0zM351 209q-30 17 -60 27q-30 10 -72 10q-48 0 -81 -25.5q-33 -25.5 -33 -73.5q0 -48 28 -73q28 -25 81 -25q39 2 74.5 21q35.5 19 62.5 46zM346 635q0 -39 -26 -64.5q-26 -25.5 -64 -25.5q-38 0 -63.5 25q-25.5 25 -25.5 65q0 38 25.5 63q25.5 25 63.5 25q38 0 64 -25q26 -25 26 -63zt0 0zM306 635q0 21 -14.5 35q-14.5 14 -35.5 14q-21 0 -35.5 -14.5q-14.5 -14.5 -14.5 -34.5q0 -22 14.5 -37q14.5 -15 35.5 -15q21 0 35.5 15t14.5 37z" />
<glyph unicode="&#230;" horiz-adv-x="805" d="M565 496q48 0 86 -18q38 -18 63.5 -50.5q25.5 -32.5 39 -77q13.5 -44.5 13.5 -97.5v-36h-337q4 -85 44.5 -125q40.5 -40 95.5 -40q32 0 62.5 13q30.5 13 52.5 34l43 -45q-39 -35 -77 -49.5q-38 -14.5 -87 -14.5q-49 0 -90.5 22q-41.5 22 -70.5 67q-35 -30 -62.5 -47.5q-27.5 -17.5 -50.5 -26.5q-23 -9 -43.5 -11.5q-20.5 -2.5 -40.5 -2.5q-29 0 -58 8.5q-29 8.5 -52.5 27q-23.5 18.5 -38 48q-14.5 29.5 -14.5 71.5q0 35 13.5 64q13.5 29 38 49.5q24.5 20.5 58 31.5q33.5 11 73.5 11q34 0 66 -8q32 -8 68 -25q0 11 0.5 25q0.5 14 1.5 30q2 53 -29 83q-31 30 -88 30q-36 0 -65.5 -8.5q-29.5 -8.5 -60.5 -24.5l-25 57q35 17 73 27q38 10 86 10q61 0 100.5 -24q39.5 -24 56.5 -66q26 42 66.5 65q40.5 23 88.5 23zt0 0zM377 130q-6 17 -10.5 38.5q-4.5 21.5 -5.5 44.5q-29 14 -61.5 24q-32.5 10 -71.5 10q-24 0 -46 -6.5q-22 -6.5 -38 -19.5q-16 -13 -25.5 -31q-9.5 -18 -9.5 -42q0 -48 30 -75q30 -27 83 -27q41 0 83 23.5q42 23.5 72 60.5zt0 0zM696 273q0 33 -7.5 62q-7.5 29 -24 51q-16.5 22 -42 35q-25.5 13 -60.5 13q-26 0 -49 -11q-23 -11 -41 -32q-18 -21 -29 -51q-11 -30 -13 -67z" />
<glyph unicode="&#231;" horiz-adv-x="438" d="M237 -204q-16 0 -36 3.5q-20 3.5 -43 13.5l13 36q35 -13 64 -13q23 0 36.5 10q13.5 10 13.5 28q0 21 -15.5 32q-15.5 11 -37.5 11q-2 0 -4.5 -0.5q-2.5 -0.5 -4.5 -0.5l-20 21l18 55q-38 5 -70 23q-32 18 -55 49q-23 31 -36.5 76q-13.5 45 -13.5 104q0 61 15.5 108q15.5 47 43.5 79.5q28 32.5 65 49q37 16.5 81 16.5q98 0 160 -69l-47 -47q-27 29 -55 41q-28 12 -60 12q-31 0 -55.5 -14.5q-24.5 -14.5 -41.5 -40q-17 -25.5 -26 -60q-9 -34.5 -9 -75.5q0 -41 8.5 -75.5q8.5 -34.5 26 -60q17.5 -25.5 42.5 -40q25 -14.5 58 -14.5q33 0 59.5 12.5q26.5 12.5 53.5 40.5l47 -43q-29 -32 -65 -52q-36 -20 -89 -22q-3 -8 -6 -16.5q-3 -8.5 -5 -17.5q28 -3 46 -11.5q18 -8.5 28.5 -20q10.5 -11.5 14.5 -24.5q4 -13 4 -24q0 -13 -5.5 -27q-5.5 -14 -17.5 -26q-12 -12 -31.5 -19.5t-48.5 -7.5z" />
<glyph unicode="&#232;" horiz-adv-x="489" d="M251 497q49 0 86.5 -17.5q37.5 -17.5 63 -50q25.5 -32.5 39 -78q13.5 -45.5 13.5 -101.5v-33h-337q5 -81 45 -123q40 -42 97 -42q32 0 62 13q30 13 53 34l42 -45q-67 -64 -164 -64q-41 0 -78.5 16q-37.5 16 -66 48q-28.5 32 -45 79.5q-16.5 47.5 -16.5 109.5q0 59 16 106q16 47 43.5 80q27.5 33 65 50.5q37.5 17.5 81.5 17.5zt0 0zM383 274q0 33 -8 62.5q-8 29.5 -24.5 51q-16.5 21.5 -41.5 34.5q-25 13 -60 13q-26 0 -49 -11.5q-23 -11.5 -41 -33q-18 -21.5 -29.5 -51q-11.5 -29.5 -13.5 -65.5zM139 713l83 15l72 -159l-38 -13z" />
<glyph unicode="&#233;" horiz-adv-x="489" d="M251 497q49 0 86.5 -17.5q37.5 -17.5 63 -50q25.5 -32.5 39 -78q13.5 -45.5 13.5 -101.5v-33h-337q5 -81 45 -123q40 -42 97 -42q32 0 62 13q30 13 53 34l42 -45q-67 -64 -164 -64q-41 0 -78.5 16q-37.5 16 -66 48q-28.5 32 -45 79.5q-16.5 47.5 -16.5 109.5q0 59 16 106q16 47 43.5 80q27.5 33 65 50.5q37.5 17.5 81.5 17.5zt0 0zM383 274q0 33 -8 62.5q-8 29.5 -24.5 51q-16.5 21.5 -41.5 34.5q-25 13 -60 13q-26 0 -49 -11.5q-23 -11.5 -41 -33q-18 -21.5 -29.5 -51q-11.5 -29.5 -13.5 -65.5zM259 556l-38 13l70 161l82 -15z" />
<glyph unicode="&#234;" horiz-adv-x="489" d="M251 497q49 0 86.5 -17.5q37.5 -17.5 63 -50q25.5 -32.5 39 -78q13.5 -45.5 13.5 -101.5v-33h-337q5 -81 45 -123q40 -42 97 -42q32 0 62 13q30 13 53 34l42 -45q-67 -64 -164 -64q-41 0 -78.5 16q-37.5 16 -66 48q-28.5 32 -45 79.5q-16.5 47.5 -16.5 109.5q0 59 16 106q16 47 43.5 80q27.5 33 65 50.5q37.5 17.5 81.5 17.5zt0 0zM383 274q0 33 -8 62.5q-8 29.5 -24.5 51q-16.5 21.5 -41.5 34.5q-25 13 -60 13q-26 0 -49 -11.5q-23 -11.5 -41 -33q-18 -21.5 -29.5 -51q-11.5 -29.5 -13.5 -65.5zM255 649l-129 -90l-28 23l125 125h68l124 -126l-28 -23z" />
<glyph unicode="&#235;" horiz-adv-x="489" d="M251 497q49 0 86.5 -17.5q37.5 -17.5 63 -50q25.5 -32.5 39 -78q13.5 -45.5 13.5 -101.5v-33h-337q5 -81 45 -123q40 -42 97 -42q32 0 62 13q30 13 53 34l42 -45q-67 -64 -164 -64q-41 0 -78.5 16q-37.5 16 -66 48q-28.5 32 -45 79.5q-16.5 47.5 -16.5 109.5q0 59 16 106q16 47 43.5 80q27.5 33 65 50.5q37.5 17.5 81.5 17.5zt0 0zM383 274q0 33 -8 62.5q-8 29.5 -24.5 51q-16.5 21.5 -41.5 34.5q-25 13 -60 13q-26 0 -49 -11.5q-23 -11.5 -41 -33q-18 -21.5 -29.5 -51q-11.5 -29.5 -13.5 -65.5zM203 621q0 -18 -13.5 -31q-13.5 -13 -30.5 -13q-18 0 -31.5 13q-13.5 13 -13.5 31q0 19 13.5 31.5q13.5 12.5 31.5 12.5q17 0 30.5 -12.5q13.5 -12.5 13.5 -31.5zt0 0zM395 621q0 -18 -13 -31q-13 -13 -30 -13q-18 0 -31.5 13q-13.5 13 -13.5 31q0 19 13 31.5q13 12.5 32 12.5q17 0 30 -12.5t13 -31.5z" />
<glyph unicode="&#236;" horiz-adv-x="229" d="M-2 713l83 15l72 -159l-38 -13zM80 0v487h72l0 -487z" />
<glyph unicode="&#237;" horiz-adv-x="229" d="M131 556l-38 13l70 161l82 -15zM80 0v487h72l0 -487z" />
<glyph unicode="&#238;" horiz-adv-x="297" d="M147 644l-129 -90l-28 23l125 125h68l124 -126l-28 -23zM113 0v487h72l0 -487z" />
<glyph unicode="&#239;" horiz-adv-x="261" d="M271 627q0 -18 -13 -31q-13 -13 -30 -13q-18 0 -31.5 13q-13.5 13 -13.5 31q0 19 13 31.5q13 12.5 32 12.5q17 0 30 -12.5q13 -12.5 13 -31.5zt0 0zM79 627q0 -18 -13.5 -31q-13.5 -13 -30.5 -13q-18 0 -31.5 13q-13.5 13 -13.5 31q0 19 13.5 31.5q13.5 12.5 31.5 12.5q17 0 30.5 -12.5q13.5 -12.5 13.5 -31.5zt0 0zM94 0v487h72l0 -487z" />
<glyph unicode="&#240;" horiz-adv-x="514" d="M414 710l32 -26l-58 -67q43 -47 67 -115.5q24 -68.5 24 -174.5q0 -70 -12 -131.5q-12 -61.5 -39 -107q-27 -45.5 -70 -72q-43 -26.5 -104 -26.5q-46 0 -84 17.5q-38 17.5 -65 49.5q-27 32 -42 77.5q-15 45.5 -15 101.5q0 58 16.5 102.5q16.5 44.5 44.5 75q28 30.5 65.5 46q37.5 15.5 79.5 15.5q40 0 84 -22q44 -22 69 -66l4 0q-2 54 -18.5 100q-16.5 46 -47.5 81l-53 -62l-33 28l55 63q-54 42 -134 51l11 59q52 -5 91.5 -20q39.5 -15 74.5 -41zM396 239q0 80 -38.5 127.5q-38.5 47.5 -104.5 47.5q-32 0 -57.5 -13q-25.5 -13 -43 -36.5q-17.5 -23.5 -27 -56q-9.5 -32.5 -9.5 -70.5q0 -43 10.5 -77.5q10.5 -34.5 29 -58.5q18.5 -24 44 -37q25.5 -13 55.5 -13q32 0 58 15q26 15 44.5 40.5q18.5 25.5 28.5 59.5t10 72z" />
<glyph unicode="&#241;" horiz-adv-x="487" d="M438 0h-72v293q0 69 -27 105.5q-27 36.5 -88 36.5q-45 0 -77 -29.5q-32 -29.5 -43 -71.5q-5 -20 -5 -43v-291h-71v488h71v-69l2 -1q27 42 67 60.5q40 18.5 77 18.5q85 0 125.5 -49.5q40.5 -49.5 40.5 -143.5zM404 652q-17 -41 -42.5 -58q-25.5 -17 -54.5 -17q-17 0 -34.5 6q-17.5 6 -34.5 13.5q-17 7.5 -33 14q-16 6.5 -31 6.5q-17 0 -32.5 -8q-15.5 -8 -32.5 -31l-33 16q18 46 45.5 63q27.5 17 53.5 17q17 0 34 -6.5q17 -6.5 34.5 -14.5q17.5 -8 34 -14.5q16.5 -6.5 31.5 -6.5q18 0 32 7.5q14 7.5 30 29.5z" />
<glyph unicode="&#242;" horiz-adv-x="513" d="M124 713l83 15l72 -159l-38 -13zM468 246q0 -61 -16.5 -108.5q-16.5 -47.5 -45 -80.5q-28.5 -33 -67.5 -50q-39 -17 -85 -17q-47 0 -85.5 17.5q-38.5 17.5 -66 50.5q-27.5 33 -42.5 80q-15 47 -15 106q0 61 16 108.5q16 47.5 44.5 79.5q28.5 32 67 48.5q38.5 16.5 83.5 16.5q45 0 84 -17q39 -17 67.5 -49.5q28.5 -32.5 44.5 -79q16 -46.5 16 -105.5zt0 0zM397 244q0 41 -9 76q-9 35 -27 60.5q-18 25.5 -45 40q-27 14.5 -62 14.5q-33 0 -59 -15q-26 -15 -43 -40.5q-17 -25.5 -26 -60q-9 -34.5 -9 -73.5q0 -88 37.5 -140.5q37.5 -52.5 103.5 -52.5q35 0 61 15.5q26 15.5 43.5 41.5q17.5 26 26 60.5t8.5 73.5z" />
<glyph unicode="&#243;" horiz-adv-x="513" d="M271 556l-38 13l70 161l82 -15zM468 246q0 -61 -16.5 -108.5q-16.5 -47.5 -45 -80.5q-28.5 -33 -67.5 -50q-39 -17 -85 -17q-47 0 -85.5 17.5q-38.5 17.5 -66 50.5q-27.5 33 -42.5 80q-15 47 -15 106q0 61 16 108.5q16 47.5 44.5 79.5q28.5 32 67 48.5q38.5 16.5 83.5 16.5q45 0 84 -17q39 -17 67.5 -49.5q28.5 -32.5 44.5 -79q16 -46.5 16 -105.5zt0 0zM397 244q0 41 -9 76q-9 35 -27 60.5q-18 25.5 -45 40q-27 14.5 -62 14.5q-33 0 -59 -15q-26 -15 -43 -40.5q-17 -25.5 -26 -60q-9 -34.5 -9 -73.5q0 -88 37.5 -140.5q37.5 -52.5 103.5 -52.5q35 0 61 15.5q26 15.5 43.5 41.5q17.5 26 26 60.5t8.5 73.5z" />
<glyph unicode="&#244;" horiz-adv-x="513" d="M258 644l-129 -90l-28 23l125 125h68l124 -126l-28 -23zM468 246q0 -61 -16.5 -108.5q-16.5 -47.5 -45 -80.5q-28.5 -33 -67.5 -50q-39 -17 -85 -17q-47 0 -85.5 17.5q-38.5 17.5 -66 50.5q-27.5 33 -42.5 80q-15 47 -15 106q0 61 16 108.5q16 47.5 44.5 79.5q28.5 32 67 48.5q38.5 16.5 83.5 16.5q45 0 84 -17q39 -17 67.5 -49.5q28.5 -32.5 44.5 -79q16 -46.5 16 -105.5zt0 0zM397 244q0 41 -9 76q-9 35 -27 60.5q-18 25.5 -45 40q-27 14.5 -62 14.5q-33 0 -59 -15q-26 -15 -43 -40.5q-17 -25.5 -26 -60q-9 -34.5 -9 -73.5q0 -88 37.5 -140.5q37.5 -52.5 103.5 -52.5q35 0 61 15.5q26 15.5 43.5 41.5q17.5 26 26 60.5t8.5 73.5z" />
<glyph unicode="&#245;" horiz-adv-x="513" d="M428 652q-17 -41 -42.5 -58q-25.5 -17 -54.5 -17q-17 0 -34.5 6q-17.5 6 -34.5 13.5q-17 7.5 -33 14q-16 6.5 -31 6.5q-17 0 -32.5 -8q-15.5 -8 -32.5 -31l-33 16q18 46 45.5 63q27.5 17 53.5 17q17 0 34 -6.5q17 -6.5 34.5 -14.5q17.5 -8 34 -14.5q16.5 -6.5 31.5 -6.5q18 0 32 7.5q14 7.5 30 29.5zM468 246q0 -61 -16.5 -108.5q-16.5 -47.5 -45 -80.5q-28.5 -33 -67.5 -50q-39 -17 -85 -17q-47 0 -85.5 17.5q-38.5 17.5 -66 50.5q-27.5 33 -42.5 80q-15 47 -15 106q0 61 16 108.5q16 47.5 44.5 79.5q28.5 32 67 48.5q38.5 16.5 83.5 16.5q45 0 84 -17q39 -17 67.5 -49.5q28.5 -32.5 44.5 -79q16 -46.5 16 -105.5zt0 0zM397 244q0 41 -9 76q-9 35 -27 60.5q-18 25.5 -45 40q-27 14.5 -62 14.5q-33 0 -59 -15q-26 -15 -43 -40.5q-17 -25.5 -26 -60q-9 -34.5 -9 -73.5q0 -88 37.5 -140.5q37.5 -52.5 103.5 -52.5q35 0 61 15.5q26 15.5 43.5 41.5q17.5 26 26 60.5t8.5 73.5z" />
<glyph unicode="&#246;" horiz-adv-x="513" d="M401 627q0 -18 -13 -31q-13 -13 -30 -13q-18 0 -31.5 13q-13.5 13 -13.5 31q0 19 13 31.5q13 12.5 32 12.5q17 0 30 -12.5q13 -12.5 13 -31.5zt0 0zM209 627q0 -18 -13.5 -31q-13.5 -13 -30.5 -13q-18 0 -31.5 13q-13.5 13 -13.5 31q0 19 13.5 31.5q13.5 12.5 31.5 12.5q17 0 30.5 -12.5q13.5 -12.5 13.5 -31.5zt0 0zM468 246q0 -61 -16.5 -108.5q-16.5 -47.5 -45 -80.5q-28.5 -33 -67.5 -50q-39 -17 -85 -17q-47 0 -85.5 17.5q-38.5 17.5 -66 50.5q-27.5 33 -42.5 80q-15 47 -15 106q0 61 16 108.5q16 47.5 44.5 79.5q28.5 32 67 48.5q38.5 16.5 83.5 16.5q45 0 84 -17q39 -17 67.5 -49.5q28.5 -32.5 44.5 -79q16 -46.5 16 -105.5zt0 0zM397 244q0 41 -9 76q-9 35 -27 60.5q-18 25.5 -45 40q-27 14.5 -62 14.5q-33 0 -59 -15q-26 -15 -43 -40.5q-17 -25.5 -26 -60q-9 -34.5 -9 -73.5q0 -88 37.5 -140.5q37.5 -52.5 103.5 -52.5q35 0 61 15.5q26 15.5 43.5 41.5q17.5 26 26 60.5t8.5 73.5z" />
<glyph unicode="&#247;" horiz-adv-x="609" d="M353 472q0 -20 -14.5 -35q-14.5 -15 -34.5 -15q-20 0 -34 14.5q-14 14.5 -14 35.5q0 22 14 36q14 14 34 14q20 0 34.5 -14q14.5 -14 14.5 -36zt0 0zM353 143q0 -20 -14.5 -34.5q-14.5 -14.5 -34.5 -14.5q-20 0 -34 14q-14 14 -14 35q0 22 14 36.5q14 14.5 34 14.5q20 0 34.5 -14.5q14.5 -14.5 14.5 -36.5zt0 0zM103 279v64h404l0 -64z" />
<glyph unicode="&#248;" horiz-adv-x="513" d="M468 246q0 -61 -16.5 -108.5q-16.5 -47.5 -45 -80.5q-28.5 -33 -67.5 -50q-39 -17 -85 -17q-79 0 -131 46l-43 -56l-34 23l48 65q-23 32 -36 76.5q-13 44.5 -13 99.5q0 61 16 108.5q16 47.5 44.5 79.5q28.5 32 67 48.5q38.5 16.5 83.5 16.5q37 0 69.5 -11.5q32.5 -11.5 58.5 -32.5l40 53l35 -26l-44 -59q25 -32 39 -76q14 -44 14 -99zt0 0zM397 244q0 70 -26 120l-206 -272q37 -39 93 -39q35 0 61 15.5q26 15.5 43.5 41.5q17.5 26 26 60.5q8.5 34.5 8.5 73.5zt0 0zM117 246q0 -69 23 -117l204 271q-17 17 -39.5 26q-22.5 9 -50.5 9q-33 0 -59 -15q-26 -15 -43 -40.5q-17 -25.5 -26 -60t-9 -73.5z" />
<glyph unicode="&#249;" horiz-adv-x="486" d="M52 488h71v-294q0 -72 26 -107q26 -35 87 -35q45 0 75.5 28.5q30.5 28.5 41.5 70.5q6 21 6 46v291h71v-488h-71v68h-3q-27 -42 -65.5 -60q-38.5 -18 -74.5 -18q-164 0 -164 187zM131 713l83 15l72 -159l-38 -13z" />
<glyph unicode="&#250;" horiz-adv-x="486" d="M52 488h71v-294q0 -72 26 -107q26 -35 87 -35q45 0 75.5 28.5q30.5 28.5 41.5 70.5q6 21 6 46v291h71v-488h-71v68h-3q-27 -42 -65.5 -60q-38.5 -18 -74.5 -18q-164 0 -164 187zM252 556l-38 13l70 161l82 -15z" />
<glyph unicode="&#251;" horiz-adv-x="486" d="M52 488h71v-294q0 -72 26 -107q26 -35 87 -35q45 0 75.5 28.5q30.5 28.5 41.5 70.5q6 21 6 46v291h71v-488h-71v68h-3q-27 -42 -65.5 -60q-38.5 -18 -74.5 -18q-164 0 -164 187zM251 646l-129 -90l-28 23l125 125h68l124 -126l-28 -23z" />
<glyph unicode="&#252;" horiz-adv-x="486" d="M52 488h71v-294q0 -72 26 -107q26 -35 87 -35q45 0 75.5 28.5q30.5 28.5 41.5 70.5q6 21 6 46v291h71v-488h-71v68h-3q-27 -42 -65.5 -60q-38.5 -18 -74.5 -18q-164 0 -164 187zM391 628q0 -18 -13 -31q-13 -13 -30 -13q-18 0 -31.5 13q-13.5 13 -13.5 31q0 19 13 31.5q13 12.5 32 12.5q17 0 30 -12.5q13 -12.5 13 -31.5zt0 0zM199 628q0 -18 -13.5 -31q-13.5 -13 -30.5 -13q-18 0 -31.5 13q-13.5 13 -13.5 31q0 19 13.5 31.5q13.5 12.5 31.5 12.5q17 0 30.5 -12.5t13.5 -31.5z" />
<glyph unicode="&#253;" horiz-adv-x="463" d="M135 -187l63 180l-183 495h75l90 -258l49 -147h3q13 37 25.5 73.5q12.5 36.5 24.5 73.5q8 22 20.5 56.5q12.5 34.5 26 72q13.5 37.5 25.5 72.5q12 35 20 57l72 0q-61 -168 -122.5 -338q-61.5 -170 -122.5 -337zM245 556l-38 13l70 161l82 -15z" />
<glyph unicode="&#254;" horiz-adv-x="499" d="M126 651v-212h2q36 36 72 47q36 11 70 11q34 0 67 -14.5q33 -14.5 58.5 -45q25.5 -30.5 41.5 -77.5q16 -47 16 -112q0 -69 -17.5 -118q-17.5 -49 -46 -80q-28.5 -31 -63.5 -45q-35 -14 -71 -14q-35 0 -66.5 12q-31.5 12 -62.5 43l-1 0v-195q-18 -8 -35.5 -16q-17.5 -8 -35.5 -16l0 832zM125 120q20 -26 52.5 -47q32.5 -21 69.5 -21q66 0 101 51.5q35 51.5 35 145.5q0 88 -36 138q-36 50 -94 50q-41 0 -74 -21q-33 -21 -54 -48z" />
<glyph unicode="&#255;" horiz-adv-x="463" d="M135 -187l63 180l-183 495h75l90 -258l49 -147h3q13 37 25.5 73.5q12.5 36.5 24.5 73.5q8 22 20.5 56.5q12.5 34.5 26 72q13.5 37.5 25.5 72.5q12 35 20 57l72 0q-61 -168 -122.5 -338q-61.5 -170 -122.5 -337zM190 627q0 -18 -13.5 -31q-13.5 -13 -30.5 -13q-18 0 -31.5 13q-13.5 13 -13.5 31q0 19 13.5 31.5q13.5 12.5 31.5 12.5q17 0 30.5 -12.5q13.5 -12.5 13.5 -31.5zt0 0zM382 627q0 -18 -13 -31q-13 -13 -30 -13q-18 0 -31.5 13q-13.5 13 -13.5 31q0 19 13 31.5q13 12.5 32 12.5q17 0 30 -12.5t13 -31.5z" />
<glyph unicode="&#256;" horiz-adv-x="621" d="M446 222q-33 87 -66.5 172.5q-33.5 85.5 -65.5 173.5l-3 0q-14 -38 -30 -80.5q-16 -42.5 -29 -76.5q-6 -17 -16 -42q-10 -25 -20.5 -52.5q-10.5 -27.5 -20 -53q-9.5 -25.5 -15.5 -41.5zM155 154q-14 -39 -29.5 -77.5q-15.5 -38.5 -29.5 -76.5l-79 0q65 164 128 325.5q63 161.5 128 325.5l82 0q64 -164 127.5 -325.5q63.5 -161.5 128.5 -325.5l-80 0q-15 38 -30 76.5q-15 38.5 -29 77.5zM192 727v55h242l0 -55z" />
<glyph unicode="&#257;" horiz-adv-x="477" d="M245 497q85 0 130.5 -39.5q45.5 -39.5 45.5 -118.5v-339h-70v48h-2q-39 -35 -77.5 -46q-38.5 -11 -73.5 -11q-29 0 -58 8.5q-29 8.5 -52.5 27q-23.5 18.5 -38 47.5q-14.5 29 -14.5 71q0 36 13.5 65q13.5 29 38 49.5q24.5 20.5 58 31.5q33.5 11 73.5 11q32 0 64.5 -6.5q32.5 -6.5 68.5 -26.5l0 60q0 56 -28.5 81.5q-28.5 25.5 -85.5 25.5q-36 0 -67 -9q-31 -9 -62 -24l-24 56q35 17 74 27.5q39 10.5 87 10.5zt0 0zM351 209q-30 17 -60 27q-30 10 -72 10q-48 0 -81 -25.5q-33 -25.5 -33 -73.5q0 -48 28 -73q28 -25 81 -25q39 2 74.5 21q35.5 19 62.5 46zM139 605v55h242l0 -55z" />
<glyph unicode="&#258;" horiz-adv-x="621" d="M446 222q-33 87 -66.5 172.5q-33.5 85.5 -65.5 173.5l-3 0q-14 -38 -30 -80.5q-16 -42.5 -29 -76.5q-6 -17 -16 -42q-10 -25 -20.5 -52.5q-10.5 -27.5 -20 -53q-9.5 -25.5 -15.5 -41.5zM155 154q-14 -39 -29.5 -77.5q-15.5 -38.5 -29.5 -76.5l-79 0q65 164 128 325.5q63 161.5 128 325.5l82 0q64 -164 127.5 -325.5q63.5 -161.5 128.5 -325.5l-80 0q-15 38 -30 76.5q-15 38.5 -29 77.5zM241 811q4 -28 22 -46q18 -18 50 -18q34 0 51.5 20q17.5 20 19.5 44l54 0q-1 -18 -8 -38.5q-7 -20.5 -21.5 -37q-14.5 -16.5 -37.5 -27.5q-23 -11 -57 -11q-35 0 -59 11q-24 11 -39 27.5q-15 16.5 -21.5 37q-6.5 20.5 -7.5 38.5z" />
<glyph unicode="&#259;" horiz-adv-x="477" d="M245 497q85 0 130.5 -39.5q45.5 -39.5 45.5 -118.5v-339h-70v48h-2q-39 -35 -77.5 -46q-38.5 -11 -73.5 -11q-29 0 -58 8.5q-29 8.5 -52.5 27q-23.5 18.5 -38 47.5q-14.5 29 -14.5 71q0 36 13.5 65q13.5 29 38 49.5q24.5 20.5 58 31.5q33.5 11 73.5 11q32 0 64.5 -6.5q32.5 -6.5 68.5 -26.5l0 60q0 56 -28.5 81.5q-28.5 25.5 -85.5 25.5q-36 0 -67 -9q-31 -9 -62 -24l-24 56q35 17 74 27.5q39 10.5 87 10.5zt0 0zM351 209q-30 17 -60 27q-30 10 -72 10q-48 0 -81 -25.5q-33 -25.5 -33 -73.5q0 -48 28 -73q28 -25 81 -25q39 2 74.5 21q35.5 19 62.5 46zM190 682q4 -28 22 -46q18 -18 50 -18q34 0 51.5 20q17.5 20 19.5 44l54 0q-1 -18 -8 -38.5q-7 -20.5 -21.5 -37q-14.5 -16.5 -37.5 -27.5q-23 -11 -57 -11q-35 0 -59 11q-24 11 -39 27.5q-15 16.5 -21.5 37q-6.5 20.5 -7.5 38.5z" />
<glyph unicode="&#260;" horiz-adv-x="621" d="M155 154q-14 -39 -29.5 -77.5q-15.5 -38.5 -29.5 -76.5l-79 0q65 164 128 325.5q63 161.5 128 325.5l82 0q64 -164 127.5 -325.5q63.5 -161.5 128.5 -325.5l-35 0q-26 -33 -36.5 -57.5q-10.5 -24.5 -10.5 -43.5q0 -23 14.5 -35.5q14.5 -12.5 38.5 -12.5q22 0 52 13l15 -38q-19 -10 -39.5 -15.5q-20.5 -5.5 -41.5 -5.5q-39 0 -66 22q-27 22 -27 60q0 23 13.5 50.5q13.5 27.5 42.5 62.5q-15 38 -30 76.5q-15 38.5 -29 77.5zM446 222q-33 87 -66.5 172.5q-33.5 85.5 -65.5 173.5l-3 0q-14 -38 -30 -80.5q-16 -42.5 -29 -76.5q-6 -17 -16 -42q-10 -25 -20.5 -52.5q-10.5 -27.5 -20 -53q-9.5 -25.5 -15.5 -41.5z" />
<glyph unicode="&#261;" horiz-adv-x="477" d="M245 497q85 0 130.5 -39.5q45.5 -39.5 45.5 -118.5v-339h-18q-26 -33 -36.5 -57.5q-10.5 -24.5 -10.5 -43.5q0 -23 14.5 -35.5q14.5 -12.5 38.5 -12.5q22 0 52 13l15 -38q-19 -10 -39.5 -15.5q-20.5 -5.5 -41.5 -5.5q-39 0 -66 22q-27 22 -27 60q0 23 13 50.5q13 27.5 42 62.5l-6 0v48h-2q-39 -35 -77.5 -46q-38.5 -11 -73.5 -11q-29 0 -58 8.5q-29 8.5 -52.5 27q-23.5 18.5 -38 47.5q-14.5 29 -14.5 71q0 36 13.5 65q13.5 29 38 49.5q24.5 20.5 58 31.5q33.5 11 73.5 11q32 0 64.5 -6.5q32.5 -6.5 68.5 -26.5l0 60q0 56 -28.5 81.5q-28.5 25.5 -85.5 25.5q-36 0 -67 -9q-31 -9 -62 -24l-24 56q35 17 74 27.5q39 10.5 87 10.5zt0 0zM351 209q-30 17 -60 27q-30 10 -72 10q-48 0 -81 -25.5q-33 -25.5 -33 -73.5q0 -48 28 -73q28 -25 81 -25q39 2 74.5 21q35.5 19 62.5 46z" />
<glyph unicode="&#262;" horiz-adv-x="556" d="M320 662q66 0 116.5 -22q50.5 -22 88.5 -67l-53 -53q-33 37 -70 54q-37 17 -83 17q-47 0 -83 -19.5q-36 -19.5 -61 -55q-25 -35.5 -38 -84q-13 -48.5 -13 -105.5q0 -56 12.5 -105q12.5 -49 37 -85q24.5 -36 61.5 -56.5q37 -20.5 86 -20.5q88 0 154 75l53 -49q-38 -45 -88 -70.5q-50 -25.5 -121 -25.5q-60 0 -110.5 23q-50.5 23 -86.5 66.5q-36 43.5 -56 105.5q-20 62 -20 141q0 78 20 140q20 62 56.5 105.5q36.5 43.5 87 67q50.5 23.5 110.5 23.5zt0 0zM290 692l-25 32l134 94l62 -56z" />
<glyph unicode="&#263;" horiz-adv-x="438" d="M251 497q98 0 160 -69l-47 -47q-27 29 -55 41q-28 12 -60 12q-31 0 -55.5 -14.5q-24.5 -14.5 -41.5 -40q-17 -25.5 -26 -60q-9 -34.5 -9 -75.5q0 -41 8.5 -75.5q8.5 -34.5 26 -60q17.5 -25.5 42.5 -40q25 -14.5 58 -14.5q33 0 59.5 12.5q26.5 12.5 53.5 40.5l47 -43q-29 -34 -67.5 -54q-38.5 -20 -95.5 -20q-42 0 -79 15.5q-37 15.5 -64.5 47q-27.5 31.5 -43.5 79.5q-16 48 -16 112q0 61 15.5 108q15.5 47 43.5 79.5q28 32.5 65 49q37 16.5 81 16.5zt0 0zM247 556l-38 13l70 161l82 -15z" />
<glyph unicode="&#264;" horiz-adv-x="556" d="M320 662q66 0 116.5 -22q50.5 -22 88.5 -67l-53 -53q-33 37 -70 54q-37 17 -83 17q-47 0 -83 -19.5q-36 -19.5 -61 -55q-25 -35.5 -38 -84q-13 -48.5 -13 -105.5q0 -56 12.5 -105q12.5 -49 37 -85q24.5 -36 61.5 -56.5q37 -20.5 86 -20.5q88 0 154 75l53 -49q-38 -45 -88 -70.5q-50 -25.5 -121 -25.5q-60 0 -110.5 23q-50.5 23 -86.5 66.5q-36 43.5 -56 105.5q-20 62 -20 141q0 78 20 140q20 62 56.5 105.5q36.5 43.5 87 67q50.5 23.5 110.5 23.5zt0 0zM317 765l-128 -76l-29 23l125 111h68l124 -112l-28 -23z" />
<glyph unicode="&#265;" horiz-adv-x="438" d="M251 497q98 0 160 -69l-47 -47q-27 29 -55 41q-28 12 -60 12q-31 0 -55.5 -14.5q-24.5 -14.5 -41.5 -40q-17 -25.5 -26 -60q-9 -34.5 -9 -75.5q0 -41 8.5 -75.5q8.5 -34.5 26 -60q17.5 -25.5 42.5 -40q25 -14.5 58 -14.5q33 0 59.5 12.5q26.5 12.5 53.5 40.5l47 -43q-29 -34 -67.5 -54q-38.5 -20 -95.5 -20q-42 0 -79 15.5q-37 15.5 -64.5 47q-27.5 31.5 -43.5 79.5q-16 48 -16 112q0 61 15.5 108q15.5 47 43.5 79.5q28 32.5 65 49q37 16.5 81 16.5zt0 0zM243 644l-129 -90l-28 23l125 125h68l124 -126l-28 -23z" />
<glyph unicode="&#266;" horiz-adv-x="556" d="M320 662q66 0 116.5 -22q50.5 -22 88.5 -67l-53 -53q-33 37 -70 54q-37 17 -83 17q-47 0 -83 -19.5q-36 -19.5 -61 -55q-25 -35.5 -38 -84q-13 -48.5 -13 -105.5q0 -56 12.5 -105q12.5 -49 37 -85q24.5 -36 61.5 -56.5q37 -20.5 86 -20.5q88 0 154 75l53 -49q-38 -45 -88 -70.5q-50 -25.5 -121 -25.5q-60 0 -110.5 23q-50.5 23 -86.5 66.5q-36 43.5 -56 105.5q-20 62 -20 141q0 78 20 140q20 62 56.5 105.5q36.5 43.5 87 67q50.5 23.5 110.5 23.5zt0 0zM361 755q0 -18 -13.5 -31.5q-13.5 -13.5 -32.5 -13.5q-19 0 -32 13.5q-13 13.5 -13 31.5q0 20 13 33.5q13 13.5 32 13.5q19 0 32.5 -13.5t13.5 -33.5z" />
<glyph unicode="&#267;" horiz-adv-x="438" d="M251 497q98 0 160 -69l-47 -47q-27 29 -55 41q-28 12 -60 12q-31 0 -55.5 -14.5q-24.5 -14.5 -41.5 -40q-17 -25.5 -26 -60q-9 -34.5 -9 -75.5q0 -41 8.5 -75.5q8.5 -34.5 26 -60q17.5 -25.5 42.5 -40q25 -14.5 58 -14.5q33 0 59.5 12.5q26.5 12.5 53.5 40.5l47 -43q-29 -34 -67.5 -54q-38.5 -20 -95.5 -20q-42 0 -79 15.5q-37 15.5 -64.5 47q-27.5 31.5 -43.5 79.5q-16 48 -16 112q0 61 15.5 108q15.5 47 43.5 79.5q28 32.5 65 49q37 16.5 81 16.5zt0 0zM298 626q0 -18 -13.5 -31.5q-13.5 -13.5 -32.5 -13.5q-19 0 -32 13.5q-13 13.5 -13 31.5q0 20 13 33.5q13 13.5 32 13.5q19 0 32.5 -13.5t13.5 -33.5z" />
<glyph unicode="&#268;" horiz-adv-x="556" d="M320 662q66 0 116.5 -22q50.5 -22 88.5 -67l-53 -53q-33 37 -70 54q-37 17 -83 17q-47 0 -83 -19.5q-36 -19.5 -61 -55q-25 -35.5 -38 -84q-13 -48.5 -13 -105.5q0 -56 12.5 -105q12.5 -49 37 -85q24.5 -36 61.5 -56.5q37 -20.5 86 -20.5q88 0 154 75l53 -49q-38 -45 -88 -70.5q-50 -25.5 -121 -25.5q-60 0 -110.5 23q-50.5 23 -86.5 66.5q-36 43.5 -56 105.5q-20 62 -20 141q0 78 20 140q20 62 56.5 105.5q36.5 43.5 87 67q50.5 23.5 110.5 23.5zt0 0zM449 828l28 -23l-125 -113h-67l-125 112l29 23l128 -77z" />
<glyph unicode="&#269;" horiz-adv-x="438" d="M251 497q98 0 160 -69l-47 -47q-27 29 -55 41q-28 12 -60 12q-31 0 -55.5 -14.5q-24.5 -14.5 -41.5 -40q-17 -25.5 -26 -60q-9 -34.5 -9 -75.5q0 -41 8.5 -75.5q8.5 -34.5 26 -60q17.5 -25.5 42.5 -40q25 -14.5 58 -14.5q33 0 59.5 12.5q26.5 12.5 53.5 40.5l47 -43q-29 -34 -67.5 -54q-38.5 -20 -95.5 -20q-42 0 -79 15.5q-37 15.5 -64.5 47q-27.5 31.5 -43.5 79.5q-16 48 -16 112q0 61 15.5 108q15.5 47 43.5 79.5q28 32.5 65 49q37 16.5 81 16.5zt0 0zM380 705l28 -22l-124 -127h-68l-125 126l29 22l128 -90z" />
<glyph unicode="&#270;" horiz-adv-x="612" d="M238 651q66 0 124.5 -18q58.5 -18 103 -57q44.5 -39 70 -100.5q25.5 -61.5 25.5 -149.5q0 -88 -26 -150q-26 -62 -71 -101q-45 -39 -104 -57q-59 -18 -125 -18h-162v651zM148 582v-513h89q63 0 109 18.5q46 18.5 76.5 52q30.5 33.5 45.5 81q15 47.5 15 104.5q0 57 -15 104.5q-15 47.5 -45.5 81q-30.5 33.5 -76.5 52.5q-46 19 -108 19zM386 828l28 -23l-125 -113h-67l-125 112l29 23l128 -77z" />
<glyph unicode="&#271;" horiz-adv-x="589" d="M246 497q70 0 124 -51l2 0v214l71 32v-692h-71v48h-2q-36 -36 -72 -47q-36 -11 -70 -11q-36 0 -69 14q-33 14 -58.5 44q-25.5 30 -40.5 76q-15 46 -15 110q0 71 18 121q18 50 46.5 81.5q28.5 31.5 64.5 46q36 14.5 72 14.5zt0 0zM251 435q-64 0 -100 -51q-36 -51 -36 -144q0 -88 35 -139q35 -51 95 -51q41 0 73.5 21.5q32.5 21.5 54.5 48.5l0 247q-20 27 -52.5 47.5q-32.5 20.5 -69.5 20.5zt0 0zM505 573q18 13 28.5 24.5q10.5 11.5 11.5 33.5q-3 -1 -9 -1q-18 0 -30.5 13q-12.5 13 -12.5 34q0 23 14.5 37.5q14.5 14.5 35.5 14.5q23 0 39 -18.5q16 -18.5 16 -50.5q0 -43 -21 -69.5q-21 -26.5 -53 -42.5z" />
<glyph unicode="&#272;" horiz-adv-x="612" d="M238 651q66 0 124.5 -18q58.5 -18 103 -57q44.5 -39 70 -100.5q25.5 -61.5 25.5 -149.5q0 -88 -26 -150q-26 -62 -71 -101q-45 -39 -104 -57q-59 -18 -125 -18h-162v303h-66v48h66v300zM148 582v-231h130v-48h-130v-234h89q63 0 109 18.5q46 18.5 76.5 52q30.5 33.5 45.5 81q15 47.5 15 104.5q0 57 -15 104.5q-15 47.5 -45.5 81q-30.5 33.5 -76.5 52.5q-46 19 -108 19z" />
<glyph unicode="&#273;" horiz-adv-x="509" d="M45 231q0 69 17.5 116.5q17.5 47.5 46 77q28.5 29.5 63.5 42q35 12.5 71 12.5q35 0 65.5 -12.5q30.5 -12.5 61.5 -42.5l2 0v105h-138v48h138v73q3 1 13.5 6q10.5 5 22.5 10q12 5 22 10q10 5 13 6l0 -105h49v-48h-49v-529h-71v48h-2q-36 -36 -72 -47q-36 -11 -70 -11q-35 0 -67.5 13q-32.5 13 -58.5 42q-26 29 -41.5 74.5q-15.5 45.5 -15.5 111.5zt0 0zM115 230q0 -87 36 -133.5q36 -46.5 94 -46.5q41 0 73.5 21.5q32.5 21.5 54.5 48.5l0 229q-20 27 -52.5 48q-32.5 21 -69.5 21q-66 0 -101 -49t-35 -139z" />
<glyph unicode="&#274;" horiz-adv-x="510" d="M66 0v651h415v-69h-340v-200h242v-69h-242v-244h353v-69zM158 725v55h242l0 -55z" />
<glyph unicode="&#275;" horiz-adv-x="489" d="M251 497q49 0 86.5 -17.5q37.5 -17.5 63 -50q25.5 -32.5 39 -78q13.5 -45.5 13.5 -101.5v-33h-337q5 -81 45 -123q40 -42 97 -42q32 0 62 13q30 13 53 34l42 -45q-67 -64 -164 -64q-41 0 -78.5 16q-37.5 16 -66 48q-28.5 32 -45 79.5q-16.5 47.5 -16.5 109.5q0 59 16 106q16 47 43.5 80q27.5 33 65 50.5q37.5 17.5 81.5 17.5zt0 0zM383 274q0 33 -8 62.5q-8 29.5 -24.5 51q-16.5 21.5 -41.5 34.5q-25 13 -60 13q-26 0 -49 -11.5q-23 -11.5 -41 -33q-18 -21.5 -29.5 -51q-11.5 -29.5 -13.5 -65.5zM138 605v55h242l0 -55z" />
<glyph unicode="&#276;" horiz-adv-x="510" d="M66 0v651h415v-69h-340v-200h242v-69h-242v-244h353v-69zM206 812q4 -28 22 -46q18 -18 50 -18q34 0 51.5 20q17.5 20 19.5 44l54 0q-1 -18 -8 -38.5q-7 -20.5 -21.5 -37q-14.5 -16.5 -37.5 -27.5q-23 -11 -57 -11q-35 0 -59 11q-24 11 -39 27.5q-15 16.5 -21.5 37q-6.5 20.5 -7.5 38.5z" />
<glyph unicode="&#277;" horiz-adv-x="489" d="M251 497q49 0 86.5 -17.5q37.5 -17.5 63 -50q25.5 -32.5 39 -78q13.5 -45.5 13.5 -101.5v-33h-337q5 -81 45 -123q40 -42 97 -42q32 0 62 13q30 13 53 34l42 -45q-67 -64 -164 -64q-41 0 -78.5 16q-37.5 16 -66 48q-28.5 32 -45 79.5q-16.5 47.5 -16.5 109.5q0 59 16 106q16 47 43.5 80q27.5 33 65 50.5q37.5 17.5 81.5 17.5zt0 0zM383 274q0 33 -8 62.5q-8 29.5 -24.5 51q-16.5 21.5 -41.5 34.5q-25 13 -60 13q-26 0 -49 -11.5q-23 -11.5 -41 -33q-18 -21.5 -29.5 -51q-11.5 -29.5 -13.5 -65.5zM183 682q4 -28 22 -46q18 -18 50 -18q34 0 51.5 20q17.5 20 19.5 44l54 0q-1 -18 -8 -38.5q-7 -20.5 -21.5 -37q-14.5 -16.5 -37.5 -27.5q-23 -11 -57 -11q-35 0 -59 11q-24 11 -39 27.5q-15 16.5 -21.5 37q-6.5 20.5 -7.5 38.5z" />
<glyph unicode="&#278;" horiz-adv-x="510" d="M66 0v651h415v-69h-340v-200h242v-69h-242v-244h353v-69zM329 753q0 -18 -13.5 -31.5q-13.5 -13.5 -32.5 -13.5q-19 0 -32 13.5q-13 13.5 -13 31.5q0 20 13 33.5q13 13.5 32 13.5q19 0 32.5 -13.5t13.5 -33.5z" />
<glyph unicode="&#279;" horiz-adv-x="489" d="M251 497q49 0 86.5 -17.5q37.5 -17.5 63 -50q25.5 -32.5 39 -78q13.5 -45.5 13.5 -101.5v-33h-337q5 -81 45 -123q40 -42 97 -42q32 0 62 13q30 13 53 34l42 -45q-67 -64 -164 -64q-41 0 -78.5 16q-37.5 16 -66 48q-28.5 32 -45 79.5q-16.5 47.5 -16.5 109.5q0 59 16 106q16 47 43.5 80q27.5 33 65 50.5q37.5 17.5 81.5 17.5zt0 0zM383 274q0 33 -8 62.5q-8 29.5 -24.5 51q-16.5 21.5 -41.5 34.5q-25 13 -60 13q-26 0 -49 -11.5q-23 -11.5 -41 -33q-18 -21.5 -29.5 -51q-11.5 -29.5 -13.5 -65.5zM301 615q0 -18 -13.5 -31.5q-13.5 -13.5 -32.5 -13.5q-19 0 -32 13.5q-13 13.5 -13 31.5q0 20 13 33.5q13 13.5 32 13.5q19 0 32.5 -13.5t13.5 -33.5z" />
<glyph unicode="&#280;" horiz-adv-x="510" d="M491 0q-26 -33 -36.5 -57.5q-10.5 -24.5 -10.5 -43.5q0 -23 14.5 -35.5q14.5 -12.5 38.5 -12.5q22 0 52 13l15 -38q-19 -10 -39.5 -15.5q-20.5 -5.5 -41.5 -5.5q-39 0 -66 22q-27 22 -27 60q0 23 13 50.5q13 27.5 42 62.5l-379 0v651h415v-69h-340v-200h242v-69h-242v-244h353l0 -69z" />
<glyph unicode="&#281;" horiz-adv-x="489" d="M251 497q49 0 86.5 -17.5q37.5 -17.5 63 -50q25.5 -32.5 39 -78q13.5 -45.5 13.5 -101.5v-33h-337q5 -81 45 -123q40 -42 97 -42q32 0 62 13q30 13 53 34l42 -45q-27 -26 -56 -40q-20 -29 -29 -50.5q-9 -21.5 -9 -38.5q0 -23 14.5 -35.5q14.5 -12.5 38.5 -12.5q22 0 52 13l15 -38q-19 -10 -39.5 -15.5q-20.5 -5.5 -41.5 -5.5q-39 0 -66 22q-27 22 -27 60q0 34 31 81q-11 -2 -23 -3q-12 -1 -24 -1q-41 0 -78.5 16q-37.5 16 -66 48q-28.5 32 -45 79.5q-16.5 47.5 -16.5 109.5q0 59 16 106q16 47 43.5 80q27.5 33 65 50.5q37.5 17.5 81.5 17.5zt0 0zM383 274q0 33 -8 62.5q-8 29.5 -24.5 51q-16.5 21.5 -41.5 34.5q-25 13 -60 13q-26 0 -49 -11.5q-23 -11.5 -41 -33q-18 -21.5 -29.5 -51q-11.5 -29.5 -13.5 -65.5z" />
<glyph unicode="&#282;" horiz-adv-x="510" d="M66 0v651h415v-69h-340v-200h242v-69h-242v-244h353v-69zM403 828l28 -23l-125 -113h-67l-125 112l29 23l128 -77z" />
<glyph unicode="&#283;" horiz-adv-x="489" d="M251 497q49 0 86.5 -17.5q37.5 -17.5 63 -50q25.5 -32.5 39 -78q13.5 -45.5 13.5 -101.5v-33h-337q5 -81 45 -123q40 -42 97 -42q32 0 62 13q30 13 53 34l42 -45q-67 -64 -164 -64q-41 0 -78.5 16q-37.5 16 -66 48q-28.5 32 -45 79.5q-16.5 47.5 -16.5 109.5q0 59 16 106q16 47 43.5 80q27.5 33 65 50.5q37.5 17.5 81.5 17.5zt0 0zM383 274q0 33 -8 62.5q-8 29.5 -24.5 51q-16.5 21.5 -41.5 34.5q-25 13 -60 13q-26 0 -49 -11.5q-23 -11.5 -41 -33q-18 -21.5 -29.5 -51q-11.5 -29.5 -13.5 -65.5zM381 705l28 -22l-124 -127h-68l-125 126l29 22l128 -90z" />
<glyph unicode="&#284;" horiz-adv-x="594" d="M315 660q66 0 117 -22.5q51 -22.5 90 -68.5l-54 -52q-65 72 -154 72q-48 0 -84.5 -19.5q-36.5 -19.5 -61 -55q-24.5 -35.5 -37 -84q-12.5 -48.5 -12.5 -105.5q0 -59 12.5 -107.5q12.5 -48.5 37.5 -84q25 -35.5 62 -55q37 -19.5 86 -19.5q47 0 79 15.5q32 15.5 52 40.5q20 25 29 55.5q9 30.5 9 59.5v23h-110v67h187v-60q0 -63 -17.5 -113.5q-17.5 -50.5 -50 -85q-32.5 -34.5 -78 -53q-45.5 -18.5 -102.5 -18.5q-64 0 -114.5 23.5q-50.5 23.5 -86 67.5q-35.5 44 -54.5 105.5q-19 61.5 -19 138.5q0 79 20 141q20 62 56.5 105q36.5 43 87 66q50.5 23 110.5 23zt0 0zM314 765l-128 -76l-29 23l125 111h68l124 -112l-28 -23z" />
<glyph unicode="&#285;" horiz-adv-x="500" d="M444 34q0 -88 -45.5 -150.5q-45.5 -62.5 -151.5 -90.5l-23 60q49 16 78.5 35q29.5 19 45.5 40q16 21 21 43.5q5 22.5 5 43.5v38h-2q-41 -36 -75 -48q-34 -12 -66 -12q-36 0 -69.5 13q-33.5 13 -59 42.5q-25.5 29.5 -41 77.5q-15.5 48 -15.5 119q0 64 16.5 111q16.5 47 43 78.5q26.5 31.5 60.5 47q34 15.5 69 15.5q33 0 67.5 -11.5q34.5 -11.5 67.5 -45.5l2 0v48h72zM373 366q-21 27 -53.5 49q-32.5 22 -73.5 22q-28 0 -52 -14q-24 -14 -41 -38.5q-17 -24.5 -27 -59q-10 -34.5 -10 -76.5q0 -97 33 -146q33 -49 99 -49q38 0 71.5 22q33.5 22 53.5 48zM263 644l-129 -90l-28 23l125 125h68l124 -126l-28 -23z" />
<glyph unicode="&#286;" horiz-adv-x="594" d="M315 660q66 0 117 -22.5q51 -22.5 90 -68.5l-54 -52q-65 72 -154 72q-48 0 -84.5 -19.5q-36.5 -19.5 -61 -55q-24.5 -35.5 -37 -84q-12.5 -48.5 -12.5 -105.5q0 -59 12.5 -107.5q12.5 -48.5 37.5 -84q25 -35.5 62 -55q37 -19.5 86 -19.5q47 0 79 15.5q32 15.5 52 40.5q20 25 29 55.5q9 30.5 9 59.5v23h-110v67h187v-60q0 -63 -17.5 -113.5q-17.5 -50.5 -50 -85q-32.5 -34.5 -78 -53q-45.5 -18.5 -102.5 -18.5q-64 0 -114.5 23.5q-50.5 23.5 -86 67.5q-35.5 44 -54.5 105.5q-19 61.5 -19 138.5q0 79 20 141q20 62 56.5 105q36.5 43 87 66q50.5 23 110.5 23zt0 0zM241 813q4 -28 22 -46q18 -18 50 -18q34 0 51.5 20q17.5 20 19.5 44l54 0q-1 -18 -8 -38.5q-7 -20.5 -21.5 -37q-14.5 -16.5 -37.5 -27.5q-23 -11 -57 -11q-35 0 -59 11q-24 11 -39 27.5q-15 16.5 -21.5 37q-6.5 20.5 -7.5 38.5z" />
<glyph unicode="&#287;" horiz-adv-x="500" d="M444 34q0 -88 -45.5 -150.5q-45.5 -62.5 -151.5 -90.5l-23 60q49 16 78.5 35q29.5 19 45.5 40q16 21 21 43.5q5 22.5 5 43.5v38h-2q-41 -36 -75 -48q-34 -12 -66 -12q-36 0 -69.5 13q-33.5 13 -59 42.5q-25.5 29.5 -41 77.5q-15.5 48 -15.5 119q0 64 16.5 111q16.5 47 43 78.5q26.5 31.5 60.5 47q34 15.5 69 15.5q33 0 67.5 -11.5q34.5 -11.5 67.5 -45.5l2 0v48h72zM373 366q-21 27 -53.5 49q-32.5 22 -73.5 22q-28 0 -52 -14q-24 -14 -41 -38.5q-17 -24.5 -27 -59q-10 -34.5 -10 -76.5q0 -97 33 -146q33 -49 99 -49q38 0 71.5 22q33.5 22 53.5 48zM187 682q4 -28 22 -46q18 -18 50 -18q34 0 51.5 20q17.5 20 19.5 44l54 0q-1 -18 -8 -38.5q-7 -20.5 -21.5 -37q-14.5 -16.5 -37.5 -27.5q-23 -11 -57 -11q-35 0 -59 11q-24 11 -39 27.5q-15 16.5 -21.5 37q-6.5 20.5 -7.5 38.5z" />
<glyph unicode="&#288;" horiz-adv-x="594" d="M315 660q66 0 117 -22.5q51 -22.5 90 -68.5l-54 -52q-65 72 -154 72q-48 0 -84.5 -19.5q-36.5 -19.5 -61 -55q-24.5 -35.5 -37 -84q-12.5 -48.5 -12.5 -105.5q0 -59 12.5 -107.5q12.5 -48.5 37.5 -84q25 -35.5 62 -55q37 -19.5 86 -19.5q47 0 79 15.5q32 15.5 52 40.5q20 25 29 55.5q9 30.5 9 59.5v23h-110v67h187v-60q0 -63 -17.5 -113.5q-17.5 -50.5 -50 -85q-32.5 -34.5 -78 -53q-45.5 -18.5 -102.5 -18.5q-64 0 -114.5 23.5q-50.5 23.5 -86 67.5q-35.5 44 -54.5 105.5q-19 61.5 -19 138.5q0 79 20 141q20 62 56.5 105q36.5 43 87 66q50.5 23 110.5 23zt0 0zM367 753q0 -18 -13.5 -31.5q-13.5 -13.5 -32.5 -13.5q-19 0 -32 13.5q-13 13.5 -13 31.5q0 20 13 33.5q13 13.5 32 13.5q19 0 32.5 -13.5t13.5 -33.5z" />
<glyph unicode="&#289;" horiz-adv-x="500" d="M444 34q0 -88 -45.5 -150.5q-45.5 -62.5 -151.5 -90.5l-23 60q49 16 78.5 35q29.5 19 45.5 40q16 21 21 43.5q5 22.5 5 43.5v38h-2q-41 -36 -75 -48q-34 -12 -66 -12q-36 0 -69.5 13q-33.5 13 -59 42.5q-25.5 29.5 -41 77.5q-15.5 48 -15.5 119q0 64 16.5 111q16.5 47 43 78.5q26.5 31.5 60.5 47q34 15.5 69 15.5q33 0 67.5 -11.5q34.5 -11.5 67.5 -45.5l2 0v48h72zM373 366q-21 27 -53.5 49q-32.5 22 -73.5 22q-28 0 -52 -14q-24 -14 -41 -38.5q-17 -24.5 -27 -59q-10 -34.5 -10 -76.5q0 -97 33 -146q33 -49 99 -49q38 0 71.5 22q33.5 22 53.5 48zM320 626q0 -18 -13.5 -31.5q-13.5 -13.5 -32.5 -13.5q-19 0 -32 13.5q-13 13.5 -13 31.5q0 20 13 33.5q13 13.5 32 13.5q19 0 32.5 -13.5t13.5 -33.5z" />
<glyph unicode="&#290;" horiz-adv-x="594" d="M315 660q66 0 117 -22.5q51 -22.5 90 -68.5l-54 -52q-65 72 -154 72q-48 0 -84.5 -19.5q-36.5 -19.5 -61 -55q-24.5 -35.5 -37 -84q-12.5 -48.5 -12.5 -105.5q0 -59 12.5 -107.5q12.5 -48.5 37.5 -84q25 -35.5 62 -55q37 -19.5 86 -19.5q47 0 79 15.5q32 15.5 52 40.5q20 25 29 55.5q9 30.5 9 59.5v23h-110v67h187v-60q0 -63 -17.5 -113.5q-17.5 -50.5 -50 -85q-32.5 -34.5 -78 -53q-45.5 -18.5 -102.5 -18.5q-64 0 -114.5 23.5q-50.5 23.5 -86 67.5q-35.5 44 -54.5 105.5q-19 61.5 -19 138.5q0 79 20 141q20 62 56.5 105q36.5 43 87 66q50.5 23 110.5 23zt0 0zM267 -207q18 13 28.5 24.5q10.5 11.5 11.5 33.5q-3 -1 -9 -1q-18 0 -30.5 13q-12.5 13 -12.5 34q0 23 14.5 37.5q14.5 14.5 35.5 14.5q23 0 39 -18.5q16 -18.5 16 -50.5q0 -43 -21 -69.5q-21 -26.5 -53 -42.5z" />
<glyph unicode="&#291;" horiz-adv-x="500" d="M444 34q0 -88 -45.5 -150.5q-45.5 -62.5 -151.5 -90.5l-23 60q49 16 78.5 35q29.5 19 45.5 40q16 21 21 43.5q5 22.5 5 43.5v38h-2q-41 -36 -75 -48q-34 -12 -66 -12q-36 0 -69.5 13q-33.5 13 -59 42.5q-25.5 29.5 -41 77.5q-15.5 48 -15.5 119q0 64 16.5 111q16.5 47 43 78.5q26.5 31.5 60.5 47q34 15.5 69 15.5q33 0 67.5 -11.5q34.5 -11.5 67.5 -45.5l2 0v48h72zM373 366q-21 27 -53.5 49q-32.5 22 -73.5 22q-28 0 -52 -14q-24 -14 -41 -38.5q-17 -24.5 -27 -59q-10 -34.5 -10 -76.5q0 -97 33 -146q33 -49 99 -49q38 0 71.5 22q33.5 22 53.5 48zM316 708q-25 -11 -35.5 -27q-10.5 -16 -12.5 -36q1 0 3 0.5q2 0.5 4 0.5q17 0 29.5 -12.5q12.5 -12.5 12.5 -33.5q0 -22 -15 -34q-15 -12 -35 -12q-20 0 -35.5 15.5q-15.5 15.5 -15.5 47.5q0 38 23 69.5q23 31.5 60 47.5z" />
<glyph unicode="&#292;" horiz-adv-x="622" d="M480 0v305h-339v-305h-76v651h76v-276h339v276h76v-651zM311 765l-128 -76l-29 23l125 111h68l124 -112l-28 -23z" />
<glyph unicode="&#293;" horiz-adv-x="487" d="M439 0h-72v293q0 69 -27 105.5q-27 36.5 -88 36.5q-45 0 -77 -29.5q-32 -29.5 -43 -72.5q-5 -18 -5 -42v-291h-71v660l71 32v-272h3q27 41 67 59q40 18 76 18q85 0 125.5 -49.5q40.5 -49.5 40.5 -143.5zM96 765l-128 -76l-29 23l125 111h68l124 -112l-28 -23z" />
<glyph unicode="&#294;" horiz-adv-x="622" d="M480 0v305h-339v-305h-76v509h-42v50h42v92h76v-92h339v92h76v-92h45v-50h-45v-509zM480 375v134h-339l0 -134z" />
<glyph unicode="&#295;" horiz-adv-x="489" d="M439 0h-72v268q0 69 -27 105.5q-27 36.5 -88 36.5q-45 0 -77 -29.5q-32 -29.5 -43 -71.5q-5 -20 -5 -43v-266h-71v535h-42v47h42v80l71 32v-112h203v-47h-203v-140h3q27 41 67 59q40 18 76 18q85 0 125.5 -49q40.5 -49 40.5 -144z" />
<glyph unicode="&#296;" horiz-adv-x="243" d="M83 0v651h77v-651zM290 782q-17 -41 -42.5 -58q-25.5 -17 -54.5 -17q-17 0 -34.5 6q-17.5 6 -34.5 13.5q-17 7.5 -33 14q-16 6.5 -31 6.5q-17 0 -32.5 -8q-15.5 -8 -32.5 -31l-33 16q18 46 45.5 63q27.5 17 53.5 17q17 0 34 -6.5q17 -6.5 34.5 -14.5q17.5 -8 34 -14.5q16.5 -6.5 31.5 -6.5q18 0 32 7.5q14 7.5 30 29.5z" />
<glyph unicode="&#297;" horiz-adv-x="308" d="M318 652q-17 -41 -42.5 -58q-25.5 -17 -54.5 -17q-17 0 -34.5 6q-17.5 6 -34.5 13.5q-17 7.5 -33 14q-16 6.5 -31 6.5q-17 0 -32.5 -8q-15.5 -8 -32.5 -31l-33 16q18 46 45.5 63q27.5 17 53.5 17q17 0 34 -6.5q17 -6.5 34.5 -14.5q17.5 -8 34 -14.5q16.5 -6.5 31.5 -6.5q18 0 32 7.5q14 7.5 30 29.5zM113 0v487h72l0 -487z" />
<glyph unicode="&#298;" horiz-adv-x="243" d="M83 0v651h77v-651zM2 724v55h242l0 -55z" />
<glyph unicode="&#299;" horiz-adv-x="229" d="M-6 605v55h242v-55zM80 0v487h72l0 -487z" />
<glyph unicode="&#300;" horiz-adv-x="243" d="M83 0v651h77v-651zM51 811q4 -28 22 -46q18 -18 50 -18q34 0 51.5 20q17.5 20 19.5 44l54 0q-1 -18 -8 -38.5q-7 -20.5 -21.5 -37q-14.5 -16.5 -37.5 -27.5q-23 -11 -57 -11q-35 0 -59 11q-24 11 -39 27.5q-15 16.5 -21.5 37q-6.5 20.5 -7.5 38.5z" />
<glyph unicode="&#301;" horiz-adv-x="229" d="M45 682q4 -28 22 -46q18 -18 50 -18q34 0 51.5 20q17.5 20 19.5 44l54 0q-1 -18 -8 -38.5q-7 -20.5 -21.5 -37q-14.5 -16.5 -37.5 -27.5q-23 -11 -57 -11q-35 0 -59 11q-24 11 -39 27.5q-15 16.5 -21.5 37q-6.5 20.5 -7.5 38.5zM80 0v487h72l0 -487z" />
<glyph unicode="&#302;" horiz-adv-x="243" d="M143 0q-26 -33 -36.5 -57.5q-10.5 -24.5 -10.5 -43.5q0 -23 14.5 -35.5q14.5 -12.5 38.5 -12.5q22 0 52 13l15 -38q-19 -10 -39.5 -15.5q-20.5 -5.5 -41.5 -5.5q-39 0 -66 22q-27 22 -27 60q0 23 13 50.5q13 27.5 42 62.5l-14 0v651h77l0 -651z" />
<glyph unicode="&#303;" horiz-adv-x="229" d="M136 0q-26 -33 -36.5 -57.5q-10.5 -24.5 -10.5 -43.5q0 -23 14.5 -35.5q14.5 -12.5 38.5 -12.5q22 0 52 13l15 -38q-19 -10 -39.5 -15.5q-20.5 -5.5 -41.5 -5.5q-39 0 -66 22q-27 22 -27 60q0 23 13 50.5q13 27.5 42 62.5l-11 0v488h71v-488zM160 619q0 -18 -13.5 -31.5q-13.5 -13.5 -31.5 -13.5q-19 0 -32.5 13.5q-13.5 13.5 -13.5 31.5q0 19 13.5 32q13.5 13 31.5 13q19 0 32.5 -13t13.5 -32z" />
</font>
</defs>
</svg>
