<?xml version="1.0" encoding="utf-8"?>
<!-- Generator: Adobe Illustrator 19.2.1, SVG Export Plug-In . SVG Version: 6.00 Build 0)  -->
<svg version="1.1" id="Слой_3" xmlns="http://www.w3.org/2000/svg" xmlns:xlink="http://www.w3.org/1999/xlink" x="0px" y="0px"
	 viewBox="0 0 136.2 136.2" style="enable-background:new 0 0 136.2 136.2;" xml:space="preserve">
<circle style="fill:#585757;" cx="68.1" cy="68.1" r="68.1"/>
<path style="fill:none;stroke:#FFFFFF;stroke-width:2;stroke-miterlimit:10;" d="M21.8,50c0.6-2.5,17-19.6,17-19.6l14.2-9.1l6.1,8
	l13.3-8c0,0,1.5,3.7-1.6,6.8c-3.3,2.8-7.9,5.6-7.9,5.6l9.4,14.7c0,0,3.6-2.1,6.8-4.2c3.2-2.1,9.6,0.2,9.6,0.2l-12.6,9.3l30.2,43.9
	l-9.1,6.3L70.6,69c0,0-22.8,10.7-26,10.7s-4.4-2.1-4.4-2.1l23.4-17.3l-17-24.5L21.8,53.1C21.8,53.1,21.2,52.5,21.8,50z"/>
</svg>
