<svg id="Слой_2" data-name="Слой 2" xmlns="http://www.w3.org/2000/svg" viewBox="0 0 1451.34 1451.34"><defs><style>.cls-1,.cls-2{stroke:#000;stroke-miterlimit:10;}.cls-1{stroke-width:16px;}.cls-2{stroke-width:20px;}</style></defs><title>cart</title><path class="cls-1" d="M1013.62,834.41H457.42a13.91,13.91,0,0,1-13.72-11.13L331.5,290.79a13.91,13.91,0,0,1,13.58-16.92h780.78a13.91,13.91,0,0,1,13.72,16.92l-112,532.49A13.91,13.91,0,0,1,1013.62,834.41ZM468.77,806.23h533.49l106.28-504.31h-746Z"/><path class="cls-1" d="M910,473.17a13.91,13.91,0,0,1-13.91-13.91c0-355.54-119.64-355.54-158.81-355.54-134,0-162.09,193.34-162.09,355.54a14,14,0,1,1-28,0c0-317,103.39-383.59,190.14-383.59,46.21,0,186.85,0,186.85,383.59a13.91,13.91,0,0,1-13.91,13.91Z"/><path class="cls-1" d="M603.55,476.67A42.54,42.54,0,1,1,561,434.16a42.54,42.54,0,0,1,42.57,42.51Z"/><path class="cls-1" d="M952.58,476.67a42.54,42.54,0,1,1-42.71-42.51h0a42.48,42.48,0,0,1,42.51,42.46Z"/><path class="cls-2" d="M735.53,1359.56a19.78,19.78,0,0,1-14.13-5.93L555,1185.34a19.87,19.87,0,1,1,28.27-27.82l166.41,168.3a19.89,19.89,0,0,1-14.13,33.86Z"/><path class="cls-2" d="M735.53,1359.56a19.89,19.89,0,0,1-14.05-33.86l166.41-168.3a19.87,19.87,0,1,1,28.27,27.82l-166.41,168.3A19.78,19.78,0,0,1,735.53,1359.56Z"/></svg>