<svg id="Слой_1" data-name="Слой 1" xmlns="http://www.w3.org/2000/svg" viewBox="0 0 407.43 512"><title>cart</title><path d="M308,298H108.09a5,5,0,0,1-4.93-4L62.83,102.61a5,5,0,0,1,4.93-6.08H348.34a5,5,0,0,1,4.93,6.08L313,294A5,5,0,0,1,308,298ZM112.17,287.87H303.93l38.2-181.26H74Z"/><path d="M270.77,168.16a5,5,0,0,1-5-5c0-127.79-43-127.79-57.08-127.79-48.15,0-58.26,69.49-58.26,127.79a5,5,0,0,1-10.08,0c0-113.95,37.16-137.87,68.34-137.87,16.61,0,67.16,0,67.16,137.87A5,5,0,0,1,270.77,168.16Z"/><path d="M160.62,169.42a15.29,15.29,0,1,1-15.3-15.28A15.28,15.28,0,0,1,160.62,169.42Z"/><path d="M286.06,169.42a15.29,15.29,0,1,1-15.28-15.28A15.27,15.27,0,0,1,286.06,169.42Z"/><path d="M208.05,486.75a7.11,7.11,0,0,1-5.08-2.13l-59.81-60.49a7.14,7.14,0,1,1,10.16-10l59.81,60.49a7.15,7.15,0,0,1-5.08,12.17Z"/><path d="M208.05,486.75A7.15,7.15,0,0,1,203,474.58l59.81-60.49a7.14,7.14,0,1,1,10.16,10l-59.81,60.49A7.11,7.11,0,0,1,208.05,486.75Z"/></svg>