<svg id="Слой_1" data-name="Слой 1" xmlns="http://www.w3.org/2000/svg" viewBox="0 0 512 512"><defs><style>.cls-1{fill:#b3b2b2;}.cls-2{fill:#e6806b;}.cls-3{fill:#e6816b;}.cls-4{fill:#f7d8cd;}.cls-5{fill:#efad9a;}.cls-6{fill:#f2b9a8;}.cls-7{fill:#f2baa9;}.cls-8{fill:#eea895;}.cls-9{fill:#e6806a;}.cls-10{fill:#f7d6ca;}.cls-11{fill:#fff;}</style></defs><title>logo_Google_gray</title><path class="cls-1" d="M241,512.64h-1.92c-6-.81-12.12-0.8-18.17-1.18-9.4-.59-18.47-2.76-27.53-5a247.08,247.08,0,0,1-52.54-19.56A260.25,260.25,0,0,1,40.06,396.11C20.29,365.35,7.38,331.9,2.24,295.63A181.16,181.16,0,0,1,1,270.78q0-1.59,0-3.18,0-2.24,0-4.49Q1,257,1,250.88q0-2.25,0-4.49,0-1.6,0-3.19c-0.5-26.4,5.26-51.62,14.43-76.19a254.09,254.09,0,0,1,37-66.79,259.36,259.36,0,0,1,62.29-58.09C145.82,21.45,180,8.48,216.9,2.52c5.59-.9,11.26-1,16.9-1.19C240,1.07,246.13.76,252.31,1h8c21-.26,41.69,1.31,62,7a286.08,286.08,0,0,1,42.87,15.55,254.51,254.51,0,0,1,56.18,35.66A257.65,257.65,0,0,1,506.79,196.4,162.24,162.24,0,0,1,512.07,235c0,3.6.24,7.22,0.25,10.84V268c0.71,32.79-7.26,63.69-20.42,93.46a252.26,252.26,0,0,1-37.09,59.78,257.43,257.43,0,0,1-70.22,59.09,251.78,251.78,0,0,1-65.84,26.49c-12.15,3-24.4,5.18-37,5.29-2.7,0-5.5-.18-8.19.54h-1.92c-1-.65-2.18-0.17-3.27-0.32-1.25.16-2.56-.35-3.77,0.32h-16c-1.23-.67-2.56-0.16-3.83-0.32C243.54,512.48,242.21,512,241,512.64Z" transform="translate(-0.64 -0.64)"/><path class="cls-2" d="M512.06,264q0-7.09,0-14.17,0.35-.64.58,0.05V264Q512.42,264.69,512.06,264Z" transform="translate(-0.64 -0.64)"/><path class="cls-3" d="M1.22,250.52V263.4q-0.35.64-.58,0V250.57Q0.87,249.87,1.22,250.52Z" transform="translate(-0.64 -0.64)"/><path class="cls-4" d="M251.82,1.19a3.16,3.16,0,0,0,0-.55h8.95a1.56,1.56,0,0,1,0,.5Z" transform="translate(-0.64 -0.64)"/><path class="cls-5" d="M1.22,250.52l-0.58,0v-4.47q0.2-.73.53,0Z" transform="translate(-0.64 -0.64)"/><path class="cls-6" d="M512.64,249.93l-0.58-.05q0-2.24,0-4.47a2.46,2.46,0,0,1,.56.05v4.47Z" transform="translate(-0.64 -0.64)"/><path class="cls-5" d="M0.64,263.35l0.58,0-0.05,4.48q-0.33.68-.53,0v-4.47Z" transform="translate(-0.64 -0.64)"/><path class="cls-7" d="M512.06,264l0.58-.06v4.47l-0.57,0V264Z" transform="translate(-0.64 -0.64)"/><path class="cls-8" d="M241,512.64c1.11-1.15,2.47-.51,3.73-0.5l0.51,0.16-0.41.34H241Z" transform="translate(-0.64 -0.64)"/><path class="cls-9" d="M244.81,512.64a3.6,3.6,0,0,1-.1-0.5c1.34-.08,2.72-0.45,3.94.5h-3.84Z" transform="translate(-0.64 -0.64)"/><path class="cls-9" d="M264.63,512.64c1.21-1,2.59-.57,3.93-0.5q0.32,0.23.17,0.38a0.37,0.37,0,0,1-.26.12h-3.84Z" transform="translate(-0.64 -0.64)"/><path class="cls-10" d="M0.64,267.83a1.35,1.35,0,0,0,.53,0l0,3.19-0.26,0L0.64,271v-3.2Z" transform="translate(-0.64 -0.64)"/><path class="cls-10" d="M1.16,246H0.9l-0.26.05v-3.2a0.61,0.61,0,0,1,.51,0Z" transform="translate(-0.64 -0.64)"/><path class="cls-8" d="M268.46,512.64a4.12,4.12,0,0,0,.09-0.5c1.07,0,2.22-.58,3.1.5h-3.2Z" transform="translate(-0.64 -0.64)"/><path class="cls-11" d="M244.56,244.15c12.35,0,24.71.08,37.06-.07,2.47,0,3.51.52,3.84,3.11,5.13,39.33-14.61,84.9-66.42,93-44.91,7-86-18.92-97.92-61.83-13.26-47.86,19.07-98.07,68.17-105.78,26-4.08,49.42,1.71,69.78,18.82,1.8,1.51,2.3,2.37.25,4.24-6.6,6-13,12.29-19.43,18.51-1.14,1.1-1.87,1.6-3.36.3-27.74-24.07-75.75-10.4-84.42,30.93A53.17,53.17,0,0,0,194.43,309c20.63,3.91,44.62-3.24,55.1-26.06,4.4-9.58,4.4-9.58-6-9.58-12.14,0-24.28-.05-36.42,0-2.34,0-3.35-.36-3.28-3.07,0.2-7.88.15-15.76,0-23.64,0-2.14.65-2.63,2.69-2.62C219.21,244.19,231.89,244.15,244.56,244.15Z" transform="translate(-0.64 -0.64)"/><path class="cls-11" d="M393.75,262.26c0,3.09-.14,6.18,0,9.26,0.13,2.2-.49,2.93-2.79,2.87-6.28-.16-12.56,0-18.84-0.1-2.23-.05-2.91.61-2.86,2.85,0.14,6.28,0,12.56.09,18.84,0,2.1-.59,2.73-2.7,2.69-6.49-.13-13-0.11-19.48,0-1.94,0-2.58-.56-2.55-2.53,0.11-6.38,0-12.77.09-19.16,0-2.15-.68-2.72-2.74-2.68-6.38.11-12.77,0-19.16,0.09-2.07,0-2.72-.54-2.68-2.65q0.2-9.58,0-19.16c0-2.18.72-2.65,2.73-2.61,6.38,0.11,12.77,0,19.16.09,2.15,0,2.67-.68,2.64-2.71-0.12-6.38,0-12.77-.08-19.16,0-1.95.55-2.57,2.52-2.54q9.74,0.17,19.48,0c2.07,0,2.78.52,2.73,2.65-0.13,5.85-.08,11.71,0,17.56,0,4.83-.64,4.1,4.29,4.14,5.75,0,11.5.15,17.24-.05,2.5-.09,3.08.75,2.93,3.07C393.6,256.08,393.75,259.18,393.75,262.26Z" transform="translate(-0.64 -0.64)"/></svg>