<svg id="Слой_1" data-name="Слой 1" xmlns="http://www.w3.org/2000/svg" viewBox="0 0 822.77 264.32"><defs><style>.cls-1{fill:#11181f;}.cls-2{fill:#8a8a8d;}.cls-3{fill:#e02726;}.cls-4{fill:#fff;}</style></defs><title>logo</title><path class="cls-1" d="M304.5,112c-1.62,4.22-3.4,8.44-5,12.67H295.2L316,73.76h4.36l20.79,50.9h-4.2c-1.7-4.22-3.48-8.44-5.1-12.67Zm25.88-3.6-8.9-22c-1.13-2.66-2.18-5.32-3.32-8.21h-.24l-5.75,14.55-6.31,15.64Z"/><path class="cls-1" d="M375.91,124.67H372.1V101.76c0-8.76-3.48-12.67-10.59-12.67-5.5,0-9.78,4.3-11.08,9.3a13.38,13.38,0,0,0-.48,3.6v22.68h-3.73V86.43h3.73v6.8l.16.08a14.1,14.1,0,0,1,12.29-7.43c8.9,0,13.51,4.85,13.51,15.32Z"/><path class="cls-1" d="M391.18,86.51h8.49v3.05h-8.49v27.6c0,3.67,1.62,4.77,4.61,4.77a37,37,0,0,0,5.18-.55l.33,2.74a22.59,22.59,0,0,1-6.63,1c-5.5,0-7-2.89-7-7.82V89.56h-6.07V86.51h6.07V76.81l3.56-1.49Z"/><path class="cls-1" d="M438,104.88V107H409.86c.32,10.16,6,15.32,12.86,15.32a15,15,0,0,0,9.7-3.83l2.19,2.34a18,18,0,0,1-12.38,4.61c-8.33,0-16.09-6.26-16.09-19.71,0-12.27,7-19.86,16-19.86C432.18,85.88,438,93.55,438,104.88ZM422,89c-6.63,0-11.64,6.18-12.13,15.09h24.51C434.28,96,430.64,89,422,89Z"/><path class="cls-1" d="M472.37,90.42l-2.5,2.5a13.75,13.75,0,0,0-9.71-3.83c-7.44,0-11.89,7.51-11.89,16.58,0,9.38,4.53,16.5,12.21,16.5,3.73,0,6.31-1.17,9.47-3.91l2.42,2.27c-2.91,3.05-6.47,4.93-12.13,4.93-8.49,0-15.77-6.72-15.77-19.78s7.28-19.78,15.93-19.78A16.2,16.2,0,0,1,472.37,90.42Z"/><path class="cls-1" d="M508.84,124.67H505V101.76c0-8.76-3.56-12.67-10.68-12.67-5.42,0-9.78,4.38-11.08,9.46a11.86,11.86,0,0,0-.4,3.44v22.68h-3.72V73l3.72-1.64V93.08H483a14.34,14.34,0,0,1,12.29-7.19c8.9,0,13.51,4.85,13.51,15.32Z"/><path class="cls-2" d="M299.92,196.73V155h3.32v41.78Z"/><path class="cls-2" d="M336.81,196.73h-3.12v-18.8c0-7.19-2.85-10.4-8.69-10.4-4.52,0-8,3.53-9.09,7.64a10.8,10.8,0,0,0-.4,3v18.61h-3.05V165.35h3.05v5.58l.13.06a11.57,11.57,0,0,1,10.09-6.1c7.29,0,11.08,4,11.08,12.58Z"/><path class="cls-2" d="M367.74,196.73h-3.12v-18.8c0-7.19-2.85-10.4-8.69-10.4-4.52,0-8,3.53-9.09,7.64a10.8,10.8,0,0,0-.4,3v18.61h-3.05V165.35h3.05v5.58l.13.06a11.57,11.57,0,0,1,10.09-6.1c7.29,0,11.08,4,11.08,12.58Z"/><path class="cls-2" d="M387.12,197.37c-7.56,0-13.34-6-13.34-16.3,0-10.72,5.77-16.17,13.53-16.17s13.6,5.84,13.6,16C400.93,191.4,395,197.37,387.12,197.37Zm0-29.9c-6.77,0-10.22,6.16-10.22,13.41,0,8.21,3.85,13.86,10.55,13.86s10.42-6.42,10.42-13.67C397.87,173.5,394.42,167.47,387.12,167.47Z"/><path class="cls-2" d="M416.66,196.73l-11.81-31.32h3.25c2.26,6.29,4.51,12.45,6.83,18.67l3.25,9h.13l3.18-9,6.7-18.67h3.19c-3.92,10.46-7.77,20.86-11.62,31.32Z"/><path class="cls-2" d="M456.67,193.07h-.06a14.87,14.87,0,0,1-11.08,4.24c-5,0-10.48-2.63-10.48-9.56,0-5.71,4.38-9.95,11.88-9.95a19,19,0,0,1,9.75,2.5v-5c0-5.58-3.05-7.77-8.56-7.77a20.92,20.92,0,0,0-8.56,2L438.5,167a24.09,24.09,0,0,1,10-2.12c7.17,0,11.21,3.27,11.21,9.75v22.08h-3.05Zm-9.89-12.9c-4.91,0-8.76,2.63-8.76,7.44s3.12,7.32,8.43,7.32a15.2,15.2,0,0,0,10.22-4.88v-7.19A19.39,19.39,0,0,0,446.79,180.17Z"/><path class="cls-2" d="M472.74,165.41h7v2.5h-7v22.65c0,3,1.33,3.91,3.78,3.91a30,30,0,0,0,4.25-.45l.27,2.25a18.45,18.45,0,0,1-5.44.83c-4.52,0-5.77-2.37-5.77-6.41V167.92h-5v-2.5h5v-8l2.92-1.22Z"/><path class="cls-2" d="M489.07,158.68a2.12,2.12,0,0,1-2.12-2.12,2,2,0,0,1,2.06-2,2.11,2.11,0,0,1,2.19,2A2.16,2.16,0,0,1,489.07,158.68Zm-1.53,38.05V165.35h3.05v31.38Z"/><path class="cls-2" d="M508.84,196.73,497,165.41h3.25c2.26,6.29,4.51,12.45,6.83,18.67l3.25,9h.13l3.18-9,6.7-18.67h3.19c-3.92,10.46-7.77,20.86-11.62,31.32Z"/><path class="cls-2" d="M552.64,180.5v1.73H529.55c.26,8.34,4.91,12.58,10.55,12.58a12.33,12.33,0,0,0,8-3.14l1.79,1.92a14.74,14.74,0,0,1-10.15,3.78c-6.84,0-13.21-5.13-13.21-16.17,0-10.07,5.71-16.3,13.14-16.3C547.87,164.9,552.64,171.19,552.64,180.5Zm-13.14-13c-5.44,0-9.55,5.07-9.95,12.38h20.1C549.59,173.18,546.6,167.47,539.5,167.47Z"/><path class="cls-2" d="M575.81,165.35v3.6h.06a13.8,13.8,0,0,1,10-4c6.11,0,12.28,4.81,12.28,15.85,0,12.13-7,16.56-13.27,16.56-2.66,0-5.64-.58-9.09-3.85h-.07v13.86l-3,1.35V165.35Zm-.07,24.58c2,2.57,5.57,4.82,8.89,4.82,6.7,0,10.55-5.33,10.55-14.12,0-7.7-4.11-13.22-9.75-13.22a12.62,12.62,0,0,0-9.69,4.82Z"/><path class="cls-2" d="M625.12,193.07h-.06A14.88,14.88,0,0,1,614,197.31c-5,0-10.48-2.63-10.48-9.56,0-5.71,4.38-9.95,11.88-9.95a19,19,0,0,1,9.75,2.5v-5c0-5.58-3.05-7.77-8.56-7.77a20.92,20.92,0,0,0-8.56,2l-1.06-2.5a24.09,24.09,0,0,1,10-2.12c7.17,0,11.21,3.27,11.21,9.75v22.08h-3.05Zm-9.89-12.9c-4.91,0-8.76,2.63-8.76,7.44s3.12,7.32,8.42,7.32a15.18,15.18,0,0,0,10.22-4.88v-7.19A19.39,19.39,0,0,0,615.23,180.17Z"/><path class="cls-2" d="M657.64,168.62l-2.06,2.05a11.25,11.25,0,0,0-8-3.14c-6.1,0-9.75,6.16-9.75,13.6,0,7.7,3.71,13.54,10,13.54,3,0,5.17-1,7.76-3.21l2,1.86a12.65,12.65,0,0,1-10,4c-7,0-12.94-5.51-12.94-16.23s6-16.23,13.07-16.23A13.29,13.29,0,0,1,657.64,168.62Z"/><path class="cls-2" d="M674.1,178.12l-7.9,9.88v8.73h-3.05V154.38l3.05-1.35V183.7h.06c1.66-2.05,4.12-5.32,5.64-7.19,3-3.66,5.9-7.37,8.89-11.1h3.78c-2.78,3.4-5.5,6.87-8.29,10.33l9.69,21H682.6Z"/><path class="cls-2" d="M710.73,193.07h-.06a14.88,14.88,0,0,1-11.08,4.24c-5,0-10.48-2.63-10.48-9.56,0-5.71,4.38-9.95,11.88-9.95a19,19,0,0,1,9.75,2.5v-5c0-5.58-3.05-7.77-8.56-7.77a20.92,20.92,0,0,0-8.56,2l-1.06-2.5a24.09,24.09,0,0,1,10-2.12c7.17,0,11.21,3.27,11.21,9.75v22.08h-3.05Zm-9.89-12.9c-4.91,0-8.76,2.63-8.76,7.44s3.12,7.32,8.42,7.32a15.18,15.18,0,0,0,10.22-4.88v-7.19A19.39,19.39,0,0,0,700.85,180.17Z"/><path class="cls-2" d="M733.83,209.75l-1.06-2.5c8-2.83,10-7.13,10-11.36v-3h-.07c-4.11,3.66-7.76,4.3-10.22,4.3-6.3,0-12.14-4-12.14-16.3,0-10.91,6.5-16,12.34-16a12.65,12.65,0,0,1,10,4.11h.06v-3.6h3.12v29.52C745.84,202,742.26,207.13,733.83,209.75Zm9-20.08V172.35a12.79,12.79,0,0,0-9.56-4.95c-5.57,0-9.82,5.71-9.82,13.28,0,8.66,3.05,14.06,9.76,14.06C736.82,194.74,740.8,192.17,742.79,189.67Z"/><path class="cls-2" d="M756.4,158.68a2.12,2.12,0,0,1-2.12-2.12,2,2,0,0,1,2.06-2,2.11,2.11,0,0,1,2.19,2A2.16,2.16,0,0,1,756.4,158.68Zm-1.53,38.05V165.35h3.05v31.38Z"/><path class="cls-2" d="M791.18,196.73h-3.12v-18.8c0-7.19-2.85-10.4-8.69-10.4-4.52,0-8,3.53-9.09,7.64a10.8,10.8,0,0,0-.4,3v18.61h-3.05V165.35h3.05v5.58l.13.06a11.57,11.57,0,0,1,10.09-6.1c7.29,0,11.08,4,11.08,12.58Z"/><path class="cls-2" d="M810.76,209.75l-1.06-2.5c8-2.83,10-7.13,10-11.36v-3h-.07c-4.11,3.66-7.76,4.3-10.22,4.3-6.3,0-12.14-4-12.14-16.3,0-10.91,6.5-16,12.34-16a12.65,12.65,0,0,1,10,4.11h.06v-3.6h3.12v29.52C822.77,202,819.19,207.13,810.76,209.75Zm9-20.08V172.35a12.79,12.79,0,0,0-9.56-4.95c-5.57,0-9.82,5.71-9.82,13.28,0,8.66,3.05,14.06,9.76,14.06C813.75,194.74,817.72,192.17,819.72,189.67Z"/><polygon class="cls-3" points="0.66 198.8 0 66.64 118.06 0 236.78 65.53 237.44 197.69 119.38 264.32 0.66 198.8"/><path class="cls-4" d="M157.14,177.93H183l-2.15-4.11v-.06h0v0L127.49,72.24h0l-9.57-18.57L106.52,77.1l-.52,1h0L95.54,99.07C86.31,117.21,77.11,136,75,140.17l0,.12L60.84,168.42l-6.42,12.68L66,177.95v0l80.22-22.14,1.21,2.43h0l6.05,12.2c.07.15.18.37.33.66ZM95.7,147.35l12.64-24.81,10.24-19.92L136.31,137Z"/></svg>