<?xml version="1.0" encoding="utf-8"?>
<!-- Generator: Adobe Illustrator 19.1.0, SVG Export Plug-In . SVG Version: 6.00 Build 0)  -->
<svg version="1.1" id="_x2014_лой_x5F_1" xmlns="http://www.w3.org/2000/svg" xmlns:xlink="http://www.w3.org/1999/xlink"
	 x="0px" y="0px" viewBox="0 0 570.6 528.4" style="enable-background:new 0 0 570.6 528.4;" xml:space="preserve">
<path style="fill:#E8E8E8;stroke:#FFFFFF;stroke-miterlimit:10;" d="M510.7,81.1H51.2c-8.3,0-15.1-6.7-15.1-15.1V15.6
	c0-8.3,6.7-15.1,15.1-15.1h459.5c8.3,0,15.1,6.7,15.1,15.1V66C525.7,74.3,519,81.1,510.7,81.1z"/>
<g>
	<text transform="matrix(1 0 0 1 132.1051 34.2042)"><tspan x="0" y="0" style="font-family:'PFHighwaySansPro-Regular'; font-size:23.7846px;">Выбрать и заказать упаковку</tspan><tspan x="48.8" y="28.5" style="font-family:'PFHighwaySansPro-Regular'; font-size:23.7846px;">из онлайн-каталога</tspan></text>
</g>
<text transform="matrix(1 7.920001e-03 -7.920001e-03 1 67.9092 52.1094)" style="font-family:'PFHighwaySansPro-Regular'; font-size:41.8622px;">1</text>
<path style="fill:#399110;" d="M441.7,467.8h-90.4c-6.1,0-11.1-4.9-11.1-11.1v-90.4c0-6.1,4.9-11.1,11.1-11.1h90.4
	c6.1,0,11.1,4.9,11.1,11.1v90.4C452.8,462.9,447.8,467.8,441.7,467.8z"/>
<g>
	<g>
		
			<line style="fill:none;stroke:#FFFFFF;stroke-width:2;stroke-linecap:round;stroke-linejoin:round;stroke-miterlimit:10;" x1="396.8" y1="424.5" x2="419.6" y2="424.5"/>
		<path style="fill:none;stroke:#FFFFFF;stroke-width:2;stroke-linecap:round;stroke-linejoin:round;stroke-miterlimit:10;" d="
			M386,424.5c0,0-0.1,0-4.2,0c-4.1,0-5.8-3-5.8-5.4c0-7,0-18.8,0-19.5c0-0.8-0.6-6.4,6.1-6.4c2.2,0,24.3,0,31.7,0
			c3.8,0,8.5,4.1,8.5,4.1l17,12.8c0,0,2.5,1.4,1.8,5.3c0,2.7,0,3.3,0,3.3s0.6,5.8-5,5.8c-5.7,0-5.7,0-5.7,0"/>
		<g>
			<path style="fill:#FFFFFF;" d="M391.4,421.1c1.9,0,3.4,1.5,3.4,3.4c0,1.9-1.5,3.4-3.4,3.4c-1.9,0-3.4-1.5-3.4-3.4
				C388,422.6,389.5,421.1,391.4,421.1 M391.4,419.1c-3,0-5.4,2.4-5.4,5.4c0,3,2.4,5.4,5.4,5.4c3,0,5.4-2.4,5.4-5.4
				C396.8,421.5,394.4,419.1,391.4,419.1L391.4,419.1z"/>
		</g>
		<g>
			<path style="fill:#FFFFFF;" d="M425.1,421.1c1.9,0,3.4,1.5,3.4,3.4c0,1.9-1.5,3.4-3.4,3.4c-1.9,0-3.4-1.5-3.4-3.4
				C421.6,422.6,423.2,421.1,425.1,421.1 M425.1,419.1c-3,0-5.4,2.4-5.4,5.4c0,3,2.4,5.4,5.4,5.4c3,0,5.4-2.4,5.4-5.4
				C430.5,421.5,428,419.1,425.1,419.1L425.1,419.1z"/>
		</g>
	</g>
	
		<line style="fill:none;stroke:#FFFFFF;stroke-width:2;stroke-linecap:round;stroke-linejoin:round;stroke-miterlimit:10;" x1="360.1" y1="399.8" x2="372.4" y2="399.8"/>
	
		<line style="fill:none;stroke:#FFFFFF;stroke-width:2;stroke-linecap:round;stroke-linejoin:round;stroke-miterlimit:10;" x1="347.6" y1="407.1" x2="372.4" y2="407.1"/>
	
		<line style="fill:none;stroke:#FFFFFF;stroke-width:2;stroke-linecap:round;stroke-linejoin:round;stroke-miterlimit:10;" x1="358.9" y1="413.7" x2="372.4" y2="413.7"/>
</g>
<g>
	<g>
		<path style="fill:none;stroke:#585858;stroke-linecap:round;stroke-linejoin:round;stroke-dasharray:1,5;" d="M516,185.5h27.6
			c14.7,0,26.6,11.9,26.6,26.6v91.8c0,14.7-11.9,26.6-26.6,26.6l-426.2-2.8c-14.7,0-26.6,11.9-26.6,26.6v35.2
			c0,14.7,11.9,26.6,26.6,26.6h12.2"/>
		<g>
			<polygon style="fill:#585858;" points="126.3,419.9 125.6,419.2 129.2,415.8 125.6,412.5 126.3,411.7 130.7,415.8 			"/>
		</g>
	</g>
</g>
<g>
	<g>
		<path style="fill:none;stroke:#585858;stroke-linecap:round;stroke-linejoin:round;stroke-dasharray:1,5;" d="M277.7,186.3
			c0,0,125,0,139.9,0"/>
		<g>
			<polygon style="fill:#585858;" points="414.3,190.4 413.6,189.6 417.2,186.3 413.6,182.9 414.3,182.2 418.7,186.3 			"/>
		</g>
	</g>
</g>
<g>
	<g>
		<path style="fill:none;stroke:#585858;stroke-linecap:round;stroke-linejoin:round;stroke-dasharray:1,5;" d="M183,415.6
			c0,0,125,0,139.9,0"/>
		<g>
			<polygon style="fill:#585858;" points="319.6,419.7 318.9,419 322.5,415.6 318.9,412.3 319.6,411.6 324,415.6 			"/>
		</g>
	</g>
</g>
<g>
	<g>
		<path style="fill:none;stroke:#585858;stroke-linecap:round;stroke-linejoin:round;stroke-dasharray:1,5;" d="M86.7,186.3
			c0,0,125,0,139.9,0"/>
		<g>
			<polygon style="fill:#585858;" points="223.3,190.4 222.6,189.6 226.3,186.3 222.6,182.9 223.3,182.2 227.7,186.3 			"/>
		</g>
	</g>
</g>
<text transform="matrix(1 0 0 1 -0.3962 269.9917)"><tspan x="0" y="0" style="font-family:'PFHighwaySansPro-Regular'; font-size:19.7902px;">Выбираете конструкцию</tspan><tspan x="54.3" y="23.7" style="font-family:'PFHighwaySansPro-Regular'; font-size:19.7902px;">из каталога</tspan></text>
<text transform="matrix(1 0 0 1 225.5391 270.5912)"><tspan x="0" y="0" style="font-family:'PFHighwaySansPro-Regular'; font-size:19.6024px;">Задаете размеры</tspan><tspan x="-7.5" y="23.5" style="font-family:'PFHighwaySansPro-Regular'; font-size:19.6024px;">и выбираете опции</tspan></text>
<text transform="matrix(1 0 0 1 418.215 270.5795)"><tspan x="0" y="0" style="font-family:'PFHighwaySansPro-Regular'; font-size:19.6024px;">Согласовываем</tspan><tspan x="11.1" y="23.5" style="font-family:'PFHighwaySansPro-Regular'; font-size:19.6024px;">графическое</tspan><tspan x="12.7" y="47" style="font-family:'PFHighwaySansPro-Regular'; font-size:19.6024px;">оформление</tspan></text>
<g>
	<text transform="matrix(1 0 0 1 130.2576 499.804)"><tspan x="0" y="0" style="font-family:'PFHighwaySansPro-Regular'; font-size:19.7313px;">Изготавливаем</tspan><tspan x="22.2" y="23.7" style="font-family:'PFHighwaySansPro-Regular'; font-size:19.7313px;">ваш заказ</tspan></text>
</g>
<path style="fill:#5C6E7F;" d="M239.6,466.1h-90.1c-6.1,0-11-4.9-11-11V365c0-6.1,4.9-11,11-11h90.1c6.1,0,11,4.9,11,11v90.1
	C250.6,461.2,245.7,466.1,239.6,466.1z"/>
<g>
	<path style="fill:none;stroke:#FFFFFF;stroke-width:2;stroke-linecap:round;stroke-linejoin:round;stroke-miterlimit:10;" d="
		M174.7,376.3c0.2,0.1,0.4,0.2,0.6,0.3c1.2,0.8,2.4,1.6,3.6,2.5c0.4,0.3,0.8,0.3,1.2,0.1c0.7-0.3,1.5-0.6,2.2-0.9
		c0.4-0.2,0.7-0.4,0.7-0.9c0.3-1.5,0.5-2.9,0.8-4.4c0.1-0.6,0.5-0.9,1.1-0.9c1.9,0,3.8,0,5.7,0c0.6,0,1,0.3,1.1,0.9
		c0.3,1.5,0.5,2.9,0.8,4.4c0.1,0.4,0.3,0.7,0.7,0.8c0.8,0.3,1.5,0.6,2.2,0.9c0.4,0.2,0.8,0.2,1.1-0.1c1.2-0.8,2.4-1.7,3.6-2.5
		c0.6-0.4,1-0.3,1.4,0.1c1.3,1.3,2.7,2.7,4,4c0.5,0.5,0.5,0.9,0.1,1.4c-0.8,1.2-1.7,2.4-2.5,3.6c-0.3,0.4-0.3,0.8-0.1,1.2
		c0.2,0.5,0.4,1,0.6,1.5c0.1,0.3,0.2,0.5,0.3,0.8c0.1,0.4,0.4,0.5,0.8,0.6c1.2,0.2,2.4,0.5,3.6,0.7c0.3,0.1,0.6,0.1,0.9,0.2
		c0.5,0.1,0.8,0.5,0.8,1c0,2,0,3.9,0,5.9c0,0.5-0.3,0.9-0.8,1c-1.5,0.3-3,0.6-4.5,0.9c-0.4,0.1-0.6,0.3-0.7,0.6
		c-0.3,0.8-0.7,1.6-1,2.4c-0.2,0.4-0.1,0.7,0.1,1.1c0.8,1.2,1.7,2.5,2.5,3.7c0.4,0.5,0.3,1-0.1,1.4c-1.3,1.3-2.7,2.7-4,4
		c-0.5,0.5-0.9,0.5-1.4,0.1c-0.8-0.5-1.6-1.1-2.4-1.6c-0.4-0.3-0.8-0.6-1.2-0.8c-0.4-0.3-0.8-0.3-1.2-0.1c-0.7,0.3-1.5,0.7-2.3,0.9
		c-0.4,0.2-0.6,0.4-0.7,0.8c-0.1,0.5-0.2,1.1-0.3,1.6c-0.1,0.5-0.2,1-0.3,1.5c-0.1,0.4-0.1,0.9-0.2,1.3c-0.1,0.6-0.4,0.9-1.1,0.9
		c-1.9,0-3.8,0-5.8,0c-0.6,0-1-0.3-1.1-0.9c-0.3-1.5-0.6-2.9-0.8-4.4c-0.1-0.4-0.3-0.7-0.7-0.8c-0.8-0.3-1.5-0.6-2.3-0.9
		c-0.4-0.2-0.7-0.2-1.1,0.1c-1.2,0.8-2.4,1.7-3.7,2.5c-0.6,0.4-1,0.3-1.4-0.1c-1.3-1.3-2.7-2.7-4-4c-0.5-0.5-0.5-0.9-0.1-1.4
		c0.8-1.2,1.7-2.4,2.5-3.6c0.3-0.4,0.3-0.7,0.1-1.2c-0.3-0.7-0.6-1.5-0.9-2.2c-0.2-0.4-0.4-0.7-0.8-0.7c-1.5-0.3-2.9-0.6-4.4-0.8
		c-0.5-0.1-0.8-0.5-0.8-1c0-2,0-3.9,0-5.9c0-0.5,0.3-0.9,0.8-1c1.5-0.3,2.9-0.6,4.4-0.8c0.5-0.1,0.8-0.3,0.9-0.8
		c0.3-0.7,0.6-1.4,0.9-2.1c0.2-0.4,0.2-0.8-0.1-1.1c-0.8-1.2-1.7-2.5-2.5-3.7c-0.4-0.5-0.3-0.9,0.1-1.4c1.4-1.4,2.7-2.7,4.1-4.1
		C174.1,376.5,174.4,376.3,174.7,376.3z M187.7,405.4c6.1,0,11-4.8,11-10.7c0-5.9-4.8-10.8-10.7-10.8c-3,0-5.5,1-7.6,3.1
		c-2.6,2.6-3.6,5.8-3,9.4c0.3,2.2,1.4,4.2,3,5.8C182.4,404.3,184.9,405.4,187.7,405.4z"/>
	<path style="fill:none;stroke:#FFFFFF;stroke-width:2;stroke-linecap:round;stroke-linejoin:round;stroke-miterlimit:10;" d="
		M187.7,405.4c-2.7-0.1-5.3-1.1-7.4-3.2c-1.6-1.6-2.7-3.5-3-5.8c-0.5-3.6,0.4-6.8,3-9.4c2.1-2.1,4.7-3.1,7.6-3.1
		c5.9,0,10.7,4.8,10.7,10.8C198.6,400.6,193.8,405.4,187.7,405.4z"/>
	<path style="fill:none;stroke:#FFFFFF;stroke-width:2;stroke-linecap:round;stroke-linejoin:round;stroke-miterlimit:10;" d="
		M200.4,416.7c0.2,0,0.3,0.1,0.5,0.1c0.9,0.4,1.9,0.8,2.8,1.2c0.3,0.1,0.6,0.1,0.8-0.1c0.4-0.3,0.9-0.6,1.4-0.9
		c0.3-0.2,0.4-0.4,0.4-0.7c0-1,0-2.1,0-3.1c0-0.4,0.2-0.7,0.6-0.8c1.3-0.3,2.6-0.5,3.9-0.8c0.4-0.1,0.7,0.1,0.9,0.5
		c0.4,1,0.8,1.9,1.2,2.9c0.1,0.3,0.3,0.4,0.6,0.5c0.6,0.1,1.1,0.2,1.7,0.3c0.3,0.1,0.6,0,0.8-0.2c0.7-0.7,1.4-1.5,2.2-2.2
		c0.3-0.3,0.6-0.4,1-0.1c1.1,0.7,2.2,1.5,3.3,2.2c0.4,0.3,0.5,0.5,0.3,1c-0.4,0.9-0.8,1.9-1.2,2.8c-0.1,0.3-0.1,0.6,0.1,0.8
		c0.2,0.3,0.4,0.6,0.6,0.9c0.1,0.2,0.2,0.3,0.3,0.5c0.1,0.2,0.4,0.3,0.6,0.3c0.9,0,1.7,0,2.6,0c0.2,0,0.4,0,0.6,0
		c0.4,0,0.6,0.2,0.7,0.6c0.3,1.3,0.5,2.7,0.8,4c0.1,0.4-0.1,0.7-0.4,0.8c-1,0.4-2,0.8-3,1.2c-0.2,0.1-0.4,0.3-0.4,0.5
		c-0.1,0.6-0.2,1.2-0.4,1.8c-0.1,0.3,0,0.5,0.2,0.7c0.7,0.7,1.5,1.5,2.2,2.2c0.3,0.3,0.4,0.6,0.1,1c-0.7,1.1-1.5,2.2-2.2,3.3
		c-0.3,0.4-0.5,0.5-1,0.3c-0.6-0.3-1.3-0.5-1.9-0.8c-0.3-0.1-0.6-0.3-0.9-0.4c-0.3-0.1-0.6-0.1-0.8,0.1c-0.5,0.3-0.9,0.7-1.4,1
		c-0.3,0.2-0.4,0.4-0.4,0.7c0,0.4,0,0.8,0,1.2c0,0.4,0,0.7,0,1.1c0,0.3,0,0.6,0,0.9c0,0.4-0.2,0.7-0.6,0.8c-1.3,0.3-2.6,0.5-4,0.8
		c-0.4,0.1-0.7-0.1-0.9-0.5c-0.4-1-0.8-1.9-1.2-2.9c-0.1-0.3-0.3-0.4-0.6-0.5c-0.6-0.1-1.1-0.2-1.7-0.3c-0.3-0.1-0.5,0-0.7,0.2
		c-0.7,0.7-1.5,1.5-2.2,2.2c-0.3,0.3-0.6,0.4-1,0.1c-1.1-0.7-2.2-1.5-3.3-2.2c-0.4-0.3-0.5-0.5-0.3-1c0.4-0.9,0.8-1.9,1.2-2.8
		c0.1-0.3,0.1-0.5-0.1-0.8c-0.3-0.5-0.6-0.9-0.9-1.4c-0.2-0.3-0.4-0.4-0.7-0.4c-1.1,0-2.1,0-3.2,0c-0.4,0-0.6-0.2-0.7-0.6
		c-0.3-1.4-0.5-2.7-0.8-4.1c-0.1-0.4,0.1-0.6,0.4-0.8c1-0.4,1.9-0.8,2.9-1.2c0.3-0.1,0.5-0.3,0.5-0.7c0.1-0.5,0.2-1,0.3-1.5
		c0.1-0.3,0-0.6-0.2-0.8c-0.7-0.7-1.5-1.5-2.2-2.2c-0.3-0.3-0.4-0.6-0.1-1c0.7-1.1,1.5-2.2,2.2-3.3
		C200,416.9,200.1,416.7,200.4,416.7z M213.3,434.9c4.2-0.8,6.9-4.8,6.1-8.9c-0.8-4.1-4.8-6.8-8.8-6c-2,0.4-3.7,1.5-4.8,3.2
		c-1.4,2.2-1.7,4.5-0.8,6.9c0.5,1.5,1.5,2.7,2.8,3.6C209.5,434.9,211.4,435.3,213.3,434.9z"/>
	<path style="fill:none;stroke:#FFFFFF;stroke-width:2;stroke-linecap:round;stroke-linejoin:round;stroke-miterlimit:10;" d="
		M213.3,434.9c-1.9,0.3-3.8,0-5.5-1.2c-1.3-0.9-2.3-2.1-2.8-3.6c-0.9-2.4-0.6-4.7,0.8-6.9c1.1-1.7,2.8-2.8,4.8-3.2
		c4.1-0.8,8,1.9,8.8,6C220.1,430.1,217.5,434.1,213.3,434.9z"/>
</g>
<g>
	<text transform="matrix(1 0 0 1 295.1631 499.6927)"><tspan x="0" y="0" style="font-family:'PFHighwaySansPro-Regular'; font-size:19.7313px;">Доставляем заказ или</tspan><tspan x="4.7" y="23.7" style="font-family:'PFHighwaySansPro-Regular'; font-size:19.7313px;">отгружаем со склада</tspan></text>
</g>
<path style="fill:#F7C800;" d="M148.1,242.1H58.4c-6.1,0-11-4.9-11-11v-89.7c0-6.1,4.9-11,11-11h89.7c6.1,0,11,4.9,11,11v89.7
	C159.1,237.2,154.2,242.1,148.1,242.1z"/>
<g>
	
		<polygon style="fill:none;stroke:#FFFFFF;stroke-width:2;stroke-linecap:round;stroke-linejoin:round;stroke-miterlimit:10;" points="
		91.4,174.6 127.5,189.1 116.8,193.1 131.4,207 125.7,212.5 111.4,199 107,209.5 	"/>
	
		<line style="fill:none;stroke:#FFFFFF;stroke-width:2;stroke-linecap:round;stroke-linejoin:round;stroke-miterlimit:10;" x1="100.6" y1="168.6" x2="106.6" y2="162.9"/>
	
		<line style="fill:none;stroke:#FFFFFF;stroke-width:2;stroke-linecap:round;stroke-linejoin:round;stroke-miterlimit:10;" x1="93.2" y1="165.7" x2="93.2" y2="157.6"/>
	
		<line style="fill:none;stroke:#FFFFFF;stroke-width:2;stroke-linecap:round;stroke-linejoin:round;stroke-miterlimit:10;" x1="85" y1="167.9" x2="78" y2="160.1"/>
	
		<line style="fill:none;stroke:#FFFFFF;stroke-width:2;stroke-linecap:round;stroke-linejoin:round;stroke-miterlimit:10;" x1="85" y1="174.6" x2="75.1" y2="174.6"/>
	
		<line style="fill:none;stroke:#FFFFFF;stroke-width:2;stroke-linecap:round;stroke-linejoin:round;stroke-miterlimit:10;" x1="87" y1="182" x2="80.1" y2="189.5"/>
</g>
<path style="fill:#21A2CE;" d="M343.2,242.1h-89.7c-6.1,0-11-4.9-11-11v-89.7c0-6.1,4.9-11,11-11h89.7c6.1,0,11,4.9,11,11v89.7
	C354.2,237.2,349.2,242.1,343.2,242.1z"/>
<path style="fill:#6A0084;" d="M528.3,241.5h-89.7c-6.1,0-11-4.9-11-11v-89.7c0-6.1,4.9-11,11-11h89.7c6.1,0,11,4.9,11,11v89.7
	C539.3,236.6,534.4,241.5,528.3,241.5z"/>
<g>
	<g>
		
			<line style="fill:none;stroke:#FFFFFF;stroke-width:2;stroke-linecap:round;stroke-linejoin:round;stroke-miterlimit:10;" x1="297.9" y1="170.4" x2="297.9" y2="197.7"/>
		
			<line style="fill:none;stroke:#FFFFFF;stroke-width:2;stroke-linecap:round;stroke-linejoin:round;stroke-miterlimit:10;" x1="290.3" y1="180.5" x2="290.3" y2="197.7"/>
		
			<line style="fill:none;stroke:#FFFFFF;stroke-width:2;stroke-linecap:round;stroke-linejoin:round;stroke-miterlimit:10;" x1="282.7" y1="180.5" x2="282.7" y2="197.7"/>
		
			<line style="fill:none;stroke:#FFFFFF;stroke-width:2;stroke-linecap:round;stroke-linejoin:round;stroke-miterlimit:10;" x1="275.1" y1="180.5" x2="275.1" y2="197.7"/>
		
			<line style="fill:none;stroke:#FFFFFF;stroke-width:2;stroke-linecap:round;stroke-linejoin:round;stroke-miterlimit:10;" x1="267.3" y1="180.5" x2="267.3" y2="197.7"/>
		
			<line style="fill:none;stroke:#FFFFFF;stroke-width:2;stroke-linecap:round;stroke-linejoin:round;stroke-miterlimit:10;" x1="259.8" y1="170.4" x2="259.8" y2="197.7"/>
		
			<line style="fill:none;stroke:#FFFFFF;stroke-width:2;stroke-linecap:round;stroke-linejoin:round;stroke-miterlimit:10;" x1="297.9" y1="197.7" x2="259.8" y2="197.7"/>
	</g>
	<g>
		
			<line style="fill:none;stroke:#FFFFFF;stroke-width:2;stroke-linecap:round;stroke-linejoin:round;stroke-miterlimit:10;" x1="336" y1="170.4" x2="336" y2="197.7"/>
		
			<line style="fill:none;stroke:#FFFFFF;stroke-width:2;stroke-linecap:round;stroke-linejoin:round;stroke-miterlimit:10;" x1="328.4" y1="180.5" x2="328.4" y2="197.7"/>
		
			<line style="fill:none;stroke:#FFFFFF;stroke-width:2;stroke-linecap:round;stroke-linejoin:round;stroke-miterlimit:10;" x1="320.8" y1="180.5" x2="320.8" y2="197.7"/>
		
			<line style="fill:none;stroke:#FFFFFF;stroke-width:2;stroke-linecap:round;stroke-linejoin:round;stroke-miterlimit:10;" x1="313.2" y1="180.5" x2="313.2" y2="197.7"/>
		
			<line style="fill:none;stroke:#FFFFFF;stroke-width:2;stroke-linecap:round;stroke-linejoin:round;stroke-miterlimit:10;" x1="305.4" y1="180.5" x2="305.4" y2="197.7"/>
		
			<line style="fill:none;stroke:#FFFFFF;stroke-width:2;stroke-linecap:round;stroke-linejoin:round;stroke-miterlimit:10;" x1="297.9" y1="170.4" x2="297.9" y2="197.7"/>
		
			<line style="fill:none;stroke:#FFFFFF;stroke-width:2;stroke-linecap:round;stroke-linejoin:round;stroke-miterlimit:10;" x1="336" y1="197.7" x2="297.9" y2="197.7"/>
	</g>
</g>
<rect x="475.4" y="165.2" style="fill:none;stroke:#FFFFFF;stroke-width:2;stroke-linecap:round;stroke-linejoin:round;stroke-miterlimit:10;" width="17.8" height="23.8"/>
<path style="fill:none;stroke:#FFFFFF;stroke-width:2;stroke-linecap:round;stroke-linejoin:round;stroke-miterlimit:10;" d="
	M475.4,165.2v-5.5c0-1.9,1.5-3.4,3.4-3.4h11c1.9,0,3.4,1.5,3.4,3.4v5.5"/>
<line style="fill:none;stroke:#FFFFFF;stroke-width:2;stroke-linecap:round;stroke-linejoin:round;stroke-miterlimit:10;" x1="475.4" y1="189" x2="484.2" y2="205.8"/>
<line style="fill:none;stroke:#FFFFFF;stroke-width:2;stroke-linecap:round;stroke-linejoin:round;stroke-miterlimit:10;" x1="493.2" y1="189" x2="484.2" y2="205.8"/>
<line style="fill:none;stroke:#FFFFFF;stroke-width:2;stroke-linecap:round;stroke-linejoin:round;stroke-miterlimit:10;" x1="479.8" y1="197.4" x2="488.6" y2="197.4"/>
<line style="fill:none;stroke:#FFFFFF;stroke-width:2;stroke-linecap:round;stroke-linejoin:round;stroke-miterlimit:10;" x1="480.7" y1="165.2" x2="480.7" y2="189"/>
<line style="fill:none;stroke:#FFFFFF;stroke-width:2;stroke-linecap:round;stroke-linejoin:round;stroke-miterlimit:10;" x1="487.3" y1="165.2" x2="487.3" y2="189"/>
<circle style="fill:none;stroke:#FFFFFF;stroke-width:2;stroke-linecap:round;stroke-linejoin:round;stroke-miterlimit:10;" cx="450.1" cy="178.6" r="3.5"/>
<circle style="fill:none;stroke:#FFFFFF;stroke-width:2;stroke-linecap:round;stroke-linejoin:round;stroke-miterlimit:10;" cx="518.3" cy="178.6" r="3.5"/>
<path style="fill:none;stroke:#FFFFFF;stroke-width:2;stroke-linecap:round;stroke-linejoin:round;stroke-miterlimit:10;" d="
	M518.3,182.1c0,18.8-15.2,34.1-34.1,34.1s-34.1-15.2-34.1-34.1"/>
<circle style="fill:#6A0084;stroke:#FFFFFF;stroke-width:2;stroke-miterlimit:10;" cx="485" cy="216.2" r="3.5"/>
</svg>
