<?xml version="1.0" encoding="utf-8"?>
<!-- Generator: Adobe Illustrator 19.1.0, SVG Export Plug-In . SVG Version: 6.00 Build 0)  -->
<svg version="1.1" id="_x2014_лой_x5F_1" xmlns="http://www.w3.org/2000/svg" xmlns:xlink="http://www.w3.org/1999/xlink"
	 x="0px" y="0px" viewBox="0 0 553.8 535.5" style="enable-background:new 0 0 553.8 535.5;" xml:space="preserve">
<path style="fill:#E8E8E8;stroke:#FFFFFF;stroke-miterlimit:10;" d="M501.1,81.1H41.6c-8.3,0-15.1-6.7-15.1-15.1V15.6
	c0-8.3,6.7-15.1,15.1-15.1h459.5c8.3,0,15.1,6.7,15.1,15.1V66C516.2,74.3,509.5,81.1,501.1,81.1z"/>
<g>
	<text transform="matrix(1 0 0 1 192.5133 44.2042)" style="font-family:'PFHighwaySansPro-Regular'; font-size:23.7846px;">+ Нанести печать</text>
</g>
<text transform="matrix(1 7.920001e-03 -7.920001e-03 1 58.3572 52.1094)" style="font-family:'PFHighwaySansPro-Regular'; font-size:41.8622px;">2</text>
<path style="fill:#399110;" d="M424.9,474.8h-90.4c-6.1,0-11.1-4.9-11.1-11.1v-90.4c0-6.1,4.9-11.1,11.1-11.1h90.4
	c6.1,0,11.1,4.9,11.1,11.1v90.4C435.9,469.9,431,474.8,424.9,474.8z"/>
<g>
	<g>
		
			<line style="fill:none;stroke:#FFFFFF;stroke-width:2;stroke-linecap:round;stroke-linejoin:round;stroke-miterlimit:10;" x1="379.9" y1="431.5" x2="402.8" y2="431.5"/>
		<path style="fill:none;stroke:#FFFFFF;stroke-width:2;stroke-linecap:round;stroke-linejoin:round;stroke-miterlimit:10;" d="
			M369.1,431.5c0,0-0.1,0-4.2,0c-4.1,0-5.8-3-5.8-5.4c0-7,0-18.8,0-19.5c0-0.8-0.6-6.4,6.1-6.4c2.2,0,24.3,0,31.7,0
			c3.8,0,8.5,4.1,8.5,4.1l17,12.8c0,0,2.5,1.4,1.8,5.3c0,2.7,0,3.3,0,3.3s0.6,5.8-5,5.8c-5.7,0-5.7,0-5.7,0"/>
		<g>
			<path style="fill:#FFFFFF;" d="M374.5,428.1c1.9,0,3.4,1.5,3.4,3.4c0,1.9-1.5,3.4-3.4,3.4c-1.9,0-3.4-1.5-3.4-3.4
				C371.1,429.7,372.6,428.1,374.5,428.1 M374.5,426.1c-3,0-5.4,2.4-5.4,5.4c0,3,2.4,5.4,5.4,5.4c3,0,5.4-2.4,5.4-5.4
				C379.9,428.6,377.5,426.1,374.5,426.1L374.5,426.1z"/>
		</g>
		<g>
			<path style="fill:#FFFFFF;" d="M408.2,428.1c1.9,0,3.4,1.5,3.4,3.4c0,1.9-1.5,3.4-3.4,3.4c-1.9,0-3.4-1.5-3.4-3.4
				C404.8,429.7,406.3,428.1,408.2,428.1 M408.2,426.1c-3,0-5.4,2.4-5.4,5.4c0,3,2.4,5.4,5.4,5.4c3,0,5.4-2.4,5.4-5.4
				C413.6,428.6,411.2,426.1,408.2,426.1L408.2,426.1z"/>
		</g>
	</g>
	
		<line style="fill:none;stroke:#FFFFFF;stroke-width:2;stroke-linecap:round;stroke-linejoin:round;stroke-miterlimit:10;" x1="343.2" y1="406.9" x2="355.5" y2="406.9"/>
	
		<line style="fill:none;stroke:#FFFFFF;stroke-width:2;stroke-linecap:round;stroke-linejoin:round;stroke-miterlimit:10;" x1="330.7" y1="414.1" x2="355.5" y2="414.1"/>
	
		<line style="fill:none;stroke:#FFFFFF;stroke-width:2;stroke-linecap:round;stroke-linejoin:round;stroke-miterlimit:10;" x1="342" y1="420.8" x2="355.5" y2="420.8"/>
</g>
<g>
	<g>
		<path style="fill:none;stroke:#585858;stroke-linecap:round;stroke-linejoin:round;stroke-dasharray:1,5;" d="M499.2,192.6h27.6
			c14.7,0,26.6,11.9,26.6,26.6v91.8c0,14.7-11.9,26.6-26.6,26.6l-426.2-2.8c-14.7,0-26.6,11.9-26.6,26.6v35.2
			c0,14.7,11.9,26.6,26.6,26.6h12.2"/>
		<g>
			<polygon style="fill:#585858;" points="109.4,426.9 108.7,426.2 112.3,422.8 108.7,419.5 109.4,418.8 113.8,422.8 			"/>
		</g>
	</g>
</g>
<g>
	<g>
		<path style="fill:none;stroke:#585858;stroke-linecap:round;stroke-linejoin:round;stroke-dasharray:1,5;" d="M260.8,193.3
			c0,0,125,0,139.9,0"/>
		<g>
			<polygon style="fill:#585858;" points="397.4,197.4 396.8,196.7 400.4,193.3 396.8,190 397.4,189.2 401.8,193.3 			"/>
		</g>
	</g>
</g>
<g>
	<g>
		<path style="fill:none;stroke:#585858;stroke-linecap:round;stroke-linejoin:round;stroke-dasharray:1,5;" d="M166.1,422.7
			c0,0,125,0,139.9,0"/>
		<g>
			<polygon style="fill:#585858;" points="302.7,426.8 302,426 305.6,422.7 302,419.3 302.7,418.6 307.1,422.7 			"/>
		</g>
	</g>
</g>
<g>
	<g>
		<path style="fill:none;stroke:#585858;stroke-linecap:round;stroke-linejoin:round;stroke-dasharray:1,5;" d="M69.9,193.3
			c0,0,125,0,139.9,0"/>
		<g>
			<polygon style="fill:#585858;" points="206.5,197.4 205.8,196.7 209.4,193.3 205.8,190 206.5,189.2 210.9,193.3 			"/>
		</g>
	</g>
</g>
<path style="fill:#D10000;" d="M129.3,244.7H38.9c-6.1,0-11.1-4.9-11.1-11.1v-90.4c0-6.1,4.9-11.1,11.1-11.1h90.4
	c6.1,0,11.1,4.9,11.1,11.1v90.4C140.4,239.8,135.4,244.7,129.3,244.7z"/>
<text transform="matrix(1 0 0 1 -0.9894 277.0325)"><tspan x="0" y="0" style="font-family:'PFHighwaySansPro-Regular'; font-size:19.7902px;">Выбираете упаковку</tspan><tspan x="38" y="23.7" style="font-family:'PFHighwaySansPro-Regular'; font-size:19.7902px;">из каталога</tspan></text>
<polyline style="fill:none;stroke:#FFFFFF;stroke-width:2;stroke-miterlimit:10;" points="55.4,163.2 64.9,163.2 67.1,169.5 
	74.4,190.3 "/>
<path style="fill:none;stroke:#FFFFFF;stroke-width:2;stroke-miterlimit:10;" d="M104.2,200.5c-1,0-26.8,0-31.2,0
	c-6.5,0.1-8.1-8.6-0.1-10.2c8.4-1.7,29.6-4.4,29.6-4.4V172l-35.4-2.5"/>
<line style="fill:none;stroke:#FFFFFF;stroke-width:2;stroke-miterlimit:10;" x1="80.4" y1="170.5" x2="84.1" y2="188.5"/>
<line style="fill:none;stroke:#FFFFFF;stroke-width:2;stroke-miterlimit:10;" x1="91.1" y1="171.2" x2="92.5" y2="187.3"/>
<line style="fill:none;stroke:#FFFFFF;stroke-width:2;stroke-miterlimit:10;" x1="70.6" y1="179.5" x2="102.5" y2="179.9"/>
<circle style="fill:none;stroke:#FFFFFF;stroke-width:2;stroke-miterlimit:10;" cx="74" cy="208.5" r="3.4"/>
<circle style="fill:none;stroke:#FFFFFF;stroke-width:2;stroke-miterlimit:10;" cx="100" cy="208.5" r="3.4"/>
<text transform="matrix(1 0 0 1 188.9293 277.632)"><tspan x="0" y="0" style="font-family:'PFHighwaySansPro-Regular'; font-size:19.6024px;">Создаем графическое</tspan><tspan x="39.9" y="23.5" style="font-family:'PFHighwaySansPro-Regular'; font-size:19.6024px;">оформление</tspan></text>
<path style="fill:#6A0084;" d="M326.8,245.6h-89.5c-6,0-10.9-4.9-10.9-10.9v-89.5c0-6,4.9-10.9,10.9-10.9h89.5
	c6,0,10.9,4.9,10.9,10.9v89.5C337.8,240.7,332.9,245.6,326.8,245.6z"/>
<text transform="matrix(1 0 0 1 401.3445 277.6203)"><tspan x="0" y="0" style="font-family:'PFHighwaySansPro-Regular'; font-size:19.6024px;">Согласовываем</tspan><tspan x="22.5" y="23.5" style="font-family:'PFHighwaySansPro-Regular'; font-size:19.6024px;">стоимость</tspan></text>
<path style="fill:#446330;" d="M512,245.6h-89.5c-6,0-10.9-4.9-10.9-10.9v-89.5c0-6,4.9-10.9,10.9-10.9H512c6,0,10.9,4.9,10.9,10.9
	v89.5C522.9,240.7,518,245.6,512,245.6z"/>
<rect x="271.6" y="169.4" style="fill:none;stroke:#FFFFFF;stroke-width:2;stroke-linecap:round;stroke-linejoin:round;stroke-miterlimit:10;" width="17.8" height="23.7"/>
<path style="fill:none;stroke:#FFFFFF;stroke-width:2;stroke-linecap:round;stroke-linejoin:round;stroke-miterlimit:10;" d="
	M271.6,169.4v-5.5c0-1.9,1.5-3.4,3.4-3.4h11c1.9,0,3.4,1.5,3.4,3.4v5.5"/>
<line style="fill:none;stroke:#FFFFFF;stroke-width:2;stroke-linecap:round;stroke-linejoin:round;stroke-miterlimit:10;" x1="271.6" y1="193.1" x2="280.4" y2="210"/>
<line style="fill:none;stroke:#FFFFFF;stroke-width:2;stroke-linecap:round;stroke-linejoin:round;stroke-miterlimit:10;" x1="289.4" y1="193.1" x2="280.4" y2="210"/>
<line style="fill:none;stroke:#FFFFFF;stroke-width:2;stroke-linecap:round;stroke-linejoin:round;stroke-miterlimit:10;" x1="276" y1="201.6" x2="284.8" y2="201.6"/>
<line style="fill:none;stroke:#FFFFFF;stroke-width:2;stroke-linecap:round;stroke-linejoin:round;stroke-miterlimit:10;" x1="276.9" y1="169.4" x2="276.9" y2="193.1"/>
<line style="fill:none;stroke:#FFFFFF;stroke-width:2;stroke-linecap:round;stroke-linejoin:round;stroke-miterlimit:10;" x1="283.5" y1="169.4" x2="283.5" y2="193.1"/>
<circle style="fill:none;stroke:#FFFFFF;stroke-width:2;stroke-linecap:round;stroke-linejoin:round;stroke-miterlimit:10;" cx="246.8" cy="182.8" r="3.5"/>
<circle style="fill:none;stroke:#FFFFFF;stroke-width:2;stroke-linecap:round;stroke-linejoin:round;stroke-miterlimit:10;" cx="314.5" cy="182.8" r="3.5"/>
<path style="fill:none;stroke:#FFFFFF;stroke-width:2;stroke-linecap:round;stroke-linejoin:round;stroke-miterlimit:10;" d="
	M314.5,186.3c0,18.8-15.2,34-34,34c-18.8,0-34-15.2-34-34"/>
<circle style="fill:#6A0084;stroke:#FFFFFF;stroke-width:2;stroke-miterlimit:10;" cx="281.2" cy="220.3" r="3.5"/>
<path style="fill:none;stroke:#FFFFFF;stroke-width:2;stroke-linecap:round;stroke-linejoin:round;stroke-miterlimit:10;" d="
	M251.9,181.7"/>
<path style="fill:none;stroke:#FFFFFF;stroke-width:2;stroke-linecap:round;stroke-linejoin:round;stroke-miterlimit:10;" d="
	M499.2,174.2c0,4.7-14.3,8.6-31.9,8.6c-17.6,0-31.9-3.8-31.9-8.6c0-4.7,14.3-8.6,31.9-8.6C484.9,165.6,499.2,169.5,499.2,174.2z"/>
<path style="fill:none;stroke:#FFFFFF;stroke-width:2;stroke-linecap:round;stroke-linejoin:round;stroke-miterlimit:10;" d="
	M493.5,183.5c3.5,1.4,5.6,3.1,5.6,4.9c0,4.7-14.3,8.6-31.9,8.6c-17.6,0-31.9-3.8-31.9-8.6c0-1.7,1.9-3.3,5.1-4.7"/>
<path style="fill:none;stroke:#FFFFFF;stroke-width:2;stroke-linecap:round;stroke-linejoin:round;stroke-miterlimit:10;" d="
	M493.5,197.9c3.5,1.4,5.6,3.1,5.6,4.9c0,4.7-14.3,8.6-31.9,8.6c-17.6,0-31.9-3.8-31.9-8.6c0-1.7,1.9-3.3,5.1-4.7"/>
<g>
	<text transform="matrix(1 0 0 1 113.3871 506.8448)"><tspan x="0" y="0" style="font-family:'PFHighwaySansPro-Regular'; font-size:19.7313px;">Изготавливаем</tspan><tspan x="22.2" y="23.7" style="font-family:'PFHighwaySansPro-Regular'; font-size:19.7313px;">ваш заказ</tspan></text>
</g>
<path style="fill:#5C6E7F;" d="M222.7,473.2h-90.1c-6.1,0-11-4.9-11-11V372c0-6.1,4.9-11,11-11h90.1c6.1,0,11,4.9,11,11v90.1
	C233.8,468.2,228.8,473.2,222.7,473.2z"/>
<g>
	<path style="fill:none;stroke:#FFFFFF;stroke-width:2;stroke-linecap:round;stroke-linejoin:round;stroke-miterlimit:10;" d="
		M157.8,383.3c0.2,0.1,0.4,0.2,0.6,0.3c1.2,0.8,2.4,1.6,3.6,2.5c0.4,0.3,0.8,0.3,1.2,0.1c0.7-0.3,1.5-0.6,2.2-0.9
		c0.4-0.2,0.7-0.4,0.7-0.9c0.3-1.5,0.5-2.9,0.8-4.4c0.1-0.6,0.5-0.9,1.1-0.9c1.9,0,3.8,0,5.7,0c0.6,0,1,0.3,1.1,0.9
		c0.3,1.5,0.5,2.9,0.8,4.4c0.1,0.4,0.3,0.7,0.7,0.8c0.8,0.3,1.5,0.6,2.2,0.9c0.4,0.2,0.8,0.2,1.1-0.1c1.2-0.8,2.4-1.7,3.6-2.5
		c0.6-0.4,1-0.3,1.4,0.1c1.3,1.3,2.7,2.7,4,4c0.5,0.5,0.5,0.9,0.1,1.4c-0.8,1.2-1.7,2.4-2.5,3.6c-0.3,0.4-0.3,0.8-0.1,1.2
		c0.2,0.5,0.4,1,0.6,1.5c0.1,0.3,0.2,0.5,0.3,0.8c0.1,0.4,0.4,0.5,0.8,0.6c1.2,0.2,2.4,0.5,3.6,0.7c0.3,0.1,0.6,0.1,0.9,0.2
		c0.5,0.1,0.8,0.5,0.8,1c0,2,0,3.9,0,5.9c0,0.5-0.3,0.9-0.8,1c-1.5,0.3-3,0.6-4.5,0.9c-0.4,0.1-0.6,0.3-0.7,0.6
		c-0.3,0.8-0.7,1.6-1,2.4c-0.2,0.4-0.1,0.7,0.1,1.1c0.8,1.2,1.7,2.5,2.5,3.7c0.4,0.5,0.3,1-0.1,1.4c-1.3,1.3-2.7,2.7-4,4
		c-0.5,0.5-0.9,0.5-1.4,0.1c-0.8-0.5-1.6-1.1-2.4-1.6c-0.4-0.3-0.8-0.6-1.2-0.8c-0.4-0.3-0.8-0.3-1.2-0.1c-0.7,0.3-1.5,0.7-2.3,0.9
		c-0.4,0.2-0.6,0.4-0.7,0.8c-0.1,0.5-0.2,1.1-0.3,1.6c-0.1,0.5-0.2,1-0.3,1.5c-0.1,0.4-0.1,0.9-0.2,1.3c-0.1,0.6-0.4,0.9-1.1,0.9
		c-1.9,0-3.8,0-5.8,0c-0.6,0-1-0.3-1.1-0.9c-0.3-1.5-0.6-2.9-0.8-4.4c-0.1-0.4-0.3-0.7-0.7-0.8c-0.8-0.3-1.5-0.6-2.3-0.9
		c-0.4-0.2-0.7-0.2-1.1,0.1c-1.2,0.8-2.4,1.7-3.7,2.5c-0.6,0.4-1,0.3-1.4-0.1c-1.3-1.3-2.7-2.7-4-4c-0.5-0.5-0.5-0.9-0.1-1.4
		c0.8-1.2,1.7-2.4,2.5-3.6c0.3-0.4,0.3-0.7,0.1-1.2c-0.3-0.7-0.6-1.5-0.9-2.2c-0.2-0.4-0.4-0.7-0.8-0.7c-1.5-0.3-2.9-0.6-4.4-0.8
		c-0.5-0.1-0.8-0.5-0.8-1c0-2,0-3.9,0-5.9c0-0.5,0.3-0.9,0.8-1c1.5-0.3,2.9-0.6,4.4-0.8c0.5-0.1,0.8-0.3,0.9-0.8
		c0.3-0.7,0.6-1.4,0.9-2.1c0.2-0.4,0.2-0.8-0.1-1.1c-0.8-1.2-1.7-2.5-2.5-3.7c-0.4-0.5-0.3-0.9,0.1-1.4c1.4-1.4,2.7-2.7,4.1-4.1
		C157.3,383.5,157.5,383.4,157.8,383.3z M170.8,412.5c6.1,0,11-4.8,11-10.7c0-5.9-4.8-10.8-10.7-10.8c-3,0-5.5,1-7.6,3.1
		c-2.6,2.6-3.6,5.8-3,9.4c0.3,2.2,1.4,4.2,3,5.8C165.5,411.4,168,412.4,170.8,412.5z"/>
	<path style="fill:none;stroke:#FFFFFF;stroke-width:2;stroke-linecap:round;stroke-linejoin:round;stroke-miterlimit:10;" d="
		M170.8,412.5c-2.7-0.1-5.3-1.1-7.4-3.2c-1.6-1.6-2.7-3.5-3-5.8c-0.5-3.6,0.4-6.8,3-9.4c2.1-2.1,4.7-3.1,7.6-3.1
		c5.9,0,10.7,4.8,10.7,10.8C181.8,407.7,176.9,412.5,170.8,412.5z"/>
	<path style="fill:none;stroke:#FFFFFF;stroke-width:2;stroke-linecap:round;stroke-linejoin:round;stroke-miterlimit:10;" d="
		M183.5,423.7c0.2,0,0.3,0.1,0.5,0.1c0.9,0.4,1.9,0.8,2.8,1.2c0.3,0.1,0.6,0.1,0.8-0.1c0.4-0.3,0.9-0.6,1.4-0.9
		c0.3-0.2,0.4-0.4,0.4-0.7c0-1,0-2.1,0-3.1c0-0.4,0.2-0.7,0.6-0.8c1.3-0.3,2.6-0.5,3.9-0.8c0.4-0.1,0.7,0.1,0.9,0.5
		c0.4,1,0.8,1.9,1.2,2.9c0.1,0.3,0.3,0.4,0.6,0.5c0.6,0.1,1.1,0.2,1.7,0.3c0.3,0.1,0.6,0,0.8-0.2c0.7-0.7,1.4-1.5,2.2-2.2
		c0.3-0.3,0.6-0.4,1-0.1c1.1,0.7,2.2,1.5,3.3,2.2c0.4,0.3,0.5,0.5,0.3,1c-0.4,0.9-0.8,1.9-1.2,2.8c-0.1,0.3-0.1,0.6,0.1,0.8
		c0.2,0.3,0.4,0.6,0.6,0.9c0.1,0.2,0.2,0.3,0.3,0.5c0.1,0.2,0.4,0.3,0.6,0.3c0.9,0,1.7,0,2.6,0c0.2,0,0.4,0,0.6,0
		c0.4,0,0.6,0.2,0.7,0.6c0.3,1.3,0.5,2.7,0.8,4c0.1,0.4-0.1,0.7-0.4,0.8c-1,0.4-2,0.8-3,1.2c-0.2,0.1-0.4,0.3-0.4,0.5
		c-0.1,0.6-0.2,1.2-0.4,1.8c-0.1,0.3,0,0.5,0.2,0.7c0.7,0.7,1.5,1.5,2.2,2.2c0.3,0.3,0.4,0.6,0.1,1c-0.7,1.1-1.5,2.2-2.2,3.3
		c-0.3,0.4-0.5,0.5-1,0.3c-0.6-0.3-1.3-0.5-1.9-0.8c-0.3-0.1-0.6-0.3-0.9-0.4c-0.3-0.1-0.6-0.1-0.8,0.1c-0.5,0.3-0.9,0.7-1.4,1
		c-0.3,0.2-0.4,0.4-0.4,0.7c0,0.4,0,0.8,0,1.2c0,0.4,0,0.7,0,1.1c0,0.3,0,0.6,0,0.9c0,0.4-0.2,0.7-0.6,0.8c-1.3,0.3-2.6,0.5-4,0.8
		c-0.4,0.1-0.7-0.1-0.9-0.5c-0.4-1-0.8-1.9-1.2-2.9c-0.1-0.3-0.3-0.4-0.6-0.5c-0.6-0.1-1.1-0.2-1.7-0.3c-0.3-0.1-0.5,0-0.7,0.2
		c-0.7,0.7-1.5,1.5-2.2,2.2c-0.3,0.3-0.6,0.4-1,0.1c-1.1-0.7-2.2-1.5-3.3-2.2c-0.4-0.3-0.5-0.5-0.3-1c0.4-0.9,0.8-1.9,1.2-2.8
		c0.1-0.3,0.1-0.5-0.1-0.8c-0.3-0.5-0.6-0.9-0.9-1.4c-0.2-0.3-0.4-0.4-0.7-0.4c-1.1,0-2.1,0-3.2,0c-0.4,0-0.6-0.2-0.7-0.6
		c-0.3-1.4-0.5-2.7-0.8-4.1c-0.1-0.4,0.1-0.6,0.4-0.8c1-0.4,1.9-0.8,2.9-1.2c0.3-0.1,0.5-0.3,0.5-0.7c0.1-0.5,0.2-1,0.3-1.5
		c0.1-0.3,0-0.6-0.2-0.8c-0.7-0.7-1.5-1.5-2.2-2.2c-0.3-0.3-0.4-0.6-0.1-1c0.7-1.1,1.5-2.2,2.2-3.3
		C183.1,423.9,183.3,423.8,183.5,423.7z M196.4,442c4.2-0.8,6.9-4.8,6.1-8.9c-0.8-4.1-4.8-6.8-8.8-6c-2,0.4-3.7,1.5-4.8,3.2
		c-1.4,2.2-1.7,4.5-0.8,6.9c0.5,1.5,1.5,2.7,2.8,3.6C192.6,441.9,194.5,442.3,196.4,442z"/>
	<path style="fill:none;stroke:#FFFFFF;stroke-width:2;stroke-linecap:round;stroke-linejoin:round;stroke-miterlimit:10;" d="
		M196.4,442c-1.9,0.3-3.8,0-5.5-1.2c-1.3-0.9-2.3-2.1-2.8-3.6c-0.9-2.4-0.6-4.7,0.8-6.9c1.1-1.7,2.8-2.8,4.8-3.2
		c4.1-0.8,8,1.9,8.8,6C203.3,437.2,200.6,441.1,196.4,442z"/>
</g>
<g>
	<text transform="matrix(1 0 0 1 278.2926 506.7335)"><tspan x="0" y="0" style="font-family:'PFHighwaySansPro-Regular'; font-size:19.7313px;">Доставляем заказ или</tspan><tspan x="4.7" y="23.7" style="font-family:'PFHighwaySansPro-Regular'; font-size:19.7313px;">отгружаем со склада</tspan></text>
</g>
</svg>
