<?xml version="1.0" encoding="utf-8"?>
<!-- Generator: Adobe Illustrator 19.1.0, SVG Export Plug-In . SVG Version: 6.00 Build 0)  -->
<svg version="1.1" id="_x2014_лой_x5F_1" xmlns="http://www.w3.org/2000/svg" xmlns:xlink="http://www.w3.org/1999/xlink"
	 x="0px" y="0px" viewBox="0 0 528.4 300.6" style="enable-background:new 0 0 528.4 300.6;" xml:space="preserve">
<path style="fill:#E8E8E8;stroke:#FFFFFF;stroke-miterlimit:10;" d="M491.1,81.1H31.6c-8.3,0-15.1-6.7-15.1-15.1V15.6
	c0-8.3,6.7-15.1,15.1-15.1h459.5c8.3,0,15.1,6.7,15.1,15.1V66C506.1,74.3,499.4,81.1,491.1,81.1z"/>
<g>
	<text transform="matrix(1 0 0 1 171.7049 34.2042)"><tspan x="0" y="0" style="font-family:'PFHighwaySansPro-Regular'; font-size:23.7846px;">Выбрать и купить</tspan><tspan x="-18.6" y="28.5" style="font-family:'PFHighwaySansPro-Regular'; font-size:23.7846px;">упаковку из каталога</tspan></text>
</g>
<text transform="matrix(1 7.920001e-03 -7.920001e-03 1 48.3103 52.1094)" style="font-family:'PFHighwaySansPro-Regular'; font-size:41.8622px;">1</text>
<g>
	<g>
		<path style="fill:none;stroke:#585858;stroke-linecap:round;stroke-linejoin:round;stroke-dasharray:1,5;" d="M235.5,188.2
			c0,0,125,0,139.9,0"/>
		<g>
			<polygon style="fill:#585858;" points="372.1,192.3 371.4,191.6 375,188.2 371.4,184.8 372.1,184.1 376.5,188.2 			"/>
		</g>
	</g>
</g>
<g>
	<g>
		<path style="fill:none;stroke:#585858;stroke-linecap:round;stroke-linejoin:round;stroke-dasharray:1,5;" d="M57.6,188.2
			c0,0,125,0,139.9,0"/>
		<g>
			<polygon style="fill:#585858;" points="194.2,192.3 193.5,191.6 197.2,188.2 193.5,184.8 194.2,184.1 198.6,188.2 			"/>
		</g>
	</g>
</g>
<text transform="matrix(1 0 0 1 206.2036 271.9023)"><tspan x="0" y="0" style="font-family:'PFHighwaySansPro-Regular'; font-size:19.7902px;">Оформляете</tspan><tspan x="-2.8" y="23.7" style="font-family:'PFHighwaySansPro-Regular'; font-size:19.7902px;">заказ онлайн</tspan></text>
<path style="fill:#D10000;" d="M129.3,239.6H38.9c-6.1,0-11.1-4.9-11.1-11.1v-90.4c0-6.1,4.9-11.1,11.1-11.1h90.4
	c6.1,0,11.1,4.9,11.1,11.1v90.4C140.4,234.6,135.4,239.6,129.3,239.6z"/>
<path style="fill:#21A2CE;" d="M305,239.6h-90.4c-6.1,0-11.1-4.9-11.1-11.1v-90.4c0-6.1,4.9-11.1,11.1-11.1H305
	c6.1,0,11.1,4.9,11.1,11.1v90.4C316,234.6,311.1,239.6,305,239.6z"/>
<path style="fill:#399110;" d="M482.5,239.6h-90.4c-6.1,0-11.1-4.9-11.1-11.1v-90.4c0-6.1,4.9-11.1,11.1-11.1h90.4
	c6.1,0,11.1,4.9,11.1,11.1v90.4C493.5,234.6,488.6,239.6,482.5,239.6z"/>
<text transform="matrix(1 0 0 1 -0.9893 271.9023)"><tspan x="0" y="0" style="font-family:'PFHighwaySansPro-Regular'; font-size:19.7902px;">Выбираете упаковку</tspan><tspan x="38" y="23.7" style="font-family:'PFHighwaySansPro-Regular'; font-size:19.7902px;">из каталога</tspan></text>
<g>
	<text transform="matrix(1 0 0 1 341.2519 271.9014)"><tspan x="0" y="0" style="font-family:'PFHighwaySansPro-Regular'; font-size:19.7902px;">Доставляем заказ или</tspan><tspan x="4.7" y="23.7" style="font-family:'PFHighwaySansPro-Regular'; font-size:19.7902px;">отгружаем со склада</tspan></text>
</g>
<polyline style="fill:none;stroke:#FFFFFF;stroke-width:2;stroke-miterlimit:10;" points="55.4,158.1 64.9,158.1 67.1,164.4 
	74.4,185.2 "/>
<path style="fill:none;stroke:#FFFFFF;stroke-width:2;stroke-miterlimit:10;" d="M104.2,195.4c-1,0-26.8,0-31.2,0
	c-6.5,0.1-8.1-8.6-0.1-10.2c8.4-1.7,29.6-4.4,29.6-4.4v-13.9l-35.4-2.5"/>
<line style="fill:none;stroke:#FFFFFF;stroke-width:2;stroke-miterlimit:10;" x1="80.4" y1="165.3" x2="84.1" y2="183.3"/>
<line style="fill:none;stroke:#FFFFFF;stroke-width:2;stroke-miterlimit:10;" x1="91.1" y1="166.1" x2="92.5" y2="182.1"/>
<line style="fill:none;stroke:#FFFFFF;stroke-width:2;stroke-miterlimit:10;" x1="70.6" y1="174.3" x2="102.5" y2="174.8"/>
<circle style="fill:none;stroke:#FFFFFF;stroke-width:2;stroke-miterlimit:10;" cx="74" cy="203.3" r="3.4"/>
<circle style="fill:none;stroke:#FFFFFF;stroke-width:2;stroke-miterlimit:10;" cx="100" cy="203.3" r="3.4"/>
<rect x="238.5" y="157" style="fill:none;stroke:#FFFFFF;stroke-width:2;stroke-linecap:round;stroke-linejoin:round;stroke-miterlimit:10;" width="41.5" height="50.5"/>
<g>
	
		<line style="fill:none;stroke:#FFFFFF;stroke-width:2;stroke-linecap:round;stroke-linejoin:round;stroke-miterlimit:10;" x1="257.3" y1="178.7" x2="270.1" y2="192.8"/>
	
		<line style="fill:none;stroke:#FFFFFF;stroke-width:2;stroke-linecap:round;stroke-linejoin:round;stroke-miterlimit:10;" x1="293.3" y1="164.5" x2="270.1" y2="192.8"/>
</g>
<g>
	<g>
		
			<line style="fill:none;stroke:#FFFFFF;stroke-width:2;stroke-linecap:round;stroke-linejoin:round;stroke-miterlimit:10;" x1="437.6" y1="196.3" x2="460.4" y2="196.3"/>
		<path style="fill:none;stroke:#FFFFFF;stroke-width:2;stroke-linecap:round;stroke-linejoin:round;stroke-miterlimit:10;" d="
			M426.7,196.3c0,0-0.1,0-4.2,0c-4.1,0-5.8-3-5.8-5.4c0-7,0-18.8,0-19.5c0-0.8-0.6-6.4,6.1-6.4c2.2,0,24.3,0,31.7,0
			c3.8,0,8.5,4.1,8.5,4.1l17,12.8c0,0,2.5,1.4,1.8,5.3c0,2.7,0,3.3,0,3.3s0.6,5.8-5,5.8c-5.7,0-5.7,0-5.7,0"/>
		<g>
			<path style="fill:#FFFFFF;" d="M432.1,192.9c1.9,0,3.4,1.5,3.4,3.4c0,1.9-1.5,3.4-3.4,3.4c-1.9,0-3.4-1.5-3.4-3.4
				C428.7,194.4,430.3,192.9,432.1,192.9 M432.1,190.9c-3,0-5.4,2.4-5.4,5.4c0,3,2.4,5.4,5.4,5.4c3,0,5.4-2.4,5.4-5.4
				C437.6,193.3,435.1,190.9,432.1,190.9L432.1,190.9z"/>
		</g>
		<g>
			<path style="fill:#FFFFFF;" d="M465.8,192.9c1.9,0,3.4,1.5,3.4,3.4c0,1.9-1.5,3.4-3.4,3.4c-1.9,0-3.4-1.5-3.4-3.4
				C462.4,194.4,463.9,192.9,465.8,192.9 M465.8,190.9c-3,0-5.4,2.4-5.4,5.4c0,3,2.4,5.4,5.4,5.4c3,0,5.4-2.4,5.4-5.4
				C471.2,193.3,468.8,190.9,465.8,190.9L465.8,190.9z"/>
		</g>
	</g>
	
		<line style="fill:none;stroke:#FFFFFF;stroke-width:2;stroke-linecap:round;stroke-linejoin:round;stroke-miterlimit:10;" x1="400.8" y1="171.6" x2="413.1" y2="171.6"/>
	
		<line style="fill:none;stroke:#FFFFFF;stroke-width:2;stroke-linecap:round;stroke-linejoin:round;stroke-miterlimit:10;" x1="388.4" y1="178.9" x2="413.1" y2="178.9"/>
	
		<line style="fill:none;stroke:#FFFFFF;stroke-width:2;stroke-linecap:round;stroke-linejoin:round;stroke-miterlimit:10;" x1="399.6" y1="185.5" x2="413.1" y2="185.5"/>
</g>
</svg>
