<?xml version="1.0" encoding="utf-8"?>
<!-- Generator: Adobe Illustrator 19.1.0, SVG Export Plug-In . SVG Version: 6.00 Build 0)  -->
<svg version="1.1" id="_x2014_лой_x5F_1" xmlns="http://www.w3.org/2000/svg" xmlns:xlink="http://www.w3.org/1999/xlink"
	 x="0px" y="0px" viewBox="0 0 2900.6 759.6" style="enable-background:new 0 0 2900.6 759.6;" xml:space="preserve">
<path style="fill:none;stroke:#434343;stroke-width:3;stroke-linecap:round;stroke-linejoin:round;stroke-miterlimit:10;stroke-dasharray:2,10;" d="
	M698.4,560H197.2c-13.7,0-24.9-11.1-24.9-24.9v-95c0-13.7,11.1-24.9,24.9-24.9h501.2c13.7,0,24.9,11.1,24.9,24.9v95
	C723.3,548.9,712.1,560,698.4,560z"/>
<path style="fill:none;stroke:#434343;stroke-width:3;stroke-linecap:round;stroke-linejoin:round;stroke-miterlimit:10;stroke-dasharray:2,10;" d="
	M698.4,190H197.2c-13.7,0-24.9-11.1-24.9-24.9v-95c0-13.7,11.1-24.9,24.9-24.9h501.2c13.7,0,24.9,11.1,24.9,24.9v95
	C723.3,178.9,712.1,190,698.4,190z"/>
<path style="fill:none;stroke:#434343;stroke-width:3;stroke-linecap:round;stroke-linejoin:round;stroke-miterlimit:10;stroke-dasharray:2,10;" d="
	M727.3,487.6c-1.3,0,10.2,0,153.7,0"/>
<path style="fill:none;stroke:#434343;stroke-width:3;stroke-linecap:round;stroke-linejoin:round;stroke-miterlimit:10;stroke-dasharray:2,10;" d="
	M95.8,487.6c-12.1,0,52.8,0,75.2,0"/>
<path style="fill:none;stroke:#434343;stroke-width:3;stroke-linecap:round;stroke-linejoin:round;stroke-miterlimit:10;stroke-dasharray:2,10;" d="
	M727.3,119.8c-1.4,0,11.5,0,173.1,0"/>
<path style="fill:none;stroke:#434343;stroke-width:3;stroke-linecap:round;stroke-linejoin:round;stroke-miterlimit:10;stroke-dasharray:2,10;" d="
	M911,124.1c-15.3,0,124,0,1867.1,0"/>
<path style="fill:none;stroke:#434343;stroke-width:3;stroke-linecap:round;stroke-linejoin:round;stroke-miterlimit:10;stroke-dasharray:2,10;" d="
	M65.5,119.8c-17.8,0,77.8,0,110.8,0"/>
<path style="fill:#FFFFFF;stroke:#000000;stroke-width:3;stroke-linecap:round;stroke-linejoin:round;stroke-miterlimit:10;" d="
	M57.3,177.7L57.3,177.7c-30.8,0-55.8-25-55.8-55.8v0C1.5,91,26.5,66,57.3,66h0c30.8,0,55.8,25,55.8,55.8v0
	C113.2,152.7,88.2,177.7,57.3,177.7z"/>
<path style="fill:none;stroke:#434343;stroke-width:3;stroke-linecap:round;stroke-linejoin:round;stroke-miterlimit:10;stroke-dasharray:2,10;" d="
	M1727.7,484.9c394.7,0,258.5-359.2,594.8-357.5"/>
<path style="fill:none;stroke:#434343;stroke-width:3;stroke-linecap:round;stroke-linejoin:round;stroke-miterlimit:10;stroke-dasharray:2,10;" d="
	M934.9,484.9c0,0,446.7,0,864.8,0"/>
<text transform="matrix(1 7.920001e-03 -7.920001e-03 1 34.8272 145.2724)" style="font-family:'PFHighwaySansPro-Regular'; font-size:66.8819px;">1</text>
<path style="fill:#FFFFFF;stroke:#000000;stroke-width:3;stroke-linecap:round;stroke-linejoin:round;stroke-miterlimit:10;" d="
	M57.3,543.5L57.3,543.5c-30.8,0-55.8-25-55.8-55.8v0c0-30.8,25-55.8,55.8-55.8h0c30.8,0,55.8,25,55.8,55.8v0
	C113.2,518.5,88.2,543.5,57.3,543.5z"/>
<g>
	<text transform="matrix(1 0 0 1 244.0868 476.3297)"><tspan x="0" y="0" style="font-family:'PFHighwaySansPro-Regular'; font-size:38px;">Разработать и изготовить</tspan><tspan x="-9.9" y="45.6" style="font-family:'PFHighwaySansPro-Regular'; font-size:38px;">индивидуальную упаковку </tspan></text>
</g>
<text transform="matrix(1 0 0 1 1227.5389 283.632)"><tspan x="0" y="0" style="font-family:'PFHighwaySansPro-Regular'; font-size:38px;">Задаете размеры</tspan><tspan x="-14.5" y="45.6" style="font-family:'PFHighwaySansPro-Regular'; font-size:38px;">и выбираете опции</tspan></text>
<text transform="matrix(1 0 0 1 1560.5046 283.6316)"><tspan x="0" y="0" style="font-family:'PFHighwaySansPro-Regular'; font-size:38px;">Согласовываем графическое</tspan><tspan x="134" y="45.6" style="font-family:'PFHighwaySansPro-Regular'; font-size:38px;">оформление</tspan></text>
<g>
	<text transform="matrix(1 0 0 1 2217.0337 286.4196)"><tspan x="0" y="0" style="font-family:'PFHighwaySansPro-Regular'; font-size:38px;">Изготавливаем</tspan><tspan x="42.7" y="45.6" style="font-family:'PFHighwaySansPro-Regular'; font-size:38px;">ваш заказ</tspan></text>
</g>
<text transform="matrix(1 0 0 1 857.0526 656.9057)"><tspan x="0" y="0" style="font-family:'PFHighwaySansPro-Regular'; font-size:38px;">Объясняете</tspan><tspan x="6.7" y="45.6" style="font-family:'PFHighwaySansPro-Regular'; font-size:38px;">нам задачу</tspan></text>
<text transform="matrix(1 0 0 1 1236.4099 656.9057)"><tspan x="0" y="0" style="font-family:'PFHighwaySansPro-Regular'; font-size:38px;">Разрабатываем</tspan><tspan x="2.6" y="45.6" style="font-family:'PFHighwaySansPro-Regular'; font-size:38px;"> конструкцию и</tspan><tspan x="-10.4" y="91.2" style="font-family:'PFHighwaySansPro-Regular'; font-size:38px;">дизайн упаковки</tspan></text>
<path style="fill:#F7C800;" d="M1041.7,221.6H868.1c-11.7,0-21.2-9.5-21.2-21.2V26.8c0-11.7,9.5-21.2,21.2-21.2h173.5
	c11.7,0,21.2,9.5,21.2,21.2v173.5C1062.9,212.1,1053.4,221.6,1041.7,221.6z"/>
<path style="fill:#21A2CE;" d="M1456.4,221.6h-173.5c-11.7,0-21.2-9.5-21.2-21.2V26.8c0-11.7,9.5-21.2,21.2-21.2h173.5
	c11.7,0,21.2,9.5,21.2,21.2v173.5C1477.6,212.1,1468.1,221.6,1456.4,221.6z"/>
<path style="fill:#6A0084;" d="M1884.5,221.6h-173.5c-11.7,0-21.2-9.5-21.2-21.2V26.8c0-11.7,9.5-21.2,21.2-21.2h173.5
	c11.7,0,21.2,9.5,21.2,21.2v173.5C1905.7,212.1,1896.2,221.6,1884.5,221.6z"/>
<path style="fill:#5C6E7F;" d="M2427.6,221.6h-173.5c-11.7,0-21.2-9.5-21.2-21.2V26.8c0-11.7,9.5-21.2,21.2-21.2h173.5
	c11.7,0,21.2,9.5,21.2,21.2v173.5C2448.9,212.1,2439.4,221.6,2427.6,221.6z"/>
<path style="fill:#001756;" d="M1878.6,603.4H1705c-11.7,0-21.2-9.5-21.2-21.2V408.6c0-11.7,9.5-21.2,21.2-21.2h173.5
	c11.7,0,21.2,9.5,21.2,21.2v173.5C1899.8,593.9,1890.3,603.4,1878.6,603.4z"/>
<path style="fill:#B54DCE;" d="M1450.7,603.4h-173.5c-11.7,0-21.2-9.5-21.2-21.2V408.6c0-11.7,9.5-21.2,21.2-21.2h173.5
	c11.7,0,21.2,9.5,21.2,21.2v173.5C1471.9,593.9,1462.4,603.4,1450.7,603.4z"/>
<path style="fill:#0667B7;" d="M1040.4,603.4H866.8c-11.7,0-21.2-9.5-21.2-21.2V408.6c0-11.7,9.5-21.2,21.2-21.2h173.5
	c11.7,0,21.2,9.5,21.2,21.2v173.5C1061.6,593.9,1052.1,603.4,1040.4,603.4z"/>
<g>
	
		<polygon style="fill:none;stroke:#FFFFFF;stroke-width:3;stroke-linecap:round;stroke-linejoin:round;stroke-miterlimit:10;" points="
		931.9,90.9 1001.7,119 981.1,126.8 1009.3,153.7 998.4,164.2 970.6,138.2 962.1,158.4 	"/>
	
		<line style="fill:none;stroke:#FFFFFF;stroke-width:3;stroke-linecap:round;stroke-linejoin:round;stroke-miterlimit:10;" x1="949.7" y1="79.3" x2="961.4" y2="68.3"/>
	
		<line style="fill:none;stroke:#FFFFFF;stroke-width:3;stroke-linecap:round;stroke-linejoin:round;stroke-miterlimit:10;" x1="935.4" y1="73.8" x2="935.4" y2="58"/>
	
		<line style="fill:none;stroke:#FFFFFF;stroke-width:3;stroke-linecap:round;stroke-linejoin:round;stroke-miterlimit:10;" x1="919.6" y1="77.9" x2="905.9" y2="62.8"/>
	
		<line style="fill:none;stroke:#FFFFFF;stroke-width:3;stroke-linecap:round;stroke-linejoin:round;stroke-miterlimit:10;" x1="919.6" y1="90.9" x2="900.4" y2="90.9"/>
	
		<line style="fill:none;stroke:#FFFFFF;stroke-width:3;stroke-linecap:round;stroke-linejoin:round;stroke-miterlimit:10;" x1="923.4" y1="105.3" x2="910" y2="119.7"/>
</g>
<text transform="matrix(1 0 0 1 760.2321 283.6318)"><tspan x="0" y="0" style="font-family:'PFHighwaySansPro-Regular'; font-size:38px;">Выбираете конструкцию</tspan><tspan x="104.3" y="45.6" style="font-family:'PFHighwaySansPro-Regular'; font-size:38px;">из каталога</tspan></text>
<g>
	<g>
		
			<line style="fill:none;stroke:#FFFFFF;stroke-width:3;stroke-linecap:round;stroke-linejoin:round;stroke-miterlimit:10;" x1="1368.7" y1="82.8" x2="1368.7" y2="135.6"/>
		
			<line style="fill:none;stroke:#FFFFFF;stroke-width:3;stroke-linecap:round;stroke-linejoin:round;stroke-miterlimit:10;" x1="1354.1" y1="102.4" x2="1354.1" y2="135.6"/>
		
			<line style="fill:none;stroke:#FFFFFF;stroke-width:3;stroke-linecap:round;stroke-linejoin:round;stroke-miterlimit:10;" x1="1339.2" y1="102.4" x2="1339.2" y2="135.6"/>
		
			<line style="fill:none;stroke:#FFFFFF;stroke-width:3;stroke-linecap:round;stroke-linejoin:round;stroke-miterlimit:10;" x1="1324.7" y1="102.4" x2="1324.7" y2="135.6"/>
		
			<line style="fill:none;stroke:#FFFFFF;stroke-width:3;stroke-linecap:round;stroke-linejoin:round;stroke-miterlimit:10;" x1="1309.6" y1="102.4" x2="1309.6" y2="135.6"/>
		
			<line style="fill:none;stroke:#FFFFFF;stroke-width:3;stroke-linecap:round;stroke-linejoin:round;stroke-miterlimit:10;" x1="1295" y1="82.8" x2="1295" y2="135.6"/>
		
			<line style="fill:none;stroke:#FFFFFF;stroke-width:3;stroke-linecap:round;stroke-linejoin:round;stroke-miterlimit:10;" x1="1368.7" y1="135.6" x2="1295" y2="135.6"/>
	</g>
	<g>
		
			<line style="fill:none;stroke:#FFFFFF;stroke-width:3;stroke-linecap:round;stroke-linejoin:round;stroke-miterlimit:10;" x1="1442.4" y1="82.8" x2="1442.4" y2="135.6"/>
		
			<line style="fill:none;stroke:#FFFFFF;stroke-width:3;stroke-linecap:round;stroke-linejoin:round;stroke-miterlimit:10;" x1="1427.8" y1="102.4" x2="1427.8" y2="135.6"/>
		
			<line style="fill:none;stroke:#FFFFFF;stroke-width:3;stroke-linecap:round;stroke-linejoin:round;stroke-miterlimit:10;" x1="1413" y1="102.4" x2="1413" y2="135.6"/>
		
			<line style="fill:none;stroke:#FFFFFF;stroke-width:3;stroke-linecap:round;stroke-linejoin:round;stroke-miterlimit:10;" x1="1398.4" y1="102.4" x2="1398.4" y2="135.6"/>
		
			<line style="fill:none;stroke:#FFFFFF;stroke-width:3;stroke-linecap:round;stroke-linejoin:round;stroke-miterlimit:10;" x1="1383.3" y1="102.4" x2="1383.3" y2="135.6"/>
		
			<line style="fill:none;stroke:#FFFFFF;stroke-width:3;stroke-linecap:round;stroke-linejoin:round;stroke-miterlimit:10;" x1="1368.7" y1="82.8" x2="1368.7" y2="135.6"/>
		
			<line style="fill:none;stroke:#FFFFFF;stroke-width:3;stroke-linecap:round;stroke-linejoin:round;stroke-miterlimit:10;" x1="1442.4" y1="135.6" x2="1368.7" y2="135.6"/>
	</g>
</g>
<rect x="1781.9" y="73.8" style="fill:none;stroke:#FFFFFF;stroke-width:3;stroke-linecap:round;stroke-linejoin:round;stroke-miterlimit:10;" width="34.4" height="46"/>
<path style="fill:none;stroke:#FFFFFF;stroke-width:3;stroke-linecap:round;stroke-linejoin:round;stroke-miterlimit:10;" d="
	M1781.9,73.8V63.1c0-3.6,3-6.6,6.6-6.6h21.2c3.6,0,6.6,3,6.6,6.6v10.7"/>
<line style="fill:none;stroke:#FFFFFF;stroke-width:3;stroke-linecap:round;stroke-linejoin:round;stroke-miterlimit:10;" x1="1781.9" y1="119.8" x2="1798.9" y2="152.5"/>
<line style="fill:none;stroke:#FFFFFF;stroke-width:3;stroke-linecap:round;stroke-linejoin:round;stroke-miterlimit:10;" x1="1816.4" y1="119.8" x2="1798.9" y2="152.5"/>
<line style="fill:none;stroke:#FFFFFF;stroke-width:3;stroke-linecap:round;stroke-linejoin:round;stroke-miterlimit:10;" x1="1790.4" y1="136.2" x2="1807.6" y2="136.2"/>
<line style="fill:none;stroke:#FFFFFF;stroke-width:3;stroke-linecap:round;stroke-linejoin:round;stroke-miterlimit:10;" x1="1792.3" y1="73.8" x2="1792.3" y2="119.8"/>
<line style="fill:none;stroke:#FFFFFF;stroke-width:3;stroke-linecap:round;stroke-linejoin:round;stroke-miterlimit:10;" x1="1805" y1="73.8" x2="1805" y2="119.8"/>
<circle style="fill:none;stroke:#FFFFFF;stroke-width:3;stroke-linecap:round;stroke-linejoin:round;stroke-miterlimit:10;" cx="1733" cy="99.8" r="6.8"/>
<circle style="fill:none;stroke:#FFFFFF;stroke-width:3;stroke-linecap:round;stroke-linejoin:round;stroke-miterlimit:10;" cx="1865.1" cy="99.8" r="6.8"/>
<path style="fill:none;stroke:#FFFFFF;stroke-width:3;stroke-linecap:round;stroke-linejoin:round;stroke-miterlimit:10;" d="
	M1865.1,106.6c0,36.4-29.5,65.9-65.9,65.9c-36.4,0-65.9-29.5-65.9-65.9"/>
<circle style="fill:#6A0084;stroke:#FFFFFF;stroke-width:3;stroke-miterlimit:10;" cx="1800.5" cy="172.5" r="6.8"/>
<g>
	<path style="fill:none;stroke:#FFFFFF;stroke-width:3;stroke-linecap:round;stroke-linejoin:round;stroke-miterlimit:10;" d="
		M2302.7,48.6c0.4,0.2,0.8,0.3,1.2,0.6c2.3,1.6,4.7,3.2,7,4.8c0.8,0.5,1.5,0.6,2.3,0.2c1.4-0.6,2.8-1.2,4.2-1.8
		c0.8-0.3,1.3-0.8,1.4-1.7c0.5-2.8,1.1-5.7,1.6-8.5c0.2-1.2,0.9-1.7,2.1-1.7c3.7,0,7.4,0,11,0c1.2,0,1.9,0.6,2.1,1.8
		c0.5,2.8,1.1,5.7,1.6,8.5c0.2,0.8,0.6,1.3,1.4,1.6c1.5,0.6,2.9,1.1,4.3,1.8c0.8,0.4,1.5,0.3,2.2-0.2c2.3-1.6,4.7-3.2,7-4.8
		c1.1-0.7,1.9-0.7,2.8,0.2c2.6,2.6,5.2,5.2,7.7,7.7c0.9,0.9,1,1.7,0.3,2.7c-1.6,2.3-3.2,4.7-4.8,7c-0.5,0.8-0.6,1.5-0.2,2.3
		c0.5,0.9,0.8,1.9,1.2,2.9c0.2,0.5,0.4,1,0.6,1.5c0.2,0.7,0.8,1,1.5,1.1c2.3,0.4,4.6,0.9,6.9,1.3c0.6,0.1,1.2,0.2,1.7,0.3
		c1,0.2,1.6,0.9,1.6,1.9c0,3.8,0,7.6,0,11.3c0,1-0.6,1.7-1.6,1.9c-2.9,0.5-5.7,1.1-8.6,1.6c-0.7,0.1-1.2,0.6-1.4,1.2
		c-0.6,1.6-1.3,3.1-1.9,4.6c-0.3,0.7-0.2,1.4,0.2,2c1.6,2.4,3.2,4.7,4.8,7.1c0.7,1,0.6,1.8-0.3,2.7c-2.6,2.6-5.2,5.2-7.7,7.7
		c-0.9,0.9-1.7,1-2.7,0.3c-1.5-1.1-3.1-2.1-4.6-3.2c-0.8-0.5-1.5-1.1-2.2-1.6c-0.7-0.5-1.5-0.6-2.3-0.2c-1.4,0.6-2.9,1.3-4.4,1.8
		c-0.8,0.3-1.2,0.8-1.4,1.6c-0.2,1-0.4,2.1-0.6,3.1c-0.2,0.9-0.4,1.9-0.6,2.8c-0.2,0.8-0.3,1.7-0.4,2.5c-0.2,1.2-0.8,1.8-2.1,1.8
		c-3.7,0-7.4,0-11.1,0c-1.2,0-1.8-0.5-2.1-1.7c-0.5-2.8-1.1-5.7-1.6-8.5c-0.2-0.8-0.6-1.3-1.4-1.6c-1.5-0.6-2.9-1.2-4.4-1.8
		c-0.8-0.3-1.4-0.3-2.1,0.1c-2.3,1.6-4.7,3.2-7.1,4.8c-1.1,0.7-1.9,0.7-2.8-0.3c-2.6-2.6-5.2-5.2-7.7-7.7c-0.9-0.9-1-1.7-0.2-2.7
		c1.6-2.3,3.2-4.7,4.8-7c0.5-0.7,0.5-1.4,0.2-2.2c-0.6-1.4-1.2-2.9-1.8-4.3c-0.3-0.8-0.8-1.3-1.6-1.4c-2.8-0.5-5.7-1.1-8.5-1.6
		c-1-0.2-1.6-0.9-1.6-1.9c0-3.8,0-7.6,0-11.4c0-1,0.6-1.7,1.6-1.9c2.8-0.5,5.6-1.1,8.4-1.6c0.9-0.2,1.5-0.6,1.8-1.5
		c0.5-1.4,1.1-2.7,1.7-4c0.4-0.8,0.3-1.5-0.2-2.2c-1.6-2.4-3.2-4.7-4.8-7.1c-0.7-1-0.6-1.8,0.3-2.7c2.6-2.6,5.2-5.2,7.8-7.8
		C2301.6,48.9,2302,48.7,2302.7,48.6z M2327.6,104.7c11.8,0,21.1-9.3,21.1-20.6c0-11.4-9.2-20.8-20.6-20.8c-5.7,0-10.6,2-14.7,6
		c-5,5-6.9,11.2-5.8,18.2c0.7,4.3,2.7,8,5.8,11.1C2317.4,102.6,2322.3,104.6,2327.6,104.7z"/>
	<path style="fill:none;stroke:#FFFFFF;stroke-width:3;stroke-linecap:round;stroke-linejoin:round;stroke-miterlimit:10;" d="
		M2327.6,104.7c-5.3-0.1-10.2-2.1-14.2-6.1c-3.1-3.1-5.1-6.8-5.8-11.1c-1.1-7,0.8-13.1,5.8-18.2c4-4,9-6,14.7-6
		c11.4,0,20.7,9.3,20.6,20.8C2348.7,95.4,2339.4,104.7,2327.6,104.7z"/>
	<path style="fill:none;stroke:#FFFFFF;stroke-width:3;stroke-linecap:round;stroke-linejoin:round;stroke-miterlimit:10;" d="
		M2352.1,126.3c0.3,0.1,0.6,0.1,0.9,0.2c1.8,0.8,3.6,1.5,5.5,2.3c0.6,0.3,1.1,0.2,1.6-0.2c0.9-0.6,1.8-1.2,2.7-1.8
		c0.5-0.3,0.8-0.7,0.8-1.3c0-2-0.1-4-0.1-6c0-0.8,0.4-1.3,1.2-1.4c2.5-0.5,5.1-1,7.6-1.5c0.8-0.2,1.4,0.1,1.7,0.9
		c0.7,1.9,1.5,3.7,2.3,5.6c0.2,0.5,0.6,0.8,1.2,0.9c1.1,0.2,2.1,0.4,3.2,0.6c0.6,0.1,1.1,0,1.5-0.4c1.4-1.4,2.8-2.8,4.2-4.3
		c0.6-0.7,1.2-0.7,1.9-0.2c2.1,1.4,4.3,2.8,6.4,4.3c0.7,0.5,0.9,1,0.6,1.8c-0.8,1.8-1.5,3.7-2.3,5.5c-0.3,0.6-0.2,1.1,0.2,1.6
		c0.4,0.6,0.8,1.2,1.2,1.8c0.2,0.3,0.4,0.6,0.6,0.9c0.3,0.5,0.7,0.6,1.2,0.6c1.6,0,3.3,0,4.9,0c0.4,0,0.8,0,1.2,0
		c0.7,0,1.2,0.4,1.3,1.1c0.5,2.6,1,5.2,1.6,7.8c0.1,0.7-0.2,1.3-0.8,1.5c-1.9,0.8-3.8,1.5-5.7,2.3c-0.5,0.2-0.7,0.5-0.8,1
		c-0.2,1.2-0.4,2.3-0.7,3.4c-0.1,0.5,0,1,0.4,1.4c1.4,1.4,2.9,2.8,4.3,4.2c0.6,0.6,0.7,1.2,0.2,1.9c-1.4,2.1-2.8,4.3-4.3,6.4
		c-0.5,0.7-1,0.9-1.8,0.6c-1.2-0.5-2.4-1-3.6-1.5c-0.6-0.3-1.2-0.5-1.8-0.8c-0.6-0.2-1.1-0.2-1.6,0.2c-0.9,0.6-1.8,1.3-2.7,1.8
		c-0.5,0.3-0.7,0.7-0.7,1.3c0,0.7,0,1.5,0,2.2c0,0.7,0,1.4,0,2c0,0.6,0,1.2,0.1,1.8c0,0.9-0.3,1.3-1.2,1.5c-2.5,0.5-5.1,1-7.6,1.5
		c-0.8,0.2-1.3-0.1-1.7-0.9c-0.8-1.9-1.5-3.7-2.3-5.6c-0.2-0.5-0.6-0.8-1.2-0.9c-1.1-0.2-2.2-0.4-3.2-0.6c-0.6-0.1-1,0-1.4,0.4
		c-1.4,1.4-2.8,2.9-4.2,4.3c-0.6,0.7-1.2,0.7-1.9,0.2c-2.1-1.4-4.3-2.8-6.4-4.3c-0.7-0.5-0.9-1-0.5-1.9c0.8-1.8,1.5-3.7,2.3-5.5
		c0.2-0.6,0.2-1.1-0.2-1.6c-0.6-0.9-1.2-1.8-1.8-2.7c-0.3-0.5-0.7-0.8-1.3-0.8c-2,0-4.1,0-6.1,0.1c-0.7,0-1.2-0.4-1.3-1.1
		c-0.5-2.6-1-5.2-1.6-7.8c-0.1-0.7,0.2-1.2,0.8-1.5c1.9-0.8,3.7-1.5,5.6-2.2c0.6-0.2,0.9-0.6,1-1.3c0.2-1,0.4-2,0.6-3
		c0.1-0.6,0-1.1-0.4-1.5c-1.4-1.4-2.9-2.8-4.3-4.2c-0.6-0.6-0.7-1.2-0.2-1.9c1.4-2.1,2.9-4.3,4.3-6.4
		C2351.3,126.7,2351.6,126.4,2352.1,126.3z M2376.9,161.5c8.1-1.6,13.3-9.3,11.7-17.1c-1.6-7.9-9.2-13-17-11.5
		c-3.9,0.8-7,2.8-9.3,6.2c-2.8,4.2-3.2,8.6-1.5,13.3c1,2.9,2.9,5.1,5.5,6.8C2369.6,161.4,2373.2,162.1,2376.9,161.5z"/>
	<path style="fill:none;stroke:#FFFFFF;stroke-width:3;stroke-linecap:round;stroke-linejoin:round;stroke-miterlimit:10;" d="
		M2376.9,161.5c-3.7,0.7-7.3,0-10.6-2.3c-2.5-1.7-4.4-4-5.5-6.8c-1.7-4.7-1.2-9.1,1.5-13.3c2.2-3.3,5.3-5.4,9.3-6.2
		c7.8-1.6,15.5,3.6,17,11.5C2390.1,152.2,2385,159.9,2376.9,161.5z"/>
</g>
<g>
	<text transform="matrix(1 0 0 1 2541.1689 283.6311)"><tspan x="0" y="0" style="font-family:'PFHighwaySansPro-Regular'; font-size:38px;">Доставляем заказ или</tspan><tspan x="9.1" y="45.6" style="font-family:'PFHighwaySansPro-Regular'; font-size:38px;">отгружаем со склада</tspan></text>
</g>
<g>
	<path style="fill:none;stroke:#FFFFFF;stroke-width:3;stroke-linecap:round;stroke-linejoin:round;stroke-miterlimit:10;" d="
		M925.3,432.2c4.1,1.3,6.7,4.4,8.9,7.8c2.6,3.9,5,7.9,7.3,12c1.7,3,2.5,6.3,1.8,9.9c-0.4,2.2-1.5,4.1-3.2,5.6
		c-2.3,2.1-4.5,4.2-7.1,5.9c-4.9,3.4-11.2,11.9-6.9,20.7c1.7,4.9,13.7,18.7,19,22.9c2.9,2.4,5.9,4.5,9.7,5.4c6.2,2.2,12-3,14.5-5.4
		c2.4-2.3,4.7-4.5,7.2-6.6c4.1-3.5,8.7-3.6,13.3-1.2c1.5,0.8,3.1,1.6,4.4,2.7c4.8,3.8,9.8,7.5,13.5,12.5c3.1,4.1,2.8,8.1-1,11.6
		c-3.7,3.4-7.2,7-11.6,9.4c-4.5,2.5-9.3,4.2-14.5,4.7c-0.3,0-0.7,0.1-1,0.2c-2,0-4,0-6,0c-0.2-0.1-0.3-0.2-0.5-0.2
		c-8.5-0.7-16.1-3.9-23.2-8.3c-8.3-5.1-15.5-11.6-22.1-18.7c-8.5-9.1-16.1-18.9-21.6-30.1c-4.7-9.5-7.5-19.5-6.1-30.3
		c0.8-6.5,3.2-12.4,7.1-17.6c2.5-3.3,5.7-5.8,8.7-8.5c2.1-1.8,4.1-3.6,6.8-4.4C923.6,432.2,924.5,432.2,925.3,432.2z"/>
</g>
<polyline style="fill:none;stroke:#FFFFFF;stroke-width:2.5;stroke-linecap:round;stroke-linejoin:round;stroke-miterlimit:10;" points="
	1403,519.1 1403,543.1 1364.3,557.3 1364.3,516.2 1403,501.1 1416.7,512.9 1381.5,529.2 "/>
<line style="fill:none;stroke:#FFFFFF;stroke-width:2.5;stroke-linecap:round;stroke-linejoin:round;stroke-miterlimit:10;" x1="1381.5" y1="529.2" x2="1364.3" y2="516.2"/>
<g>
	
		<polyline style="fill:none;stroke:#FFFFFF;stroke-width:2.5;stroke-linecap:round;stroke-linejoin:round;stroke-miterlimit:10;" points="
		1325.7,519.1 1325.7,543.1 1364.5,557.3 1364.5,516.2 1325.7,501.1 1312.1,512.9 1347.3,529.2 	"/>
	
		<line style="fill:none;stroke:#FFFFFF;stroke-width:2.5;stroke-linecap:round;stroke-linejoin:round;stroke-miterlimit:10;" x1="1347.3" y1="529.2" x2="1364.5" y2="516.2"/>
</g>
<polyline style="fill:none;stroke:#FFFFFF;stroke-width:2.5;stroke-linecap:round;stroke-linejoin:round;stroke-miterlimit:10;" points="
	1403,501.1 1376.1,491 1376.1,506.4 1352.5,506.4 1352.5,501.1 1352.5,491.2 1376.1,491 "/>
<path style="fill:none;stroke:#FFFFFF;stroke-width:2.5;stroke-linecap:round;stroke-linejoin:round;stroke-miterlimit:10;" d="
	M1384.7,475.9"/>
<line style="fill:none;stroke:#FFFFFF;stroke-width:2.5;stroke-linecap:round;stroke-linejoin:round;stroke-miterlimit:10;" x1="1374.6" y1="499.3" x2="1352.5" y2="499.3"/>
<path style="fill:none;stroke:#FFFFFF;stroke-width:2.5;stroke-linecap:round;stroke-linejoin:round;stroke-miterlimit:10;" d="
	M1364.3,427.4c7.1,0,27.5,2,29.6,29.8c0.2,14.8-16.3,21.6-17.8,33.8"/>
<polyline style="fill:none;stroke:#FFFFFF;stroke-width:2.5;stroke-linecap:round;stroke-linejoin:round;stroke-miterlimit:10;" points="
	1325.7,501.1 1352.7,491 1352.7,506.4 1376.3,506.4 1376.3,501.1 1376.3,491.2 1352.7,491 "/>
<path style="fill:none;stroke:#FFFFFF;stroke-width:2.5;stroke-linecap:round;stroke-linejoin:round;stroke-miterlimit:10;" d="
	M1344.1,475.9"/>
<line style="fill:none;stroke:#FFFFFF;stroke-width:2.5;stroke-linecap:round;stroke-linejoin:round;stroke-miterlimit:10;" x1="1354.1" y1="499.3" x2="1376.3" y2="499.3"/>
<path style="fill:none;stroke:#FFFFFF;stroke-width:2.5;stroke-linecap:round;stroke-linejoin:round;stroke-miterlimit:10;" d="
	M1364.5,427.4c-9.7,0-27.5,2-29.6,29.8c-0.2,14.8,16.3,21.6,17.8,33.8"/>
<g>
	<path style="fill:none;stroke:#FFFFFF;stroke-width:3;stroke-linecap:round;stroke-linejoin:round;stroke-miterlimit:10;" d="
		M1738.2,476.9c-0.3-6.6,1.3-12,4.8-16.3c3.5-4.3,8.7-6.4,15.7-6.5c6.1-0.1,11.1,1.6,14.9,5c3.8,3.4,5.7,8,5.9,13.8
		c0,3.8-1.1,7-2.8,9.9c-3.2,5.5-14.1,5-17.5,6.4l0,0.2c4.3,0.6,15.8-1.2,19.7,5.7c2.1,3.6,3.8,7.2,3.9,11.9c0,6.7-2,12-6,15.9
		c-4,4-9.7,6-16.9,6.2c-6.8,0-12.2-1.9-16.2-5.8c-4-3.9-6.1-9.2-6.3-15.9"/>
	<path style="fill:none;stroke:#FFFFFF;stroke-width:3;stroke-linecap:round;stroke-linejoin:round;stroke-miterlimit:10;" d="
		M1797.2,453.7l0.8,73.7l17.7-0.2c13.2-0.1,22.7-3.2,28.4-9.3c5.7-6.1,8.5-15.5,8.3-28c-0.1-11.8-3.1-20.9-8.9-27.2
		c-5.8-6.3-13.9-9.4-24.3-9.3L1797.2,453.7z"/>
</g>
<text transform="matrix(0.9999 -1.086000e-02 1.086000e-02 0.9999 1628.9452 658.6683)"><tspan x="0" y="0" style="font-family:'PFHighwaySansPro-Regular'; font-size:38px;">Согласоваем с вами</tspan><tspan x="-18.5" y="45.6" style="font-family:'PFHighwaySansPro-Regular'; font-size:38px;">3D-модель и пробный</tspan><tspan x="94.7" y="91.2" style="font-family:'PFHighwaySansPro-Regular'; font-size:38px;">образец</tspan></text>
<polyline style="fill:none;stroke:#FFFFFF;stroke-width:2.5;stroke-linecap:round;stroke-linejoin:round;stroke-miterlimit:10;" points="
	1360.7,491 1349.7,447.2 1357.3,452.6 1362.8,447.2 1365.9,452.9 1376.8,446.9 1367.3,491 "/>
<text transform="matrix(1 7.920001e-03 -7.920001e-03 1 37.1953 504.2311)" style="font-family:'PFHighwaySansPro-Regular'; font-size:65.2218px;">2</text>
<g>
	<text transform="matrix(1 0 0 1 210.0415 111.3545)"><tspan x="0" y="0" style="font-family:'PFHighwaySansPro-Regular'; font-size:38px;">Выбрать и заказать упаковку</tspan><tspan x="77.9" y="45.6" style="font-family:'PFHighwaySansPro-Regular'; font-size:38px;">из онлайн-каталога</tspan></text>
</g>
<path style="fill:#399110;" d="M2802.5,216H2629c-11.7,0-21.2-9.5-21.2-21.2V21.2c0-11.7,9.5-21.2,21.2-21.2h173.5
	c11.7,0,21.2,9.5,21.2,21.2v173.5C2823.8,206.5,2814.2,216,2802.5,216z"/>
<g>
	<g>
		
			<line style="fill:none;stroke:#FFFFFF;stroke-width:3;stroke-linecap:round;stroke-linejoin:round;stroke-miterlimit:10;" x1="2717.4" y1="136" x2="2760.4" y2="136"/>
		<path style="fill:none;stroke:#FFFFFF;stroke-width:3;stroke-linecap:round;stroke-linejoin:round;stroke-miterlimit:10;" d="
			M2697,136c0,0-0.1,0-7.9,0c-7.7,0-10.9-5.7-10.9-10.2c0-13.2,0-35.4,0-36.6c0-1.5-1.2-12.1,11.4-12.1c4.2,0,45.8,0,59.7,0
			c7.2,0,16.1,7.6,16.1,7.6l32,24.2c0,0,4.7,2.7,3.5,10c0,5.1,0,6.2,0,6.2s1.2,11-9.5,11c-10.7,0-10.7,0-10.7,0"/>
		<g>
			<path style="fill:#FFFFFF;" d="M2707.2,128.8c4,0,7.2,3.2,7.2,7.2c0,4-3.2,7.2-7.2,7.2c-4,0-7.2-3.2-7.2-7.2
				C2700,132,2703.2,128.8,2707.2,128.8 M2707.2,125.8c-5.6,0-10.2,4.6-10.2,10.2c0,5.6,4.6,10.2,10.2,10.2
				c5.6,0,10.2-4.6,10.2-10.2C2717.4,130.3,2712.8,125.8,2707.2,125.8L2707.2,125.8z"/>
		</g>
		<g>
			<path style="fill:#FFFFFF;" d="M2770.6,128.8c4,0,7.2,3.2,7.2,7.2c0,4-3.2,7.2-7.2,7.2c-4,0-7.2-3.2-7.2-7.2
				C2763.4,132,2766.6,128.8,2770.6,128.8 M2770.6,125.8c-5.6,0-10.2,4.6-10.2,10.2c0,5.6,4.6,10.2,10.2,10.2
				c5.6,0,10.2-4.6,10.2-10.2C2780.8,130.3,2776.2,125.8,2770.6,125.8L2770.6,125.8z"/>
		</g>
	</g>
	
		<line style="fill:none;stroke:#FFFFFF;stroke-width:3;stroke-linecap:round;stroke-linejoin:round;stroke-miterlimit:10;" x1="2648.3" y1="89.5" x2="2671.4" y2="89.5"/>
	
		<line style="fill:none;stroke:#FFFFFF;stroke-width:3;stroke-linecap:round;stroke-linejoin:round;stroke-miterlimit:10;" x1="2624.7" y1="103.2" x2="2671.4" y2="103.2"/>
	
		<line style="fill:none;stroke:#FFFFFF;stroke-width:3;stroke-linecap:round;stroke-linejoin:round;stroke-miterlimit:10;" x1="2645.9" y1="115.7" x2="2671.4" y2="115.7"/>
</g>
</svg>
