<?xml version="1.0" encoding="utf-8"?>
<!-- Generator: Adobe Illustrator 19.1.0, SVG Export Plug-In . SVG Version: 6.00 Build 0)  -->
<svg version="1.1" id="_x2014_лой_x5F_1" xmlns="http://www.w3.org/2000/svg" xmlns:xlink="http://www.w3.org/1999/xlink"
	 x="0px" y="0px" viewBox="0 0 536.4 524.6" style="enable-background:new 0 0 536.4 524.6;" xml:space="preserve">
<path style="fill:#E8E8E8;stroke:#FFFFFF;stroke-miterlimit:10;" d="M498,81.1H38.5c-8.3,0-15.1-6.7-15.1-15.1V15.6
	c0-8.3,6.7-15.1,15.1-15.1H498c8.3,0,15.1,6.7,15.1,15.1V66C513.1,74.3,506.3,81.1,498,81.1z"/>
<g>
	<text transform="matrix(1 0 0 1 151.2526 33.125)"><tspan x="0" y="0" style="font-family:'PFHighwaySansPro-Regular'; font-size:23.7846px;">Разработать и изготовить</tspan><tspan x="-3.4" y="28.5" style="font-family:'PFHighwaySansPro-Regular'; font-size:23.7846px;">индивидуальную упаковку</tspan></text>
</g>
<text transform="matrix(1 7.920001e-03 -7.920001e-03 1 55.2298 52.1094)" style="font-family:'PFHighwaySansPro-Regular'; font-size:41.8622px;">2</text>
<g>
	<path style="fill:#001756;" d="M472.4,238.2h-88.7c-6,0-10.8-4.9-10.8-10.8v-88.7c0-6,4.9-10.8,10.8-10.8h88.7
		c6,0,10.8,4.9,10.8,10.8v88.7C483.2,233.4,478.4,238.2,472.4,238.2z"/>
	<g>
		<path style="fill:none;stroke:#FFFFFF;stroke-width:2;stroke-linecap:round;stroke-linejoin:round;stroke-miterlimit:10;" d="
			M400.7,173.6c-0.1-3.4,0.7-6.2,2.4-8.3c1.8-2.2,4.4-3.3,8-3.3c3.1,0,5.7,0.8,7.6,2.6c1.9,1.7,2.9,4.1,3,7c0,1.9-0.5,3.6-1.4,5.1
			c-1.6,2.8-7.2,2.6-9,3.3l0,0.1c2.2,0.3,8.1-0.6,10.1,2.9c1.1,1.8,2,3.7,2,6.1c0,3.4-1,6.1-3.1,8.1c-2.1,2-4.9,3.1-8.6,3.1
			c-3.5,0-6.2-1-8.3-3c-2.1-2-3.1-4.7-3.2-8.1"/>
		<path style="fill:none;stroke:#FFFFFF;stroke-width:2;stroke-linecap:round;stroke-linejoin:round;stroke-miterlimit:10;" d="
			M430.8,161.7l0.4,37.7l9.1-0.1c6.8,0,11.6-1.6,14.5-4.7c2.9-3.1,4.3-7.9,4.3-14.3c-0.1-6-1.6-10.7-4.5-13.9
			c-3-3.2-7.1-4.8-12.4-4.8L430.8,161.7z"/>
	</g>
	<path style="fill:#399110;" d="M407.5,464h-90.4c-6.1,0-11.1-4.9-11.1-11.1v-90.4c0-6.1,4.9-11.1,11.1-11.1h90.4
		c6.1,0,11.1,4.9,11.1,11.1v90.4C418.6,459,413.6,464,407.5,464z"/>
	<g>
		<g>
			
				<line style="fill:none;stroke:#FFFFFF;stroke-width:2;stroke-linecap:round;stroke-linejoin:round;stroke-miterlimit:10;" x1="362.6" y1="420.7" x2="385.4" y2="420.7"/>
			<path style="fill:none;stroke:#FFFFFF;stroke-width:2;stroke-linecap:round;stroke-linejoin:round;stroke-miterlimit:10;" d="
				M351.8,420.7c0,0-0.1,0-4.2,0c-4.1,0-5.8-3-5.8-5.4c0-7,0-18.8,0-19.5c0-0.8-0.6-6.4,6.1-6.4c2.2,0,24.3,0,31.7,0
				c3.8,0,8.5,4.1,8.5,4.1l17,12.8c0,0,2.5,1.4,1.8,5.3c0,2.7,0,3.3,0,3.3s0.6,5.8-5,5.8c-5.7,0-5.7,0-5.7,0"/>
			<g>
				<path style="fill:#FFFFFF;" d="M357.2,417.3c1.9,0,3.4,1.5,3.4,3.4c0,1.9-1.5,3.4-3.4,3.4c-1.9,0-3.4-1.5-3.4-3.4
					C353.8,418.8,355.3,417.3,357.2,417.3 M357.2,415.3c-3,0-5.4,2.4-5.4,5.4c0,3,2.4,5.4,5.4,5.4c3,0,5.4-2.4,5.4-5.4
					C362.6,417.7,360.2,415.3,357.2,415.3L357.2,415.3z"/>
			</g>
			<g>
				<path style="fill:#FFFFFF;" d="M390.8,417.3c1.9,0,3.4,1.5,3.4,3.4c0,1.9-1.5,3.4-3.4,3.4c-1.9,0-3.4-1.5-3.4-3.4
					C387.4,418.8,388.9,417.3,390.8,417.3 M390.8,415.3c-3,0-5.4,2.4-5.4,5.4c0,3,2.4,5.4,5.4,5.4c3,0,5.4-2.4,5.4-5.4
					C396.2,417.7,393.8,415.3,390.8,415.3L390.8,415.3z"/>
			</g>
		</g>
		
			<line style="fill:none;stroke:#FFFFFF;stroke-width:2;stroke-linecap:round;stroke-linejoin:round;stroke-miterlimit:10;" x1="325.9" y1="396" x2="338.2" y2="396"/>
		
			<line style="fill:none;stroke:#FFFFFF;stroke-width:2;stroke-linecap:round;stroke-linejoin:round;stroke-miterlimit:10;" x1="313.4" y1="403.3" x2="338.2" y2="403.3"/>
		
			<line style="fill:none;stroke:#FFFFFF;stroke-width:2;stroke-linecap:round;stroke-linejoin:round;stroke-miterlimit:10;" x1="324.6" y1="409.9" x2="338.2" y2="409.9"/>
	</g>
	<g>
		<g>
			<path style="fill:none;stroke:#585858;stroke-linecap:round;stroke-linejoin:round;stroke-dasharray:1,5;" d="M509.4,181.7
				c14.7,0,26.6,11.9,26.6,26.6V300c0,14.7-11.9,26.6-26.6,26.6l-426.2-2.8c-14.7,0-26.6,11.9-26.6,26.6v35.2
				c0,14.7,11.9,26.6,26.6,26.6h12.2"/>
			<g>
				<polygon style="fill:#585858;" points="92,416.1 91.4,415.4 95,412 91.4,408.6 92,407.9 96.4,412 				"/>
			</g>
		</g>
	</g>
	<g>
		<path style="fill:none;" d="M481.8,181.7"/>
	</g>
	<g>
		<g>
			<path style="fill:none;stroke:#585858;stroke-linecap:round;stroke-linejoin:round;stroke-dasharray:1,5;" d="M228.4,182.5
				c0,0,115.6,0,129.8,0"/>
			<g>
				<polygon style="fill:#585858;" points="354.9,186.6 354.2,185.8 357.8,182.5 354.2,179.1 354.9,178.4 359.3,182.5 				"/>
			</g>
		</g>
	</g>
	<g>
		<g>
			<path style="fill:none;stroke:#585858;stroke-linecap:round;stroke-linejoin:round;stroke-dasharray:1,5;" d="M148.7,411.8
				c0,0,125,0,139.9,0"/>
			<g>
				<polygon style="fill:#585858;" points="285.3,415.9 284.7,415.2 288.3,411.8 284.7,408.5 285.3,407.8 289.7,411.8 				"/>
			</g>
		</g>
	</g>
	<g>
		<g>
			<path style="fill:none;stroke:#585858;stroke-linecap:round;stroke-linejoin:round;stroke-dasharray:1,5;" d="M52.5,182.5
				c0,0,115.1,0,129.3,0"/>
			<g>
				<polygon style="fill:#585858;" points="178.4,186.6 177.8,185.8 181.4,182.5 177.8,179.1 178.4,178.4 182.8,182.5 				"/>
			</g>
		</g>
	</g>
	<text transform="matrix(1 0 0 1 -9.857178e-02 266.1863)"><tspan x="0" y="0" style="font-family:'PFHighwaySansPro-Regular'; font-size:19.7902px;">Объясняете нам</tspan><tspan x="39.9" y="23.7" style="font-family:'PFHighwaySansPro-Regular'; font-size:19.7902px;">задачу</tspan></text>
	<text transform="matrix(1 0 0 1 183.8268 266.7858)"><tspan x="0" y="0" style="font-family:'PFHighwaySansPro-Regular'; font-size:19.6024px;">Разрабатываем</tspan><tspan x="11.1" y="23.5" style="font-family:'PFHighwaySansPro-Regular'; font-size:19.6024px;">конструкцию</tspan><tspan x="27.9" y="47" style="font-family:'PFHighwaySansPro-Regular'; font-size:19.6024px;">и дизайн</tspan></text>
	<text transform="matrix(1 0 0 1 363.4199 266.7741)"><tspan x="0" y="0" style="font-family:'PFHighwaySansPro-Regular'; font-size:19.6024px;">Согласовываем</tspan><tspan x="18.7" y="23.5" style="font-family:'PFHighwaySansPro-Regular'; font-size:19.6024px;">3D-модель</tspan><tspan x="-16.2" y="47" style="font-family:'PFHighwaySansPro-Regular'; font-size:19.6024px;">и пробный образец</tspan></text>
	<g>
		<text transform="matrix(1 0 0 1 96.0314 495.9986)"><tspan x="0" y="0" style="font-family:'PFHighwaySansPro-Regular'; font-size:19.7313px;">Изготавливаем</tspan><tspan x="22.2" y="23.7" style="font-family:'PFHighwaySansPro-Regular'; font-size:19.7313px;">ваш заказ</tspan></text>
	</g>
	<path style="fill:#5C6E7F;" d="M205.4,462.3h-90.1c-6.1,0-11-4.9-11-11v-90.1c0-6.1,4.9-11,11-11h90.1c6.1,0,11,4.9,11,11v90.1
		C216.4,457.4,211.5,462.3,205.4,462.3z"/>
	<g>
		<path style="fill:none;stroke:#FFFFFF;stroke-width:2;stroke-linecap:round;stroke-linejoin:round;stroke-miterlimit:10;" d="
			M140.5,372.5c0.2,0.1,0.4,0.2,0.6,0.3c1.2,0.8,2.4,1.6,3.6,2.5c0.4,0.3,0.8,0.3,1.2,0.1c0.7-0.3,1.5-0.6,2.2-0.9
			c0.4-0.2,0.7-0.4,0.7-0.9c0.3-1.5,0.5-2.9,0.8-4.4c0.1-0.6,0.5-0.9,1.1-0.9c1.9,0,3.8,0,5.7,0c0.6,0,1,0.3,1.1,0.9
			c0.3,1.5,0.5,2.9,0.8,4.4c0.1,0.4,0.3,0.7,0.7,0.8c0.8,0.3,1.5,0.6,2.2,0.9c0.4,0.2,0.8,0.2,1.1-0.1c1.2-0.8,2.4-1.7,3.6-2.5
			c0.6-0.4,1-0.3,1.4,0.1c1.3,1.3,2.7,2.7,4,4c0.5,0.5,0.5,0.9,0.1,1.4c-0.8,1.2-1.7,2.4-2.5,3.6c-0.3,0.4-0.3,0.8-0.1,1.2
			c0.2,0.5,0.4,1,0.6,1.5c0.1,0.3,0.2,0.5,0.3,0.8c0.1,0.4,0.4,0.5,0.8,0.6c1.2,0.2,2.4,0.5,3.6,0.7c0.3,0.1,0.6,0.1,0.9,0.2
			c0.5,0.1,0.8,0.5,0.8,1c0,2,0,3.9,0,5.9c0,0.5-0.3,0.9-0.8,1c-1.5,0.3-3,0.6-4.5,0.9c-0.4,0.1-0.6,0.3-0.7,0.6
			c-0.3,0.8-0.7,1.6-1,2.4c-0.2,0.4-0.1,0.7,0.1,1.1c0.8,1.2,1.7,2.5,2.5,3.7c0.4,0.5,0.3,1-0.1,1.4c-1.3,1.3-2.7,2.7-4,4
			c-0.5,0.5-0.9,0.5-1.4,0.1c-0.8-0.5-1.6-1.1-2.4-1.6c-0.4-0.3-0.8-0.6-1.2-0.8c-0.4-0.3-0.8-0.3-1.2-0.1c-0.7,0.3-1.5,0.7-2.3,0.9
			c-0.4,0.2-0.6,0.4-0.7,0.8c-0.1,0.5-0.2,1.1-0.3,1.6c-0.1,0.5-0.2,1-0.3,1.5c-0.1,0.4-0.1,0.9-0.2,1.3c-0.1,0.6-0.4,0.9-1.1,0.9
			c-1.9,0-3.8,0-5.8,0c-0.6,0-1-0.3-1.1-0.9c-0.3-1.5-0.6-2.9-0.8-4.4c-0.1-0.4-0.3-0.7-0.7-0.8c-0.8-0.3-1.5-0.6-2.3-0.9
			c-0.4-0.2-0.7-0.2-1.1,0.1c-1.2,0.8-2.4,1.7-3.7,2.5c-0.6,0.4-1,0.3-1.4-0.1c-1.3-1.3-2.7-2.7-4-4c-0.5-0.5-0.5-0.9-0.1-1.4
			c0.8-1.2,1.7-2.4,2.5-3.6c0.3-0.4,0.3-0.7,0.1-1.2c-0.3-0.7-0.6-1.5-0.9-2.2c-0.2-0.4-0.4-0.7-0.8-0.7c-1.5-0.3-2.9-0.6-4.4-0.8
			c-0.5-0.1-0.8-0.5-0.8-1c0-2,0-3.9,0-5.9c0-0.5,0.3-0.9,0.8-1c1.5-0.3,2.9-0.6,4.4-0.8c0.5-0.1,0.8-0.3,0.9-0.8
			c0.3-0.7,0.6-1.4,0.9-2.1c0.2-0.4,0.2-0.8-0.1-1.1c-0.8-1.2-1.7-2.5-2.5-3.7c-0.4-0.5-0.3-0.9,0.1-1.4c1.4-1.4,2.7-2.7,4.1-4.1
			C139.9,372.7,140.2,372.5,140.5,372.5z M153.4,401.6c6.1,0,11-4.8,11-10.7c0-5.9-4.8-10.8-10.7-10.8c-3,0-5.5,1-7.6,3.1
			c-2.6,2.6-3.6,5.8-3,9.4c0.3,2.2,1.4,4.2,3,5.8C148.1,400.5,150.7,401.6,153.4,401.6z"/>
		<path style="fill:none;stroke:#FFFFFF;stroke-width:2;stroke-linecap:round;stroke-linejoin:round;stroke-miterlimit:10;" d="
			M153.4,401.6c-2.7-0.1-5.3-1.1-7.4-3.2c-1.6-1.6-2.7-3.5-3-5.8c-0.5-3.6,0.4-6.8,3-9.4c2.1-2.1,4.7-3.1,7.6-3.1
			c5.9,0,10.7,4.8,10.7,10.8C164.4,396.8,159.6,401.6,153.4,401.6z"/>
		<path style="fill:none;stroke:#FFFFFF;stroke-width:2;stroke-linecap:round;stroke-linejoin:round;stroke-miterlimit:10;" d="
			M166.1,412.9c0.2,0,0.3,0.1,0.5,0.1c0.9,0.4,1.9,0.8,2.8,1.2c0.3,0.1,0.6,0.1,0.8-0.1c0.4-0.3,0.9-0.6,1.4-0.9
			c0.3-0.2,0.4-0.4,0.4-0.7c0-1,0-2.1,0-3.1c0-0.4,0.2-0.7,0.6-0.8c1.3-0.3,2.6-0.5,3.9-0.8c0.4-0.1,0.7,0.1,0.9,0.5
			c0.4,1,0.8,1.9,1.2,2.9c0.1,0.3,0.3,0.4,0.6,0.5c0.6,0.1,1.1,0.2,1.7,0.3c0.3,0.1,0.6,0,0.8-0.2c0.7-0.7,1.4-1.5,2.2-2.2
			c0.3-0.3,0.6-0.4,1-0.1c1.1,0.7,2.2,1.5,3.3,2.2c0.4,0.3,0.5,0.5,0.3,1c-0.4,0.9-0.8,1.9-1.2,2.8c-0.1,0.3-0.1,0.6,0.1,0.8
			c0.2,0.3,0.4,0.6,0.6,0.9c0.1,0.2,0.2,0.3,0.3,0.5c0.1,0.2,0.4,0.3,0.6,0.3c0.9,0,1.7,0,2.6,0c0.2,0,0.4,0,0.6,0
			c0.4,0,0.6,0.2,0.7,0.6c0.3,1.3,0.5,2.7,0.8,4c0.1,0.4-0.1,0.7-0.4,0.8c-1,0.4-2,0.8-3,1.2c-0.2,0.1-0.4,0.3-0.4,0.5
			c-0.1,0.6-0.2,1.2-0.4,1.8c-0.1,0.3,0,0.5,0.2,0.7c0.7,0.7,1.5,1.5,2.2,2.2c0.3,0.3,0.4,0.6,0.1,1c-0.7,1.1-1.5,2.2-2.2,3.3
			c-0.3,0.4-0.5,0.5-1,0.3c-0.6-0.3-1.3-0.5-1.9-0.8c-0.3-0.1-0.6-0.3-0.9-0.4c-0.3-0.1-0.6-0.1-0.8,0.1c-0.5,0.3-0.9,0.7-1.4,1
			c-0.3,0.2-0.4,0.4-0.4,0.7c0,0.4,0,0.8,0,1.2c0,0.4,0,0.7,0,1.1c0,0.3,0,0.6,0,0.9c0,0.4-0.2,0.7-0.6,0.8c-1.3,0.3-2.6,0.5-4,0.8
			c-0.4,0.1-0.7-0.1-0.9-0.5c-0.4-1-0.8-1.9-1.2-2.9c-0.1-0.3-0.3-0.4-0.6-0.5c-0.6-0.1-1.1-0.2-1.7-0.3c-0.3-0.1-0.5,0-0.7,0.2
			c-0.7,0.7-1.5,1.5-2.2,2.2c-0.3,0.3-0.6,0.4-1,0.1c-1.1-0.7-2.2-1.5-3.3-2.2c-0.4-0.3-0.5-0.5-0.3-1c0.4-0.9,0.8-1.9,1.2-2.8
			c0.1-0.3,0.1-0.5-0.1-0.8c-0.3-0.5-0.6-0.9-0.9-1.4c-0.2-0.3-0.4-0.4-0.7-0.4c-1.1,0-2.1,0-3.2,0c-0.4,0-0.6-0.2-0.7-0.6
			c-0.3-1.4-0.5-2.7-0.8-4.1c-0.1-0.4,0.1-0.6,0.4-0.8c1-0.4,1.9-0.8,2.9-1.2c0.3-0.1,0.5-0.3,0.5-0.7c0.1-0.5,0.2-1,0.3-1.5
			c0.1-0.3,0-0.6-0.2-0.8c-0.7-0.7-1.5-1.5-2.2-2.2c-0.3-0.3-0.4-0.6-0.1-1c0.7-1.1,1.5-2.2,2.2-3.3
			C165.8,413.1,165.9,412.9,166.1,412.9z M179,431.1c4.2-0.8,6.9-4.8,6.1-8.9c-0.8-4.1-4.8-6.8-8.8-6c-2,0.4-3.7,1.5-4.8,3.2
			c-1.4,2.2-1.7,4.5-0.8,6.9c0.5,1.5,1.5,2.7,2.8,3.6C175.2,431.1,177.1,431.5,179,431.1z"/>
		<path style="fill:none;stroke:#FFFFFF;stroke-width:2;stroke-linecap:round;stroke-linejoin:round;stroke-miterlimit:10;" d="
			M179,431.1c-1.9,0.3-3.8,0-5.5-1.2c-1.3-0.9-2.3-2.1-2.8-3.6c-0.9-2.4-0.6-4.7,0.8-6.9c1.1-1.7,2.8-2.8,4.8-3.2
			c4.1-0.8,8,1.9,8.8,6C185.9,426.3,183.2,430.3,179,431.1z"/>
	</g>
	<g>
		<text transform="matrix(1 0 0 1 260.9369 495.8873)"><tspan x="0" y="0" style="font-family:'PFHighwaySansPro-Regular'; font-size:19.7313px;">Доставляем заказ или</tspan><tspan x="4.7" y="23.7" style="font-family:'PFHighwaySansPro-Regular'; font-size:19.7313px;">отгружаем со склада</tspan></text>
	</g>
	<path style="fill:#0667B7;" d="M113.4,237.7H24.7c-6,0-10.8-4.9-10.8-10.8v-88.7c0-6,4.9-10.8,10.8-10.8h88.7
		c6,0,10.8,4.9,10.8,10.8v88.7C124.2,232.8,119.4,237.7,113.4,237.7z"/>
	<g>
		<path style="fill:none;stroke:#FFFFFF;stroke-width:2;stroke-linecap:round;stroke-linejoin:round;stroke-miterlimit:10;" d="
			M54.6,150.2c2.1,0.7,3.4,2.2,4.6,4c1.3,2,2.6,4,3.7,6.1c0.8,1.5,1.3,3.2,0.9,5.1c-0.2,1.1-0.8,2.1-1.6,2.9c-1.2,1.1-2.3,2.1-3.6,3
			c-2.5,1.7-5.7,6.1-3.5,10.6c0.9,2.5,7,9.5,9.7,11.7c1.5,1.2,3,2.3,5,2.7c3.2,1.1,6.2-1.6,7.4-2.8c1.2-1.2,2.4-2.3,3.7-3.4
			c2.1-1.8,4.4-1.8,6.8-0.6c0.8,0.4,1.6,0.8,2.3,1.4c2.5,1.9,5,3.8,6.9,6.4c1.6,2.1,1.4,4.2-0.5,5.9c-1.9,1.7-3.7,3.6-5.9,4.8
			c-2.3,1.3-4.8,2.1-7.4,2.4c-0.2,0-0.3,0.1-0.5,0.1c-1,0-2,0-3.1,0c-0.1,0-0.2-0.1-0.3-0.1c-4.3-0.4-8.2-2-11.9-4.2
			c-4.2-2.6-7.9-5.9-11.3-9.6c-4.3-4.7-8.2-9.7-11-15.4c-2.4-4.9-3.8-10-3.1-15.5c0.4-3.3,1.6-6.3,3.6-9c1.3-1.7,2.9-3,4.5-4.3
			c1.1-0.9,2.1-1.8,3.5-2.2C53.7,150.2,54.2,150.2,54.6,150.2z"/>
	</g>
	<path style="fill:#B54DCE;" d="M293.4,237.7h-88.7c-6,0-10.8-4.9-10.8-10.8v-88.7c0-6,4.9-10.8,10.8-10.8h88.7
		c6,0,10.8,4.9,10.8,10.8v88.7C304.2,232.8,299.4,237.7,293.4,237.7z"/>
	
		<polyline style="fill:none;stroke:#FFFFFF;stroke-width:2;stroke-linecap:round;stroke-linejoin:round;stroke-miterlimit:10;" points="
		269,194.6 269,206.9 249.2,214.1 249.2,193.1 269,185.4 276,191.4 258,199.7 	"/>
	
		<line style="fill:none;stroke:#FFFFFF;stroke-width:2;stroke-linecap:round;stroke-linejoin:round;stroke-miterlimit:10;" x1="258" y1="199.7" x2="249.2" y2="193.1"/>
	<g>
		
			<polyline style="fill:none;stroke:#FFFFFF;stroke-width:2;stroke-linecap:round;stroke-linejoin:round;stroke-miterlimit:10;" points="
			229.5,194.6 229.5,206.9 249.3,214.1 249.3,193.1 229.5,185.4 222.6,191.4 240.5,199.7 		"/>
		
			<line style="fill:none;stroke:#FFFFFF;stroke-width:2;stroke-linecap:round;stroke-linejoin:round;stroke-miterlimit:10;" x1="240.5" y1="199.7" x2="249.3" y2="193.1"/>
	</g>
	
		<polyline style="fill:none;stroke:#FFFFFF;stroke-width:2;stroke-linecap:round;stroke-linejoin:round;stroke-miterlimit:10;" points="
		269,185.4 255.3,180.2 255.3,188.1 243.2,188.1 243.2,185.4 243.2,180.3 255.3,180.2 	"/>
	<path style="fill:none;stroke:#FFFFFF;stroke-width:2;stroke-linecap:round;stroke-linejoin:round;stroke-miterlimit:10;" d="
		M259.6,172.5"/>
	
		<line style="fill:none;stroke:#FFFFFF;stroke-width:2;stroke-linecap:round;stroke-linejoin:round;stroke-miterlimit:10;" x1="254.5" y1="184.5" x2="243.2" y2="184.5"/>
	<path style="fill:none;stroke:#FFFFFF;stroke-width:2;stroke-linecap:round;stroke-linejoin:round;stroke-miterlimit:10;" d="
		M249.2,147.7c3.6,0,14.1,1,15.1,15.3c0.1,7.6-8.3,11.1-9.1,17.3"/>
	
		<polyline style="fill:none;stroke:#FFFFFF;stroke-width:2;stroke-linecap:round;stroke-linejoin:round;stroke-miterlimit:10;" points="
		229.5,185.4 243.3,180.2 243.3,188.1 255.4,188.1 255.4,185.4 255.4,180.3 243.3,180.2 	"/>
	<path style="fill:none;stroke:#FFFFFF;stroke-width:2;stroke-linecap:round;stroke-linejoin:round;stroke-miterlimit:10;" d="
		M238.9,172.5"/>
	
		<line style="fill:none;stroke:#FFFFFF;stroke-width:2;stroke-linecap:round;stroke-linejoin:round;stroke-miterlimit:10;" x1="244" y1="184.5" x2="255.4" y2="184.5"/>
	<path style="fill:none;stroke:#FFFFFF;stroke-width:2;stroke-linecap:round;stroke-linejoin:round;stroke-miterlimit:10;" d="
		M249.3,147.7c-4.9,0-14.1,1-15.1,15.3c-0.1,7.6,8.3,11.1,9.1,17.3"/>
	
		<polyline style="fill:none;stroke:#FFFFFF;stroke-width:2;stroke-linecap:round;stroke-linejoin:round;stroke-miterlimit:10;" points="
		247.4,180.2 241.8,157.9 245.7,160.6 248.4,157.9 250.1,160.8 255.6,157.7 250.8,180.2 	"/>
	
		<line style="fill:none;stroke:#585858;stroke-linecap:round;stroke-linejoin:round;stroke-miterlimit:10;stroke-dasharray:1,5;" x1="509.4" y1="181.7" x2="488.8" y2="181.7"/>
</g>
</svg>
